<?xml version="1.0" encoding="UTF-8"?>
<svg xmlns="http://www.w3.org/2000/svg" xmlns:xlink="http://www.w3.org/1999/xlink" width="720pt" height="792pt" viewBox="0 0 720 792">
<defs>
<g>
<g id="glyph-0-0">
<path d="M 0.78125 0 L 0.78125 -17.21875 L 14.4375 -17.21875 L 14.4375 0 Z M 12.28125 -2.15625 L 12.28125 -15.0625 L 2.9375 -15.0625 L 2.9375 -2.15625 Z M 12.28125 -2.15625 "/>
</g>
<g id="glyph-0-1">
<path d="M 6.5 -16.78125 C 8.664062 -16.78125 10.234375 -15.882812 11.203125 -14.09375 C 11.953125 -12.71875 12.328125 -10.828125 12.328125 -8.421875 C 12.328125 -6.140625 11.988281 -4.25 11.3125 -2.75 C 10.320312 -0.613281 8.710938 0.453125 6.484375 0.453125 C 4.460938 0.453125 2.960938 -0.421875 1.984375 -2.171875 C 1.160156 -3.628906 0.75 -5.585938 0.75 -8.046875 C 0.75 -9.953125 0.992188 -11.59375 1.484375 -12.96875 C 2.410156 -15.507812 4.082031 -16.78125 6.5 -16.78125 Z M 6.46875 -1.46875 C 7.5625 -1.46875 8.429688 -1.953125 9.078125 -2.921875 C 9.734375 -3.890625 10.0625 -5.691406 10.0625 -8.328125 C 10.0625 -10.234375 9.828125 -11.800781 9.359375 -13.03125 C 8.890625 -14.269531 7.976562 -14.890625 6.625 -14.890625 C 5.382812 -14.890625 4.472656 -14.300781 3.890625 -13.125 C 3.316406 -11.957031 3.03125 -10.238281 3.03125 -7.96875 C 3.03125 -6.257812 3.21875 -4.882812 3.59375 -3.84375 C 4.15625 -2.257812 5.113281 -1.46875 6.46875 -1.46875 Z M 6.46875 -1.46875 "/>
</g>
<g id="glyph-0-2">
<path d="M 16.359375 -8.15625 C 17.484375 -8.15625 18.441406 -7.753906 19.234375 -6.953125 C 20.035156 -6.160156 20.4375 -5.203125 20.4375 -4.078125 C 20.4375 -2.953125 20.035156 -1.988281 19.234375 -1.1875 C 18.441406 -0.394531 17.484375 0 16.359375 0 C 15.222656 0 14.253906 -0.394531 13.453125 -1.1875 C 12.660156 -1.988281 12.265625 -2.953125 12.265625 -4.078125 C 12.265625 -5.203125 12.660156 -6.160156 13.453125 -6.953125 C 14.253906 -7.753906 15.222656 -8.15625 16.359375 -8.15625 Z M 14.65625 -16.71875 L 15.96875 -16.71875 L 6.578125 0.453125 L 5.28125 0.453125 Z M 4.859375 -9.78125 C 5.523438 -9.78125 6.09375 -10.015625 6.5625 -10.484375 C 7.039062 -10.953125 7.28125 -11.519531 7.28125 -12.1875 C 7.28125 -12.851562 7.039062 -13.421875 6.5625 -13.890625 C 6.09375 -14.367188 5.523438 -14.609375 4.859375 -14.609375 C 4.191406 -14.609375 3.617188 -14.375 3.140625 -13.90625 C 2.671875 -13.4375 2.4375 -12.863281 2.4375 -12.1875 C 2.4375 -11.519531 2.671875 -10.953125 3.140625 -10.484375 C 3.617188 -10.015625 4.191406 -9.78125 4.859375 -9.78125 Z M 4.859375 -16.28125 C 5.984375 -16.28125 6.941406 -15.878906 7.734375 -15.078125 C 8.535156 -14.273438 8.9375 -13.3125 8.9375 -12.1875 C 8.9375 -11.0625 8.535156 -10.097656 7.734375 -9.296875 C 6.941406 -8.503906 5.984375 -8.109375 4.859375 -8.109375 C 3.734375 -8.109375 2.769531 -8.503906 1.96875 -9.296875 C 1.175781 -10.097656 0.78125 -11.0625 0.78125 -12.1875 C 0.78125 -13.3125 1.175781 -14.273438 1.96875 -15.078125 C 2.769531 -15.878906 3.734375 -16.28125 4.859375 -16.28125 Z M 16.359375 -1.671875 C 17.023438 -1.671875 17.59375 -1.90625 18.0625 -2.375 C 18.539062 -2.84375 18.78125 -3.410156 18.78125 -4.078125 C 18.78125 -4.742188 18.539062 -5.3125 18.0625 -5.78125 C 17.59375 -6.257812 17.023438 -6.5 16.359375 -6.5 C 15.691406 -6.5 15.117188 -6.257812 14.640625 -5.78125 C 14.171875 -5.3125 13.9375 -4.742188 13.9375 -4.078125 C 13.9375 -3.410156 14.171875 -2.84375 14.640625 -2.375 C 15.117188 -1.90625 15.691406 -1.671875 16.359375 -1.671875 Z M 16.359375 -1.671875 "/>
</g>
<g id="glyph-0-3">
<path d="M 2.296875 -11.890625 L 2.296875 -13.5 C 3.816406 -13.644531 4.878906 -13.890625 5.484375 -14.234375 C 6.085938 -14.585938 6.535156 -15.414062 6.828125 -16.71875 L 8.5 -16.71875 L 8.5 0 L 6.25 0 L 6.25 -11.890625 Z M 2.296875 -11.890625 "/>
</g>
<g id="glyph-0-4">
<path d="M 0.75 0 C 0.832031 -1.445312 1.128906 -2.703125 1.640625 -3.765625 C 2.160156 -4.835938 3.175781 -5.8125 4.6875 -6.6875 L 6.9375 -8 C 7.945312 -8.582031 8.65625 -9.082031 9.0625 -9.5 C 9.695312 -10.144531 10.015625 -10.882812 10.015625 -11.71875 C 10.015625 -12.695312 9.722656 -13.472656 9.140625 -14.046875 C 8.554688 -14.617188 7.773438 -14.90625 6.796875 -14.90625 C 5.347656 -14.90625 4.347656 -14.359375 3.796875 -13.265625 C 3.503906 -12.679688 3.34375 -11.867188 3.3125 -10.828125 L 1.15625 -10.828125 C 1.1875 -12.285156 1.457031 -13.476562 1.96875 -14.40625 C 2.882812 -16.03125 4.5 -16.84375 6.8125 -16.84375 C 8.726562 -16.84375 10.128906 -16.320312 11.015625 -15.28125 C 11.910156 -14.238281 12.359375 -13.082031 12.359375 -11.8125 C 12.359375 -10.46875 11.882812 -9.320312 10.9375 -8.375 C 10.382812 -7.8125 9.40625 -7.140625 8 -6.359375 L 6.390625 -5.46875 C 5.617188 -5.039062 5.015625 -4.632812 4.578125 -4.25 C 3.796875 -3.570312 3.304688 -2.820312 3.109375 -2 L 12.265625 -2 L 12.265625 0 Z M 0.75 0 "/>
</g>
<g id="glyph-0-5">
<path d="M 6.234375 0.453125 C 4.253906 0.453125 2.816406 -0.0859375 1.921875 -1.171875 C 1.023438 -2.265625 0.578125 -3.59375 0.578125 -5.15625 L 2.78125 -5.15625 C 2.875 -4.070312 3.078125 -3.285156 3.390625 -2.796875 C 3.929688 -1.910156 4.921875 -1.46875 6.359375 -1.46875 C 7.460938 -1.46875 8.347656 -1.765625 9.015625 -2.359375 C 9.691406 -2.953125 10.03125 -3.71875 10.03125 -4.65625 C 10.03125 -5.8125 9.675781 -6.617188 8.96875 -7.078125 C 8.257812 -7.535156 7.28125 -7.765625 6.03125 -7.765625 C 5.882812 -7.765625 5.738281 -7.765625 5.59375 -7.765625 C 5.445312 -7.765625 5.300781 -7.757812 5.15625 -7.75 L 5.15625 -9.609375 C 5.375 -9.585938 5.554688 -9.570312 5.703125 -9.5625 C 5.859375 -9.550781 6.019531 -9.546875 6.1875 -9.546875 C 6.976562 -9.546875 7.628906 -9.671875 8.140625 -9.921875 C 9.023438 -10.359375 9.46875 -11.140625 9.46875 -12.265625 C 9.46875 -13.109375 9.171875 -13.753906 8.578125 -14.203125 C 7.984375 -14.660156 7.289062 -14.890625 6.5 -14.890625 C 5.09375 -14.890625 4.125 -14.421875 3.59375 -13.484375 C 3.289062 -12.960938 3.117188 -12.226562 3.078125 -11.28125 L 1 -11.28125 C 1 -12.53125 1.25 -13.59375 1.75 -14.46875 C 2.601562 -16.03125 4.113281 -16.8125 6.28125 -16.8125 C 7.988281 -16.8125 9.3125 -16.425781 10.25 -15.65625 C 11.1875 -14.894531 11.65625 -13.796875 11.65625 -12.359375 C 11.65625 -11.328125 11.378906 -10.488281 10.828125 -9.84375 C 10.484375 -9.445312 10.039062 -9.132812 9.5 -8.90625 C 10.375 -8.664062 11.0625 -8.195312 11.5625 -7.5 C 12.0625 -6.8125 12.3125 -5.96875 12.3125 -4.96875 C 12.3125 -3.363281 11.78125 -2.054688 10.71875 -1.046875 C 9.664062 -0.046875 8.171875 0.453125 6.234375 0.453125 Z M 6.234375 0.453125 "/>
</g>
<g id="glyph-0-6">
<path d="M 8.4375 -2 C 9.226562 -2 9.878906 -2.078125 10.390625 -2.234375 C 11.296875 -2.546875 12.035156 -3.132812 12.609375 -4 C 13.066406 -4.695312 13.398438 -5.585938 13.609375 -6.671875 C 13.722656 -7.316406 13.78125 -7.914062 13.78125 -8.46875 C 13.78125 -10.601562 13.351562 -12.257812 12.5 -13.4375 C 11.65625 -14.625 10.296875 -15.21875 8.421875 -15.21875 L 4.28125 -15.21875 L 4.28125 -2 Z M 1.9375 -17.21875 L 8.90625 -17.21875 C 11.269531 -17.21875 13.109375 -16.378906 14.421875 -14.703125 C 15.578125 -13.179688 16.15625 -11.238281 16.15625 -8.875 C 16.15625 -7.039062 15.8125 -5.390625 15.125 -3.921875 C 13.914062 -1.304688 11.835938 0 8.890625 0 L 1.9375 0 Z M 1.9375 -17.21875 "/>
</g>
<g id="glyph-0-7">
<path d="M 6.78125 -12.828125 C 7.664062 -12.828125 8.523438 -12.617188 9.359375 -12.203125 C 10.203125 -11.785156 10.84375 -11.242188 11.28125 -10.578125 C 11.695312 -9.953125 11.976562 -9.21875 12.125 -8.375 C 12.25 -7.789062 12.3125 -6.867188 12.3125 -5.609375 L 3.109375 -5.609375 C 3.148438 -4.328125 3.453125 -3.300781 4.015625 -2.53125 C 4.578125 -1.769531 5.445312 -1.390625 6.625 -1.390625 C 7.726562 -1.390625 8.609375 -1.75 9.265625 -2.46875 C 9.640625 -2.894531 9.90625 -3.382812 10.0625 -3.9375 L 12.125 -3.9375 C 12.070312 -3.476562 11.890625 -2.960938 11.578125 -2.390625 C 11.273438 -1.828125 10.929688 -1.367188 10.546875 -1.015625 C 9.910156 -0.390625 9.117188 0.0351562 8.171875 0.265625 C 7.660156 0.390625 7.085938 0.453125 6.453125 0.453125 C 4.890625 0.453125 3.5625 -0.113281 2.46875 -1.25 C 1.382812 -2.394531 0.84375 -3.988281 0.84375 -6.03125 C 0.84375 -8.050781 1.390625 -9.6875 2.484375 -10.9375 C 3.578125 -12.195312 5.007812 -12.828125 6.78125 -12.828125 Z M 10.140625 -7.28125 C 10.054688 -8.195312 9.859375 -8.925781 9.546875 -9.46875 C 8.960938 -10.488281 7.992188 -11 6.640625 -11 C 5.671875 -11 4.859375 -10.644531 4.203125 -9.9375 C 3.546875 -9.238281 3.203125 -8.351562 3.171875 -7.28125 Z M 6.578125 -12.859375 Z M 6.578125 -12.859375 "/>
</g>
<g id="glyph-0-8">
<path d="M 1.546875 -12.546875 L 3.640625 -12.546875 L 3.640625 -10.765625 C 4.140625 -11.390625 4.59375 -11.84375 5 -12.125 C 5.6875 -12.59375 6.472656 -12.828125 7.359375 -12.828125 C 8.359375 -12.828125 9.164062 -12.582031 9.78125 -12.09375 C 10.125 -11.8125 10.4375 -11.398438 10.71875 -10.859375 C 11.1875 -11.523438 11.734375 -12.019531 12.359375 -12.34375 C 12.992188 -12.664062 13.707031 -12.828125 14.5 -12.828125 C 16.1875 -12.828125 17.332031 -12.21875 17.9375 -11 C 18.269531 -10.34375 18.4375 -9.460938 18.4375 -8.359375 L 18.4375 0 L 16.25 0 L 16.25 -8.71875 C 16.25 -9.550781 16.035156 -10.125 15.609375 -10.4375 C 15.191406 -10.75 14.6875 -10.90625 14.09375 -10.90625 C 13.257812 -10.90625 12.539062 -10.628906 11.9375 -10.078125 C 11.34375 -9.523438 11.046875 -8.597656 11.046875 -7.296875 L 11.046875 0 L 8.90625 0 L 8.90625 -8.1875 C 8.90625 -9.039062 8.804688 -9.664062 8.609375 -10.0625 C 8.285156 -10.644531 7.6875 -10.9375 6.8125 -10.9375 C 6.007812 -10.9375 5.28125 -10.625 4.625 -10 C 3.976562 -9.382812 3.65625 -8.269531 3.65625 -6.65625 L 3.65625 0 L 1.546875 0 Z M 1.546875 -12.546875 "/>
</g>
<g id="glyph-0-9">
<path d="M 6.53125 -1.359375 C 7.925781 -1.359375 8.882812 -1.882812 9.40625 -2.9375 C 9.925781 -4 10.1875 -5.179688 10.1875 -6.484375 C 10.1875 -7.648438 10 -8.601562 9.625 -9.34375 C 9.03125 -10.5 8.003906 -11.078125 6.546875 -11.078125 C 5.265625 -11.078125 4.328125 -10.582031 3.734375 -9.59375 C 3.148438 -8.613281 2.859375 -7.425781 2.859375 -6.03125 C 2.859375 -4.695312 3.148438 -3.582031 3.734375 -2.6875 C 4.328125 -1.800781 5.257812 -1.359375 6.53125 -1.359375 Z M 6.609375 -12.921875 C 8.222656 -12.921875 9.585938 -12.378906 10.703125 -11.296875 C 11.828125 -10.222656 12.390625 -8.640625 12.390625 -6.546875 C 12.390625 -4.515625 11.894531 -2.835938 10.90625 -1.515625 C 9.925781 -0.203125 8.398438 0.453125 6.328125 0.453125 C 4.597656 0.453125 3.222656 -0.128906 2.203125 -1.296875 C 1.191406 -2.460938 0.6875 -4.03125 0.6875 -6 C 0.6875 -8.113281 1.222656 -9.796875 2.296875 -11.046875 C 3.367188 -12.296875 4.804688 -12.921875 6.609375 -12.921875 Z M 6.546875 -12.859375 Z M 6.546875 -12.859375 "/>
</g>
<g id="glyph-0-10">
<path d="M 6.390625 -12.921875 C 7.804688 -12.921875 8.957031 -12.578125 9.84375 -11.890625 C 10.726562 -11.203125 11.257812 -10.015625 11.4375 -8.328125 L 9.390625 -8.328125 C 9.265625 -9.109375 8.976562 -9.753906 8.53125 -10.265625 C 8.082031 -10.773438 7.367188 -11.03125 6.390625 -11.03125 C 5.046875 -11.03125 4.082031 -10.375 3.5 -9.0625 C 3.125 -8.207031 2.9375 -7.15625 2.9375 -5.90625 C 2.9375 -4.644531 3.203125 -3.582031 3.734375 -2.71875 C 4.265625 -1.863281 5.101562 -1.4375 6.25 -1.4375 C 7.125 -1.4375 7.816406 -1.703125 8.328125 -2.234375 C 8.835938 -2.773438 9.191406 -3.507812 9.390625 -4.4375 L 11.4375 -4.4375 C 11.207031 -2.78125 10.625 -1.566406 9.6875 -0.796875 C 8.75 -0.0234375 7.546875 0.359375 6.078125 0.359375 C 4.441406 0.359375 3.132812 -0.238281 2.15625 -1.4375 C 1.175781 -2.632812 0.6875 -4.132812 0.6875 -5.9375 C 0.6875 -8.132812 1.222656 -9.847656 2.296875 -11.078125 C 3.367188 -12.304688 4.734375 -12.921875 6.390625 -12.921875 Z M 6.0625 -12.859375 Z M 6.0625 -12.859375 "/>
</g>
<g id="glyph-0-11">
<path d="M 1.609375 -12.546875 L 3.609375 -12.546875 L 3.609375 -10.390625 C 3.773438 -10.804688 4.175781 -11.316406 4.8125 -11.921875 C 5.457031 -12.523438 6.195312 -12.828125 7.03125 -12.828125 C 7.070312 -12.828125 7.140625 -12.820312 7.234375 -12.8125 C 7.328125 -12.8125 7.488281 -12.800781 7.71875 -12.78125 L 7.71875 -10.546875 C 7.59375 -10.566406 7.472656 -10.582031 7.359375 -10.59375 C 7.253906 -10.601562 7.140625 -10.609375 7.015625 -10.609375 C 5.953125 -10.609375 5.132812 -10.265625 4.5625 -9.578125 C 4 -8.898438 3.71875 -8.113281 3.71875 -7.21875 L 3.71875 0 L 1.609375 0 Z M 1.609375 -12.546875 "/>
</g>
<g id="glyph-0-12">
<path d="M 3.171875 -3.34375 C 3.171875 -2.726562 3.390625 -2.242188 3.828125 -1.890625 C 4.273438 -1.546875 4.804688 -1.375 5.421875 -1.375 C 6.160156 -1.375 6.878906 -1.546875 7.578125 -1.890625 C 8.742188 -2.460938 9.328125 -3.394531 9.328125 -4.6875 L 9.328125 -6.390625 C 9.066406 -6.222656 8.734375 -6.082031 8.328125 -5.96875 C 7.921875 -5.863281 7.523438 -5.789062 7.140625 -5.75 L 5.859375 -5.578125 C 5.097656 -5.472656 4.523438 -5.3125 4.140625 -5.09375 C 3.492188 -4.726562 3.171875 -4.144531 3.171875 -3.34375 Z M 8.28125 -7.609375 C 8.757812 -7.671875 9.082031 -7.875 9.25 -8.21875 C 9.34375 -8.40625 9.390625 -8.675781 9.390625 -9.03125 C 9.390625 -9.75 9.132812 -10.269531 8.625 -10.59375 C 8.113281 -10.914062 7.378906 -11.078125 6.421875 -11.078125 C 5.316406 -11.078125 4.535156 -10.78125 4.078125 -10.1875 C 3.816406 -9.851562 3.648438 -9.363281 3.578125 -8.71875 L 1.609375 -8.71875 C 1.648438 -10.269531 2.148438 -11.347656 3.109375 -11.953125 C 4.078125 -12.554688 5.195312 -12.859375 6.46875 -12.859375 C 7.945312 -12.859375 9.144531 -12.578125 10.0625 -12.015625 C 10.976562 -11.453125 11.4375 -10.578125 11.4375 -9.390625 L 11.4375 -2.15625 C 11.4375 -1.9375 11.476562 -1.757812 11.5625 -1.625 C 11.65625 -1.5 11.847656 -1.4375 12.140625 -1.4375 C 12.234375 -1.4375 12.335938 -1.441406 12.453125 -1.453125 C 12.578125 -1.460938 12.703125 -1.476562 12.828125 -1.5 L 12.828125 0.0625 C 12.503906 0.15625 12.253906 0.210938 12.078125 0.234375 C 11.910156 0.253906 11.675781 0.265625 11.375 0.265625 C 10.65625 0.265625 10.128906 0.0078125 9.796875 -0.5 C 9.628906 -0.78125 9.507812 -1.171875 9.4375 -1.671875 C 9.007812 -1.109375 8.390625 -0.617188 7.578125 -0.203125 C 6.773438 0.210938 5.890625 0.421875 4.921875 0.421875 C 3.753906 0.421875 2.800781 0.0664062 2.0625 -0.640625 C 1.332031 -1.347656 0.96875 -2.234375 0.96875 -3.296875 C 0.96875 -4.460938 1.328125 -5.363281 2.046875 -6 C 2.773438 -6.644531 3.726562 -7.039062 4.90625 -7.1875 Z M 6.53125 -12.859375 Z M 6.53125 -12.859375 "/>
</g>
<g id="glyph-0-13">
<path d="M 1.96875 -16.0625 L 4.109375 -16.0625 L 4.109375 -12.546875 L 6.109375 -12.546875 L 6.109375 -10.828125 L 4.109375 -10.828125 L 4.109375 -2.640625 C 4.109375 -2.203125 4.253906 -1.910156 4.546875 -1.765625 C 4.710938 -1.671875 4.988281 -1.625 5.375 -1.625 C 5.46875 -1.625 5.570312 -1.625 5.6875 -1.625 C 5.8125 -1.632812 5.953125 -1.648438 6.109375 -1.671875 L 6.109375 0 C 5.867188 0.0703125 5.613281 0.125 5.34375 0.15625 C 5.082031 0.1875 4.800781 0.203125 4.5 0.203125 C 3.519531 0.203125 2.851562 -0.046875 2.5 -0.546875 C 2.144531 -1.054688 1.96875 -1.710938 1.96875 -2.515625 L 1.96875 -10.828125 L 0.265625 -10.828125 L 0.265625 -12.546875 L 1.96875 -12.546875 Z M 1.96875 -16.0625 "/>
</g>
<g id="glyph-0-14">
<path d="M 9.828125 -9.328125 C 10.921875 -9.328125 11.785156 -9.546875 12.421875 -9.984375 C 13.066406 -10.421875 13.390625 -11.210938 13.390625 -12.359375 C 13.390625 -13.578125 12.941406 -14.410156 12.046875 -14.859375 C 11.566406 -15.097656 10.929688 -15.21875 10.140625 -15.21875 L 4.4375 -15.21875 L 4.4375 -9.328125 Z M 2.109375 -17.21875 L 10.078125 -17.21875 C 11.390625 -17.21875 12.472656 -17.023438 13.328125 -16.640625 C 14.941406 -15.910156 15.75 -14.554688 15.75 -12.578125 C 15.75 -11.546875 15.535156 -10.703125 15.109375 -10.046875 C 14.679688 -9.390625 14.085938 -8.863281 13.328125 -8.46875 C 13.992188 -8.1875 14.5 -7.820312 14.84375 -7.375 C 15.1875 -6.9375 15.375 -6.21875 15.40625 -5.21875 L 15.5 -2.90625 C 15.519531 -2.25 15.570312 -1.757812 15.65625 -1.4375 C 15.800781 -0.894531 16.050781 -0.546875 16.40625 -0.390625 L 16.40625 0 L 13.546875 0 C 13.472656 -0.144531 13.410156 -0.332031 13.359375 -0.5625 C 13.316406 -0.800781 13.28125 -1.257812 13.25 -1.9375 L 13.109375 -4.8125 C 13.046875 -5.9375 12.625 -6.6875 11.84375 -7.0625 C 11.40625 -7.28125 10.707031 -7.390625 9.75 -7.390625 L 4.4375 -7.390625 L 4.4375 0 L 2.109375 0 Z M 2.109375 -17.21875 "/>
</g>
<g id="glyph-0-15">
<path d="M 6.84375 -1.421875 C 7.832031 -1.421875 8.648438 -1.832031 9.296875 -2.65625 C 9.953125 -3.476562 10.28125 -4.710938 10.28125 -6.359375 C 10.28125 -7.359375 10.132812 -8.21875 9.84375 -8.9375 C 9.300781 -10.3125 8.300781 -11 6.84375 -11 C 5.382812 -11 4.382812 -10.269531 3.84375 -8.8125 C 3.550781 -8.03125 3.40625 -7.039062 3.40625 -5.84375 C 3.40625 -4.875 3.550781 -4.046875 3.84375 -3.359375 C 4.394531 -2.066406 5.394531 -1.421875 6.84375 -1.421875 Z M 1.390625 -12.5 L 3.4375 -12.5 L 3.4375 -10.828125 C 3.851562 -11.398438 4.3125 -11.84375 4.8125 -12.15625 C 5.53125 -12.625 6.367188 -12.859375 7.328125 -12.859375 C 8.742188 -12.859375 9.945312 -12.3125 10.9375 -11.21875 C 11.9375 -10.132812 12.4375 -8.578125 12.4375 -6.546875 C 12.4375 -3.816406 11.722656 -1.863281 10.296875 -0.6875 C 9.390625 0.0507812 8.332031 0.421875 7.125 0.421875 C 6.175781 0.421875 5.382812 0.210938 4.75 -0.203125 C 4.375 -0.429688 3.957031 -0.832031 3.5 -1.40625 L 3.5 5 L 1.390625 5 Z M 1.390625 -12.5 "/>
</g>
<g id="glyph-0-16">
<path d="M 3.65625 -12.546875 L 3.65625 -4.21875 C 3.65625 -3.582031 3.757812 -3.0625 3.96875 -2.65625 C 4.34375 -1.90625 5.039062 -1.53125 6.0625 -1.53125 C 7.53125 -1.53125 8.53125 -2.1875 9.0625 -3.5 C 9.351562 -4.195312 9.5 -5.160156 9.5 -6.390625 L 9.5 -12.546875 L 11.609375 -12.546875 L 11.609375 0 L 9.609375 0 L 9.640625 -1.859375 C 9.359375 -1.378906 9.015625 -0.972656 8.609375 -0.640625 C 7.804688 0.0117188 6.832031 0.34375 5.6875 0.34375 C 3.894531 0.34375 2.675781 -0.253906 2.03125 -1.453125 C 1.675781 -2.097656 1.5 -2.953125 1.5 -4.015625 L 1.5 -12.546875 Z M 6.546875 -12.859375 Z M 6.546875 -12.859375 "/>
</g>
<g id="glyph-0-17">
<path d="M 1.390625 -17.28125 L 3.4375 -17.28125 L 3.4375 -11.03125 C 3.894531 -11.632812 4.441406 -12.09375 5.078125 -12.40625 C 5.722656 -12.71875 6.421875 -12.875 7.171875 -12.875 C 8.734375 -12.875 10 -12.335938 10.96875 -11.265625 C 11.945312 -10.191406 12.4375 -8.609375 12.4375 -6.515625 C 12.4375 -4.535156 11.953125 -2.882812 10.984375 -1.5625 C 10.023438 -0.25 8.695312 0.40625 7 0.40625 C 6.039062 0.40625 5.234375 0.167969 4.578125 -0.296875 C 4.191406 -0.566406 3.773438 -1.003906 3.328125 -1.609375 L 3.328125 0 L 1.390625 0 Z M 6.875 -1.46875 C 8.007812 -1.46875 8.859375 -1.921875 9.421875 -2.828125 C 9.992188 -3.734375 10.28125 -4.925781 10.28125 -6.40625 C 10.28125 -7.726562 9.992188 -8.820312 9.421875 -9.6875 C 8.859375 -10.5625 8.023438 -11 6.921875 -11 C 5.960938 -11 5.117188 -10.640625 4.390625 -9.921875 C 3.671875 -9.210938 3.3125 -8.039062 3.3125 -6.40625 C 3.3125 -5.226562 3.460938 -4.273438 3.765625 -3.546875 C 4.316406 -2.160156 5.351562 -1.46875 6.875 -1.46875 Z M 6.875 -1.46875 "/>
</g>
<g id="glyph-0-18">
<path d="M 1.609375 -17.21875 L 3.71875 -17.21875 L 3.71875 0 L 1.609375 0 Z M 1.609375 -17.21875 "/>
</g>
<g id="glyph-0-19">
<path d="M 1.546875 -12.5 L 3.6875 -12.5 L 3.6875 0 L 1.546875 0 Z M 1.546875 -17.21875 L 3.6875 -17.21875 L 3.6875 -14.828125 L 1.546875 -14.828125 Z M 1.546875 -17.21875 "/>
</g>
<g id="glyph-0-20">
<path d="M 1.546875 -12.546875 L 3.546875 -12.546875 L 3.546875 -10.765625 C 4.140625 -11.503906 4.769531 -12.03125 5.4375 -12.34375 C 6.101562 -12.664062 6.84375 -12.828125 7.65625 -12.828125 C 9.4375 -12.828125 10.640625 -12.207031 11.265625 -10.96875 C 11.609375 -10.289062 11.78125 -9.316406 11.78125 -8.046875 L 11.78125 0 L 9.640625 0 L 9.640625 -7.90625 C 9.640625 -8.675781 9.523438 -9.296875 9.296875 -9.765625 C 8.921875 -10.546875 8.238281 -10.9375 7.25 -10.9375 C 6.75 -10.9375 6.34375 -10.882812 6.03125 -10.78125 C 5.445312 -10.613281 4.9375 -10.269531 4.5 -9.75 C 4.144531 -9.332031 3.914062 -8.90625 3.8125 -8.46875 C 3.707031 -8.03125 3.65625 -7.398438 3.65625 -6.578125 L 3.65625 0 L 1.546875 0 Z M 6.5 -12.859375 Z M 6.5 -12.859375 "/>
</g>
<g id="glyph-0-21">
<path d="M 2.359375 -17.21875 L 4.71875 -17.21875 L 4.71875 0 L 2.359375 0 Z M 2.359375 -17.21875 "/>
</g>
<g id="glyph-0-22">
<path d="M 2.890625 -6.125 C 2.890625 -4.78125 3.171875 -3.65625 3.734375 -2.75 C 4.304688 -1.84375 5.222656 -1.390625 6.484375 -1.390625 C 7.460938 -1.390625 8.265625 -1.8125 8.890625 -2.65625 C 9.515625 -3.5 9.828125 -4.703125 9.828125 -6.265625 C 9.828125 -7.859375 9.503906 -9.035156 8.859375 -9.796875 C 8.210938 -10.554688 7.410156 -10.9375 6.453125 -10.9375 C 5.390625 -10.9375 4.53125 -10.53125 3.875 -9.71875 C 3.21875 -8.90625 2.890625 -7.707031 2.890625 -6.125 Z M 6.0625 -12.78125 C 7.019531 -12.78125 7.820312 -12.578125 8.46875 -12.171875 C 8.84375 -11.929688 9.269531 -11.519531 9.75 -10.9375 L 9.75 -17.28125 L 11.78125 -17.28125 L 11.78125 0 L 9.875 0 L 9.875 -1.75 C 9.382812 -0.976562 8.800781 -0.414062 8.125 -0.0625 C 7.457031 0.28125 6.691406 0.453125 5.828125 0.453125 C 4.429688 0.453125 3.21875 -0.132812 2.1875 -1.3125 C 1.164062 -2.488281 0.65625 -4.054688 0.65625 -6.015625 C 0.65625 -7.835938 1.117188 -9.421875 2.046875 -10.765625 C 2.984375 -12.109375 4.320312 -12.78125 6.0625 -12.78125 Z M 6.0625 -12.78125 "/>
</g>
<g id="glyph-0-23">
<path d="M 9.265625 -17.6875 C 12.296875 -17.6875 14.546875 -16.707031 16.015625 -14.75 C 17.148438 -13.226562 17.71875 -11.28125 17.71875 -8.90625 C 17.71875 -6.332031 17.066406 -4.195312 15.765625 -2.5 C 14.234375 -0.5 12.050781 0.5 9.21875 0.5 C 6.5625 0.5 4.476562 -0.375 2.96875 -2.125 C 1.613281 -3.8125 0.9375 -5.941406 0.9375 -8.515625 C 0.9375 -10.847656 1.515625 -12.84375 2.671875 -14.5 C 4.160156 -16.625 6.359375 -17.6875 9.265625 -17.6875 Z M 9.5 -1.578125 C 11.550781 -1.578125 13.035156 -2.3125 13.953125 -3.78125 C 14.867188 -5.257812 15.328125 -6.957031 15.328125 -8.875 C 15.328125 -10.894531 14.796875 -12.519531 13.734375 -13.75 C 12.679688 -14.988281 11.238281 -15.609375 9.40625 -15.609375 C 7.625 -15.609375 6.171875 -14.992188 5.046875 -13.765625 C 3.921875 -12.546875 3.359375 -10.75 3.359375 -8.375 C 3.359375 -6.46875 3.835938 -4.859375 4.796875 -3.546875 C 5.765625 -2.234375 7.332031 -1.578125 9.5 -1.578125 Z M 9.328125 -17.6875 Z M 9.328125 -17.6875 "/>
</g>
<g id="glyph-0-24">
<path d="M 1.546875 -17.28125 L 3.65625 -17.28125 L 3.65625 -10.859375 C 4.15625 -11.484375 4.601562 -11.925781 5 -12.1875 C 5.6875 -12.632812 6.535156 -12.859375 7.546875 -12.859375 C 9.367188 -12.859375 10.601562 -12.222656 11.25 -10.953125 C 11.601562 -10.253906 11.78125 -9.285156 11.78125 -8.046875 L 11.78125 0 L 9.609375 0 L 9.609375 -7.90625 C 9.609375 -8.832031 9.492188 -9.507812 9.265625 -9.9375 C 8.878906 -10.625 8.160156 -10.96875 7.109375 -10.96875 C 6.234375 -10.96875 5.4375 -10.664062 4.71875 -10.0625 C 4.007812 -9.46875 3.65625 -8.332031 3.65625 -6.65625 L 3.65625 0 L 1.546875 0 Z M 1.546875 -17.28125 "/>
</g>
<g id="glyph-1-0">
<path d="M 0.96875 0 L 0.96875 -21.515625 L 18.046875 -21.515625 L 18.046875 0 Z M 15.359375 -2.703125 L 15.359375 -18.828125 L 3.65625 -18.828125 L 3.65625 -2.703125 Z M 15.359375 -2.703125 "/>
</g>
<g id="glyph-1-1">
<path d="M 8.5625 -1.765625 C 9.789062 -1.765625 10.8125 -2.28125 11.625 -3.3125 C 12.4375 -4.34375 12.84375 -5.882812 12.84375 -7.9375 C 12.84375 -9.1875 12.664062 -10.257812 12.3125 -11.15625 C 11.625 -12.882812 10.375 -13.75 8.5625 -13.75 C 6.726562 -13.75 5.476562 -12.835938 4.8125 -11.015625 C 4.445312 -10.035156 4.265625 -8.796875 4.265625 -7.296875 C 4.265625 -6.085938 4.445312 -5.054688 4.8125 -4.203125 C 5.488281 -2.578125 6.738281 -1.765625 8.5625 -1.765625 Z M 1.734375 -15.609375 L 4.296875 -15.609375 L 4.296875 -13.53125 C 4.816406 -14.25 5.390625 -14.800781 6.015625 -15.1875 C 6.910156 -15.769531 7.957031 -16.0625 9.15625 -16.0625 C 10.9375 -16.0625 12.445312 -15.378906 13.6875 -14.015625 C 14.925781 -12.660156 15.546875 -10.71875 15.546875 -8.1875 C 15.546875 -4.769531 14.648438 -2.328125 12.859375 -0.859375 C 11.722656 0.0664062 10.40625 0.53125 8.90625 0.53125 C 7.726562 0.53125 6.738281 0.269531 5.9375 -0.25 C 5.46875 -0.539062 4.941406 -1.046875 4.359375 -1.765625 L 4.359375 6.25 L 1.734375 6.25 Z M 1.734375 -15.609375 "/>
</g>
<g id="glyph-1-2">
<path d="M 3.953125 -4.171875 C 3.953125 -3.410156 4.226562 -2.8125 4.78125 -2.375 C 5.34375 -1.9375 6.003906 -1.71875 6.765625 -1.71875 C 7.691406 -1.71875 8.59375 -1.929688 9.46875 -2.359375 C 10.925781 -3.066406 11.65625 -4.234375 11.65625 -5.859375 L 11.65625 -7.984375 C 11.332031 -7.773438 10.914062 -7.601562 10.40625 -7.46875 C 9.90625 -7.332031 9.410156 -7.234375 8.921875 -7.171875 L 7.328125 -6.96875 C 6.367188 -6.84375 5.648438 -6.644531 5.171875 -6.375 C 4.359375 -5.914062 3.953125 -5.179688 3.953125 -4.171875 Z M 10.34375 -9.5 C 10.945312 -9.582031 11.351562 -9.835938 11.5625 -10.265625 C 11.675781 -10.503906 11.734375 -10.84375 11.734375 -11.28125 C 11.734375 -12.175781 11.410156 -12.828125 10.765625 -13.234375 C 10.128906 -13.640625 9.21875 -13.84375 8.03125 -13.84375 C 6.65625 -13.84375 5.675781 -13.472656 5.09375 -12.734375 C 4.769531 -12.316406 4.5625 -11.707031 4.46875 -10.90625 L 2 -10.90625 C 2.050781 -12.832031 2.679688 -14.171875 3.890625 -14.921875 C 5.097656 -15.679688 6.5 -16.0625 8.09375 -16.0625 C 9.9375 -16.0625 11.429688 -15.710938 12.578125 -15.015625 C 13.722656 -14.304688 14.296875 -13.210938 14.296875 -11.734375 L 14.296875 -2.703125 C 14.296875 -2.421875 14.351562 -2.195312 14.46875 -2.03125 C 14.582031 -1.863281 14.816406 -1.78125 15.171875 -1.78125 C 15.296875 -1.78125 15.429688 -1.785156 15.578125 -1.796875 C 15.722656 -1.816406 15.878906 -1.84375 16.046875 -1.875 L 16.046875 0.078125 C 15.628906 0.191406 15.3125 0.265625 15.09375 0.296875 C 14.882812 0.328125 14.59375 0.34375 14.21875 0.34375 C 13.3125 0.34375 12.65625 0.0195312 12.25 -0.625 C 12.03125 -0.96875 11.878906 -1.453125 11.796875 -2.078125 C 11.253906 -1.378906 10.476562 -0.769531 9.46875 -0.25 C 8.46875 0.269531 7.363281 0.53125 6.15625 0.53125 C 4.695312 0.53125 3.503906 0.0859375 2.578125 -0.796875 C 1.660156 -1.679688 1.203125 -2.785156 1.203125 -4.109375 C 1.203125 -5.566406 1.65625 -6.695312 2.5625 -7.5 C 3.46875 -8.300781 4.660156 -8.796875 6.140625 -8.984375 Z M 8.15625 -16.0625 Z M 8.15625 -16.0625 "/>
</g>
<g id="glyph-1-3">
<path d="M 2 -15.6875 L 4.515625 -15.6875 L 4.515625 -12.984375 C 4.710938 -13.503906 5.210938 -14.144531 6.015625 -14.90625 C 6.816406 -15.664062 7.742188 -16.046875 8.796875 -16.046875 C 8.835938 -16.046875 8.914062 -16.039062 9.03125 -16.03125 C 9.15625 -16.019531 9.359375 -16 9.640625 -15.96875 L 9.640625 -13.1875 C 9.484375 -13.21875 9.335938 -13.234375 9.203125 -13.234375 C 9.078125 -13.242188 8.9375 -13.25 8.78125 -13.25 C 7.445312 -13.25 6.421875 -12.820312 5.703125 -11.96875 C 4.992188 -11.113281 4.640625 -10.132812 4.640625 -9.03125 L 4.640625 0 L 2 0 Z M 2 -15.6875 "/>
</g>
<g id="glyph-1-4">
<path d="M 2.46875 -20.0625 L 5.125 -20.0625 L 5.125 -15.6875 L 7.625 -15.6875 L 7.625 -13.53125 L 5.125 -13.53125 L 5.125 -3.296875 C 5.125 -2.742188 5.3125 -2.378906 5.6875 -2.203125 C 5.882812 -2.085938 6.222656 -2.03125 6.703125 -2.03125 C 6.835938 -2.03125 6.976562 -2.03125 7.125 -2.03125 C 7.269531 -2.039062 7.4375 -2.054688 7.625 -2.078125 L 7.625 0 C 7.320312 0.0820312 7.007812 0.144531 6.6875 0.1875 C 6.363281 0.226562 6.007812 0.25 5.625 0.25 C 4.394531 0.25 3.5625 -0.0625 3.125 -0.6875 C 2.6875 -1.320312 2.46875 -2.144531 2.46875 -3.15625 L 2.46875 -13.53125 L 0.34375 -13.53125 L 0.34375 -15.6875 L 2.46875 -15.6875 Z M 2.46875 -20.0625 "/>
</g>
<g id="glyph-1-5">
<path d="M 11.734375 -15.6875 L 14.65625 -15.6875 C 14.28125 -14.6875 13.453125 -12.390625 12.171875 -8.796875 C 11.210938 -6.109375 10.410156 -3.914062 9.765625 -2.21875 C 8.242188 1.789062 7.171875 4.234375 6.546875 5.109375 C 5.921875 5.992188 4.847656 6.4375 3.328125 6.4375 C 2.953125 6.4375 2.664062 6.421875 2.46875 6.390625 C 2.269531 6.359375 2.023438 6.300781 1.734375 6.21875 L 1.734375 3.828125 C 2.191406 3.953125 2.519531 4.03125 2.71875 4.0625 C 2.925781 4.09375 3.109375 4.109375 3.265625 4.109375 C 3.753906 4.109375 4.113281 4.023438 4.34375 3.859375 C 4.570312 3.703125 4.765625 3.503906 4.921875 3.265625 C 4.972656 3.191406 5.148438 2.789062 5.453125 2.0625 C 5.753906 1.34375 5.972656 0.804688 6.109375 0.453125 L 0.3125 -15.6875 L 3.296875 -15.6875 L 7.5 -2.921875 Z M 7.484375 -16.0625 Z M 7.484375 -16.0625 "/>
</g>
<g id="glyph-1-6">
</g>
<g id="glyph-1-7">
<path d="M 2.59375 -18.078125 C 2.632812 -19.171875 2.828125 -19.972656 3.171875 -20.484375 C 3.785156 -21.378906 4.96875 -21.828125 6.71875 -21.828125 C 6.882812 -21.828125 7.054688 -21.820312 7.234375 -21.8125 C 7.410156 -21.800781 7.613281 -21.785156 7.84375 -21.765625 L 7.84375 -19.359375 C 7.5625 -19.378906 7.359375 -19.390625 7.234375 -19.390625 C 7.117188 -19.398438 7.007812 -19.40625 6.90625 -19.40625 C 6.101562 -19.40625 5.625 -19.195312 5.46875 -18.78125 C 5.3125 -18.375 5.234375 -17.316406 5.234375 -15.609375 L 7.84375 -15.609375 L 7.84375 -13.53125 L 5.203125 -13.53125 L 5.203125 0 L 2.59375 0 L 2.59375 -13.53125 L 0.40625 -13.53125 L 0.40625 -15.609375 L 2.59375 -15.609375 Z M 2.59375 -18.078125 "/>
</g>
<g id="glyph-1-8">
<path d="M 2.59375 -18.078125 C 2.632812 -19.171875 2.828125 -19.972656 3.171875 -20.484375 C 3.785156 -21.378906 4.96875 -21.828125 6.71875 -21.828125 C 6.882812 -21.828125 7.054688 -21.820312 7.234375 -21.8125 C 7.410156 -21.800781 7.613281 -21.785156 7.84375 -21.765625 L 7.84375 -19.359375 C 7.5625 -19.378906 7.359375 -19.390625 7.234375 -19.390625 C 7.117188 -19.398438 7.007812 -19.40625 6.90625 -19.40625 C 6.101562 -19.40625 5.625 -19.195312 5.46875 -18.78125 C 5.3125 -18.375 5.234375 -17.316406 5.234375 -15.609375 L 7.84375 -15.609375 L 7.84375 -13.53125 L 5.203125 -13.53125 L 5.203125 0 L 2.59375 0 L 2.59375 -13.53125 L 0.40625 -13.53125 L 0.40625 -15.609375 L 2.59375 -15.609375 Z M 10.375 -18.53125 L 10.375 -21.515625 L 13.015625 -21.515625 L 13.015625 -18.53125 Z M 10.375 -15.609375 L 13.015625 -15.609375 L 13.015625 0 L 10.375 0 Z M 10.375 -15.609375 "/>
</g>
<g id="glyph-1-9">
<path d="M 2 -21.515625 L 4.640625 -21.515625 L 4.640625 0 L 2 0 Z M 2 -21.515625 "/>
</g>
<g id="glyph-1-10">
<path d="M 1.9375 -15.609375 L 4.609375 -15.609375 L 4.609375 0 L 1.9375 0 Z M 1.9375 -21.515625 L 4.609375 -21.515625 L 4.609375 -18.53125 L 1.9375 -18.53125 Z M 1.9375 -21.515625 "/>
</g>
<g id="glyph-1-11">
<path d="M 8.15625 -1.703125 C 9.90625 -1.703125 11.101562 -2.363281 11.75 -3.6875 C 12.40625 -5.007812 12.734375 -6.476562 12.734375 -8.09375 C 12.734375 -9.5625 12.5 -10.753906 12.03125 -11.671875 C 11.28125 -13.117188 10 -13.84375 8.1875 -13.84375 C 6.570312 -13.84375 5.398438 -13.226562 4.671875 -12 C 3.941406 -10.769531 3.578125 -9.285156 3.578125 -7.546875 C 3.578125 -5.878906 3.941406 -4.488281 4.671875 -3.375 C 5.398438 -2.257812 6.5625 -1.703125 8.15625 -1.703125 Z M 8.265625 -16.140625 C 10.285156 -16.140625 11.992188 -15.460938 13.390625 -14.109375 C 14.785156 -12.765625 15.484375 -10.785156 15.484375 -8.171875 C 15.484375 -5.640625 14.867188 -3.546875 13.640625 -1.890625 C 12.410156 -0.242188 10.5 0.578125 7.90625 0.578125 C 5.75 0.578125 4.035156 -0.148438 2.765625 -1.609375 C 1.492188 -3.078125 0.859375 -5.039062 0.859375 -7.5 C 0.859375 -10.132812 1.523438 -12.234375 2.859375 -13.796875 C 4.203125 -15.359375 6.003906 -16.140625 8.265625 -16.140625 Z M 8.171875 -16.0625 Z M 8.171875 -16.0625 "/>
</g>
<g id="glyph-1-12">
<path d="M 1.9375 -15.6875 L 4.4375 -15.6875 L 4.4375 -13.46875 C 5.175781 -14.382812 5.960938 -15.039062 6.796875 -15.4375 C 7.628906 -15.84375 8.550781 -16.046875 9.5625 -16.046875 C 11.789062 -16.046875 13.296875 -15.269531 14.078125 -13.71875 C 14.503906 -12.863281 14.71875 -11.644531 14.71875 -10.0625 L 14.71875 0 L 12.046875 0 L 12.046875 -9.890625 C 12.046875 -10.847656 11.898438 -11.617188 11.609375 -12.203125 C 11.140625 -13.179688 10.289062 -13.671875 9.0625 -13.671875 C 8.4375 -13.671875 7.925781 -13.609375 7.53125 -13.484375 C 6.8125 -13.265625 6.175781 -12.832031 5.625 -12.1875 C 5.1875 -11.664062 4.898438 -11.128906 4.765625 -10.578125 C 4.640625 -10.023438 4.578125 -9.238281 4.578125 -8.21875 L 4.578125 0 L 1.9375 0 Z M 8.125 -16.0625 Z M 8.125 -16.0625 "/>
</g>
</g>
<clipPath id="clip-0">
<path clip-rule="nonzero" d="M 75.394531 14.945312 L 705.058594 14.945312 L 705.058594 703.136719 L 75.394531 703.136719 Z M 75.394531 14.945312 "/>
</clipPath>
<clipPath id="clip-1">
<path clip-rule="nonzero" d="M 75.394531 581 L 705.058594 581 L 705.058594 583 L 75.394531 583 Z M 75.394531 581 "/>
</clipPath>
<clipPath id="clip-2">
<path clip-rule="nonzero" d="M 75.394531 401 L 705.058594 401 L 705.058594 403 L 75.394531 403 Z M 75.394531 401 "/>
</clipPath>
<clipPath id="clip-3">
<path clip-rule="nonzero" d="M 75.394531 220 L 705.058594 220 L 705.058594 223 L 75.394531 223 Z M 75.394531 220 "/>
</clipPath>
<clipPath id="clip-4">
<path clip-rule="nonzero" d="M 75.394531 40 L 705.058594 40 L 705.058594 43 L 75.394531 43 Z M 75.394531 40 "/>
</clipPath>
<clipPath id="clip-5">
<path clip-rule="nonzero" d="M 75.394531 670 L 705.058594 670 L 705.058594 674 L 75.394531 674 Z M 75.394531 670 "/>
</clipPath>
<clipPath id="clip-6">
<path clip-rule="nonzero" d="M 75.394531 490 L 705.058594 490 L 705.058594 494 L 75.394531 494 Z M 75.394531 490 "/>
</clipPath>
<clipPath id="clip-7">
<path clip-rule="nonzero" d="M 75.394531 310 L 705.058594 310 L 705.058594 314 L 75.394531 314 Z M 75.394531 310 "/>
</clipPath>
<clipPath id="clip-8">
<path clip-rule="nonzero" d="M 75.394531 130 L 705.058594 130 L 705.058594 134 L 75.394531 134 Z M 75.394531 130 "/>
</clipPath>
<clipPath id="clip-9">
<path clip-rule="nonzero" d="M 163 14.945312 L 167 14.945312 L 167 703.136719 L 163 703.136719 Z M 163 14.945312 "/>
</clipPath>
<clipPath id="clip-10">
<path clip-rule="nonzero" d="M 313 14.945312 L 317 14.945312 L 317 703.136719 L 313 703.136719 Z M 313 14.945312 "/>
</clipPath>
<clipPath id="clip-11">
<path clip-rule="nonzero" d="M 463 14.945312 L 467 14.945312 L 467 703.136719 L 463 703.136719 Z M 463 14.945312 "/>
</clipPath>
<clipPath id="clip-12">
<path clip-rule="nonzero" d="M 613 14.945312 L 617 14.945312 L 617 703.136719 L 613 703.136719 Z M 613 14.945312 "/>
</clipPath>
<clipPath id="clip-13">
<path clip-rule="nonzero" d="M 75.394531 14.945312 L 705.058594 14.945312 L 705.058594 703.136719 L 75.394531 703.136719 Z M 75.394531 14.945312 "/>
</clipPath>
</defs>
<rect x="-72" y="-79.2" width="864" height="950.4" fill="rgb(100%, 100%, 100%)" fill-opacity="1"/>
<rect x="-72" y="-79.2" width="864" height="950.4" fill="rgb(100%, 100%, 100%)" fill-opacity="1"/>
<path fill="none" stroke-width="2.909941" stroke-linecap="round" stroke-linejoin="round" stroke="rgb(100%, 100%, 100%)" stroke-opacity="1" stroke-miterlimit="10" d="M 0 792 L 720 792 L 720 0 L 0 0 Z M 0 792 "/>
<g clip-path="url(#clip-0)">
<path fill-rule="nonzero" fill="rgb(100%, 100%, 100%)" fill-opacity="1" d="M 75.394531 703.132812 L 705.058594 703.132812 L 705.058594 14.941406 L 75.394531 14.941406 Z M 75.394531 703.132812 "/>
</g>
<g clip-path="url(#clip-1)">
<path fill="none" stroke-width="1.45497" stroke-linecap="butt" stroke-linejoin="round" stroke="rgb(92.156863%, 92.156863%, 92.156863%)" stroke-opacity="1" stroke-miterlimit="10" d="M 75.394531 581.8125 L 705.054688 581.8125 "/>
</g>
<g clip-path="url(#clip-2)">
<path fill="none" stroke-width="1.45497" stroke-linecap="butt" stroke-linejoin="round" stroke="rgb(92.156863%, 92.156863%, 92.156863%)" stroke-opacity="1" stroke-miterlimit="10" d="M 75.394531 401.730469 L 705.054688 401.730469 "/>
</g>
<g clip-path="url(#clip-3)">
<path fill="none" stroke-width="1.45497" stroke-linecap="butt" stroke-linejoin="round" stroke="rgb(92.156863%, 92.156863%, 92.156863%)" stroke-opacity="1" stroke-miterlimit="10" d="M 75.394531 221.652344 L 705.054688 221.652344 "/>
</g>
<g clip-path="url(#clip-4)">
<path fill="none" stroke-width="1.45497" stroke-linecap="butt" stroke-linejoin="round" stroke="rgb(92.156863%, 92.156863%, 92.156863%)" stroke-opacity="1" stroke-miterlimit="10" d="M 75.394531 41.570312 L 705.054688 41.570312 "/>
</g>
<g clip-path="url(#clip-5)">
<path fill="none" stroke-width="2.909941" stroke-linecap="butt" stroke-linejoin="round" stroke="rgb(92.156863%, 92.156863%, 92.156863%)" stroke-opacity="1" stroke-miterlimit="10" d="M 75.394531 671.851562 L 705.054688 671.851562 "/>
</g>
<g clip-path="url(#clip-6)">
<path fill="none" stroke-width="2.909941" stroke-linecap="butt" stroke-linejoin="round" stroke="rgb(92.156863%, 92.156863%, 92.156863%)" stroke-opacity="1" stroke-miterlimit="10" d="M 75.394531 491.773438 L 705.054688 491.773438 "/>
</g>
<g clip-path="url(#clip-7)">
<path fill="none" stroke-width="2.909941" stroke-linecap="butt" stroke-linejoin="round" stroke="rgb(92.156863%, 92.156863%, 92.156863%)" stroke-opacity="1" stroke-miterlimit="10" d="M 75.394531 311.691406 L 705.054688 311.691406 "/>
</g>
<g clip-path="url(#clip-8)">
<path fill="none" stroke-width="2.909941" stroke-linecap="butt" stroke-linejoin="round" stroke="rgb(92.156863%, 92.156863%, 92.156863%)" stroke-opacity="1" stroke-miterlimit="10" d="M 75.394531 131.613281 L 705.054688 131.613281 "/>
</g>
<g clip-path="url(#clip-9)">
<path fill="none" stroke-width="2.909941" stroke-linecap="butt" stroke-linejoin="round" stroke="rgb(92.156863%, 92.156863%, 92.156863%)" stroke-opacity="1" stroke-miterlimit="10" d="M 165.34375 703.132812 L 165.34375 14.945312 "/>
</g>
<g clip-path="url(#clip-10)">
<path fill="none" stroke-width="2.909941" stroke-linecap="butt" stroke-linejoin="round" stroke="rgb(92.156863%, 92.156863%, 92.156863%)" stroke-opacity="1" stroke-miterlimit="10" d="M 315.265625 703.132812 L 315.265625 14.945312 "/>
</g>
<g clip-path="url(#clip-11)">
<path fill="none" stroke-width="2.909941" stroke-linecap="butt" stroke-linejoin="round" stroke="rgb(92.156863%, 92.156863%, 92.156863%)" stroke-opacity="1" stroke-miterlimit="10" d="M 465.183594 703.132812 L 465.183594 14.945312 "/>
</g>
<g clip-path="url(#clip-12)">
<path fill="none" stroke-width="2.909941" stroke-linecap="butt" stroke-linejoin="round" stroke="rgb(92.156863%, 92.156863%, 92.156863%)" stroke-opacity="1" stroke-miterlimit="10" d="M 615.105469 703.132812 L 615.105469 14.945312 "/>
</g>
<path fill-rule="nonzero" fill="rgb(34.901961%, 34.901961%, 34.901961%)" fill-opacity="1" d="M 97.882812 671.851562 L 232.808594 671.851562 L 232.808594 46.222656 L 97.882812 46.222656 Z M 97.882812 671.851562 "/>
<path fill-rule="nonzero" fill="rgb(34.901961%, 34.901961%, 34.901961%)" fill-opacity="1" d="M 247.800781 671.851562 L 382.726562 671.851562 L 382.726562 146.527344 L 247.800781 146.527344 Z M 247.800781 671.851562 "/>
<path fill-rule="nonzero" fill="rgb(34.901961%, 34.901961%, 34.901961%)" fill-opacity="1" d="M 397.722656 671.851562 L 532.648438 671.851562 L 532.648438 84.902344 L 397.722656 84.902344 Z M 397.722656 671.851562 "/>
<path fill-rule="nonzero" fill="rgb(34.901961%, 34.901961%, 34.901961%)" fill-opacity="1" d="M 547.640625 671.851562 L 682.566406 671.851562 L 682.566406 608.949219 L 547.640625 608.949219 Z M 547.640625 671.851562 "/>
<g clip-path="url(#clip-13)">
<path fill="none" stroke-width="2.909941" stroke-linecap="round" stroke-linejoin="round" stroke="rgb(20%, 20%, 20%)" stroke-opacity="1" stroke-miterlimit="10" d="M 75.394531 703.132812 L 705.058594 703.132812 L 705.058594 14.941406 L 75.394531 14.941406 Z M 75.394531 703.132812 "/>
</g>
<g fill="rgb(30.196078%, 30.196078%, 30.196078%)" fill-opacity="1">
<use xlink:href="#glyph-0-1" x="27.945312" y="680.332031"/>
<use xlink:href="#glyph-0-2" x="40.945312" y="680.332031"/>
</g>
<g fill="rgb(30.196078%, 30.196078%, 30.196078%)" fill-opacity="1">
<use xlink:href="#glyph-0-3" x="14.945312" y="500.253906"/>
<use xlink:href="#glyph-0-1" x="27.945312" y="500.253906"/>
<use xlink:href="#glyph-0-2" x="40.945312" y="500.253906"/>
</g>
<g fill="rgb(30.196078%, 30.196078%, 30.196078%)" fill-opacity="1">
<use xlink:href="#glyph-0-4" x="14.945312" y="320.171875"/>
<use xlink:href="#glyph-0-1" x="27.945312" y="320.171875"/>
<use xlink:href="#glyph-0-2" x="40.945312" y="320.171875"/>
</g>
<g fill="rgb(30.196078%, 30.196078%, 30.196078%)" fill-opacity="1">
<use xlink:href="#glyph-0-5" x="14.945312" y="140.09375"/>
<use xlink:href="#glyph-0-1" x="27.945312" y="140.09375"/>
<use xlink:href="#glyph-0-2" x="40.945312" y="140.09375"/>
</g>
<path fill="none" stroke-width="2.909941" stroke-linecap="butt" stroke-linejoin="round" stroke="rgb(20%, 20%, 20%)" stroke-opacity="1" stroke-miterlimit="10" d="M 67.921875 671.851562 L 75.394531 671.851562 "/>
<path fill="none" stroke-width="2.909941" stroke-linecap="butt" stroke-linejoin="round" stroke="rgb(20%, 20%, 20%)" stroke-opacity="1" stroke-miterlimit="10" d="M 67.921875 491.773438 L 75.394531 491.773438 "/>
<path fill="none" stroke-width="2.909941" stroke-linecap="butt" stroke-linejoin="round" stroke="rgb(20%, 20%, 20%)" stroke-opacity="1" stroke-miterlimit="10" d="M 67.921875 311.691406 L 75.394531 311.691406 "/>
<path fill="none" stroke-width="2.909941" stroke-linecap="butt" stroke-linejoin="round" stroke="rgb(20%, 20%, 20%)" stroke-opacity="1" stroke-miterlimit="10" d="M 67.921875 131.613281 L 75.394531 131.613281 "/>
<path fill="none" stroke-width="2.909941" stroke-linecap="butt" stroke-linejoin="round" stroke="rgb(20%, 20%, 20%)" stroke-opacity="1" stroke-miterlimit="10" d="M 165.34375 710.605469 L 165.34375 703.132812 "/>
<path fill="none" stroke-width="2.909941" stroke-linecap="butt" stroke-linejoin="round" stroke="rgb(20%, 20%, 20%)" stroke-opacity="1" stroke-miterlimit="10" d="M 315.265625 710.605469 L 315.265625 703.132812 "/>
<path fill="none" stroke-width="2.909941" stroke-linecap="butt" stroke-linejoin="round" stroke="rgb(20%, 20%, 20%)" stroke-opacity="1" stroke-miterlimit="10" d="M 465.183594 710.605469 L 465.183594 703.132812 "/>
<path fill="none" stroke-width="2.909941" stroke-linecap="butt" stroke-linejoin="round" stroke="rgb(20%, 20%, 20%)" stroke-opacity="1" stroke-miterlimit="10" d="M 615.105469 710.605469 L 615.105469 703.132812 "/>
<g fill="rgb(30.196078%, 30.196078%, 30.196078%)" fill-opacity="1">
<use xlink:href="#glyph-0-6" x="113.84375" y="734.066406"/>
<use xlink:href="#glyph-0-7" x="130.84375" y="734.066406"/>
<use xlink:href="#glyph-0-8" x="143.84375" y="734.066406"/>
<use xlink:href="#glyph-0-9" x="163.84375" y="734.066406"/>
<use xlink:href="#glyph-0-10" x="176.84375" y="734.066406"/>
<use xlink:href="#glyph-0-11" x="188.84375" y="734.066406"/>
<use xlink:href="#glyph-0-12" x="196.84375" y="734.066406"/>
<use xlink:href="#glyph-0-13" x="209.84375" y="734.066406"/>
</g>
<g fill="rgb(30.196078%, 30.196078%, 30.196078%)" fill-opacity="1">
<use xlink:href="#glyph-0-14" x="256.765625" y="734.066406"/>
<use xlink:href="#glyph-0-7" x="273.765625" y="734.066406"/>
<use xlink:href="#glyph-0-15" x="286.765625" y="734.066406"/>
<use xlink:href="#glyph-0-16" x="299.765625" y="734.066406"/>
<use xlink:href="#glyph-0-17" x="312.765625" y="734.066406"/>
<use xlink:href="#glyph-0-18" x="325.765625" y="734.066406"/>
<use xlink:href="#glyph-0-19" x="330.765625" y="734.066406"/>
<use xlink:href="#glyph-0-10" x="335.765625" y="734.066406"/>
<use xlink:href="#glyph-0-12" x="347.765625" y="734.066406"/>
<use xlink:href="#glyph-0-20" x="360.765625" y="734.066406"/>
</g>
<g fill="rgb(30.196078%, 30.196078%, 30.196078%)" fill-opacity="1">
<use xlink:href="#glyph-0-21" x="399.683594" y="734.066406"/>
<use xlink:href="#glyph-0-20" x="406.683594" y="734.066406"/>
<use xlink:href="#glyph-0-22" x="419.683594" y="734.066406"/>
<use xlink:href="#glyph-0-7" x="432.683594" y="734.066406"/>
<use xlink:href="#glyph-0-15" x="445.683594" y="734.066406"/>
<use xlink:href="#glyph-0-7" x="458.683594" y="734.066406"/>
<use xlink:href="#glyph-0-20" x="471.683594" y="734.066406"/>
<use xlink:href="#glyph-0-22" x="484.683594" y="734.066406"/>
<use xlink:href="#glyph-0-7" x="497.683594" y="734.066406"/>
<use xlink:href="#glyph-0-20" x="510.683594" y="734.066406"/>
<use xlink:href="#glyph-0-13" x="523.683594" y="734.066406"/>
</g>
<g fill="rgb(30.196078%, 30.196078%, 30.196078%)" fill-opacity="1">
<use xlink:href="#glyph-0-23" x="585.105469" y="734.066406"/>
<use xlink:href="#glyph-0-13" x="604.105469" y="734.066406"/>
<use xlink:href="#glyph-0-24" x="611.105469" y="734.066406"/>
<use xlink:href="#glyph-0-7" x="624.105469" y="734.066406"/>
<use xlink:href="#glyph-0-11" x="637.105469" y="734.066406"/>
</g>
<g fill="rgb(0%, 0%, 0%)" fill-opacity="1">
<use xlink:href="#glyph-1-1" x="292.726562" y="769.155273"/>
<use xlink:href="#glyph-1-2" x="309.726562" y="769.155273"/>
<use xlink:href="#glyph-1-3" x="326.726562" y="769.155273"/>
<use xlink:href="#glyph-1-4" x="336.726562" y="769.155273"/>
<use xlink:href="#glyph-1-5" x="344.726562" y="769.155273"/>
<use xlink:href="#glyph-1-6" x="359.726562" y="769.155273"/>
<use xlink:href="#glyph-1-2" x="367.726562" y="769.155273"/>
<use xlink:href="#glyph-1-7" x="384.726562" y="769.155273"/>
<use xlink:href="#glyph-1-8" x="392.726562" y="769.155273"/>
<use xlink:href="#glyph-1-9" x="407.726562" y="769.155273"/>
<use xlink:href="#glyph-1-10" x="414.726562" y="769.155273"/>
<use xlink:href="#glyph-1-2" x="421.726562" y="769.155273"/>
<use xlink:href="#glyph-1-4" x="438.726562" y="769.155273"/>
<use xlink:href="#glyph-1-10" x="446.726562" y="769.155273"/>
<use xlink:href="#glyph-1-11" x="453.726562" y="769.155273"/>
<use xlink:href="#glyph-1-12" x="470.726562" y="769.155273"/>
</g>
</svg>
