<?xml version="1.0" encoding="UTF-8"?>
<svg xmlns="http://www.w3.org/2000/svg" xmlns:xlink="http://www.w3.org/1999/xlink" width="864pt" height="1036pt" viewBox="0 0 864 1036">
<defs>
<g>
<g id="glyph-0-0">
<path d="M 0.78125 0 L 0.78125 -17.21875 L 14.4375 -17.21875 L 14.4375 0 Z M 12.28125 -2.15625 L 12.28125 -15.0625 L 2.9375 -15.0625 L 2.9375 -2.15625 Z M 12.28125 -2.15625 "/>
</g>
<g id="glyph-0-1">
<path d="M 6.5 -16.78125 C 8.664062 -16.78125 10.234375 -15.882812 11.203125 -14.09375 C 11.953125 -12.71875 12.328125 -10.828125 12.328125 -8.421875 C 12.328125 -6.140625 11.988281 -4.25 11.3125 -2.75 C 10.320312 -0.613281 8.710938 0.453125 6.484375 0.453125 C 4.460938 0.453125 2.960938 -0.421875 1.984375 -2.171875 C 1.160156 -3.628906 0.75 -5.585938 0.75 -8.046875 C 0.75 -9.953125 0.992188 -11.59375 1.484375 -12.96875 C 2.410156 -15.507812 4.082031 -16.78125 6.5 -16.78125 Z M 6.46875 -1.46875 C 7.5625 -1.46875 8.429688 -1.953125 9.078125 -2.921875 C 9.734375 -3.890625 10.0625 -5.691406 10.0625 -8.328125 C 10.0625 -10.234375 9.828125 -11.800781 9.359375 -13.03125 C 8.890625 -14.269531 7.976562 -14.890625 6.625 -14.890625 C 5.382812 -14.890625 4.472656 -14.300781 3.890625 -13.125 C 3.316406 -11.957031 3.03125 -10.238281 3.03125 -7.96875 C 3.03125 -6.257812 3.21875 -4.882812 3.59375 -3.84375 C 4.15625 -2.257812 5.113281 -1.46875 6.46875 -1.46875 Z M 6.46875 -1.46875 "/>
</g>
<g id="glyph-0-2">
<path d="M 2.046875 -2.5625 L 4.5 -2.5625 L 4.5 0 L 2.046875 0 Z M 2.046875 -2.5625 "/>
</g>
<g id="glyph-0-3">
<path d="M 0.75 0 C 0.832031 -1.445312 1.128906 -2.703125 1.640625 -3.765625 C 2.160156 -4.835938 3.175781 -5.8125 4.6875 -6.6875 L 6.9375 -8 C 7.945312 -8.582031 8.65625 -9.082031 9.0625 -9.5 C 9.695312 -10.144531 10.015625 -10.882812 10.015625 -11.71875 C 10.015625 -12.695312 9.722656 -13.472656 9.140625 -14.046875 C 8.554688 -14.617188 7.773438 -14.90625 6.796875 -14.90625 C 5.347656 -14.90625 4.347656 -14.359375 3.796875 -13.265625 C 3.503906 -12.679688 3.34375 -11.867188 3.3125 -10.828125 L 1.15625 -10.828125 C 1.1875 -12.285156 1.457031 -13.476562 1.96875 -14.40625 C 2.882812 -16.03125 4.5 -16.84375 6.8125 -16.84375 C 8.726562 -16.84375 10.128906 -16.320312 11.015625 -15.28125 C 11.910156 -14.238281 12.359375 -13.082031 12.359375 -11.8125 C 12.359375 -10.46875 11.882812 -9.320312 10.9375 -8.375 C 10.382812 -7.8125 9.40625 -7.140625 8 -6.359375 L 6.390625 -5.46875 C 5.617188 -5.039062 5.015625 -4.632812 4.578125 -4.25 C 3.796875 -3.570312 3.304688 -2.820312 3.109375 -2 L 12.265625 -2 L 12.265625 0 Z M 0.75 0 "/>
</g>
<g id="glyph-0-4">
<path d="M 2.96875 -4.28125 C 3.101562 -3.070312 3.660156 -2.238281 4.640625 -1.78125 C 5.140625 -1.550781 5.71875 -1.4375 6.375 -1.4375 C 7.625 -1.4375 8.550781 -1.832031 9.15625 -2.625 C 9.757812 -3.425781 10.0625 -4.3125 10.0625 -5.28125 C 10.0625 -6.445312 9.703125 -7.347656 8.984375 -7.984375 C 8.265625 -8.628906 7.40625 -8.953125 6.40625 -8.953125 C 5.6875 -8.953125 5.066406 -8.8125 4.546875 -8.53125 C 4.023438 -8.25 3.582031 -7.859375 3.21875 -7.359375 L 1.390625 -7.46875 L 2.65625 -16.5 L 11.375 -16.5 L 11.375 -14.46875 L 4.25 -14.46875 L 3.53125 -9.796875 C 3.914062 -10.097656 4.285156 -10.320312 4.640625 -10.46875 C 5.265625 -10.726562 5.988281 -10.859375 6.8125 -10.859375 C 8.351562 -10.859375 9.65625 -10.359375 10.71875 -9.359375 C 11.789062 -8.367188 12.328125 -7.113281 12.328125 -5.59375 C 12.328125 -4.007812 11.835938 -2.609375 10.859375 -1.390625 C 9.878906 -0.179688 8.316406 0.421875 6.171875 0.421875 C 4.796875 0.421875 3.582031 0.0351562 2.53125 -0.734375 C 1.488281 -1.503906 0.90625 -2.6875 0.78125 -4.28125 Z M 2.96875 -4.28125 "/>
</g>
<g id="glyph-0-5">
<path d="M 12.546875 -16.5 L 12.546875 -14.65625 C 12.015625 -14.132812 11.300781 -13.222656 10.40625 -11.921875 C 9.507812 -10.628906 8.71875 -9.234375 8.03125 -7.734375 C 7.351562 -6.273438 6.835938 -4.941406 6.484375 -3.734375 C 6.253906 -2.960938 5.960938 -1.71875 5.609375 0 L 3.265625 0 C 3.796875 -3.207031 4.96875 -6.394531 6.78125 -9.5625 C 7.851562 -11.425781 8.976562 -13.03125 10.15625 -14.375 L 0.875 -14.375 L 0.875 -16.5 Z M 12.546875 -16.5 "/>
</g>
<g id="glyph-0-6">
<path d="M 2.296875 -11.890625 L 2.296875 -13.5 C 3.816406 -13.644531 4.878906 -13.890625 5.484375 -14.234375 C 6.085938 -14.585938 6.535156 -15.414062 6.828125 -16.71875 L 8.5 -16.71875 L 8.5 0 L 6.25 0 L 6.25 -11.890625 Z M 2.296875 -11.890625 "/>
</g>
<g id="glyph-0-7">
<path d="M 1 -7.765625 L 6.875 -7.765625 L 6.875 -5.609375 L 1 -5.609375 Z M 1 -7.765625 "/>
</g>
<g id="glyph-1-0">
<path d="M 0.96875 0 L 0.96875 -21.515625 L 18.046875 -21.515625 L 18.046875 0 Z M 15.359375 -2.703125 L 15.359375 -18.828125 L 3.65625 -18.828125 L 3.65625 -2.703125 Z M 15.359375 -2.703125 "/>
</g>
<g id="glyph-1-1">
<path d="M 2 -21.515625 L 4.640625 -21.515625 L 4.640625 0 L 2 0 Z M 2 -21.515625 "/>
</g>
<g id="glyph-1-2">
<path d="M 8.15625 -1.703125 C 9.90625 -1.703125 11.101562 -2.363281 11.75 -3.6875 C 12.40625 -5.007812 12.734375 -6.476562 12.734375 -8.09375 C 12.734375 -9.5625 12.5 -10.753906 12.03125 -11.671875 C 11.28125 -13.117188 10 -13.84375 8.1875 -13.84375 C 6.570312 -13.84375 5.398438 -13.226562 4.671875 -12 C 3.941406 -10.769531 3.578125 -9.285156 3.578125 -7.546875 C 3.578125 -5.878906 3.941406 -4.488281 4.671875 -3.375 C 5.398438 -2.257812 6.5625 -1.703125 8.15625 -1.703125 Z M 8.265625 -16.140625 C 10.285156 -16.140625 11.992188 -15.460938 13.390625 -14.109375 C 14.785156 -12.765625 15.484375 -10.785156 15.484375 -8.171875 C 15.484375 -5.640625 14.867188 -3.546875 13.640625 -1.890625 C 12.410156 -0.242188 10.5 0.578125 7.90625 0.578125 C 5.75 0.578125 4.035156 -0.148438 2.765625 -1.609375 C 1.492188 -3.078125 0.859375 -5.039062 0.859375 -7.5 C 0.859375 -10.132812 1.523438 -12.234375 2.859375 -13.796875 C 4.203125 -15.359375 6.003906 -16.140625 8.265625 -16.140625 Z M 8.171875 -16.0625 Z M 8.171875 -16.0625 "/>
</g>
<g id="glyph-1-3">
<path d="M 7.46875 -15.96875 C 8.695312 -15.96875 9.769531 -15.664062 10.6875 -15.0625 C 11.1875 -14.71875 11.695312 -14.21875 12.21875 -13.5625 L 12.21875 -15.546875 L 14.65625 -15.546875 L 14.65625 -1.28125 C 14.65625 0.714844 14.359375 2.289062 13.765625 3.4375 C 12.671875 5.570312 10.609375 6.640625 7.578125 6.640625 C 5.890625 6.640625 4.46875 6.257812 3.3125 5.5 C 2.15625 4.738281 1.507812 3.554688 1.375 1.953125 L 4.0625 1.953125 C 4.1875 2.648438 4.4375 3.191406 4.8125 3.578125 C 5.414062 4.160156 6.351562 4.453125 7.625 4.453125 C 9.65625 4.453125 10.984375 3.738281 11.609375 2.3125 C 11.972656 1.476562 12.140625 -0.0195312 12.109375 -2.1875 C 11.585938 -1.382812 10.953125 -0.785156 10.203125 -0.390625 C 9.460938 -0.00390625 8.484375 0.1875 7.265625 0.1875 C 5.566406 0.1875 4.078125 -0.410156 2.796875 -1.609375 C 1.523438 -2.816406 0.890625 -4.816406 0.890625 -7.609375 C 0.890625 -10.234375 1.53125 -12.28125 2.8125 -13.75 C 4.101562 -15.226562 5.65625 -15.96875 7.46875 -15.96875 Z M 12.21875 -7.90625 C 12.21875 -9.851562 11.816406 -11.296875 11.015625 -12.234375 C 10.210938 -13.171875 9.191406 -13.640625 7.953125 -13.640625 C 6.097656 -13.640625 4.828125 -12.769531 4.140625 -11.03125 C 3.785156 -10.101562 3.609375 -8.890625 3.609375 -7.390625 C 3.609375 -5.617188 3.960938 -4.269531 4.671875 -3.34375 C 5.390625 -2.425781 6.359375 -1.96875 7.578125 -1.96875 C 9.472656 -1.96875 10.804688 -2.820312 11.578125 -4.53125 C 12.003906 -5.5 12.21875 -6.625 12.21875 -7.90625 Z M 7.78125 -16.0625 Z M 7.78125 -16.0625 "/>
</g>
<g id="glyph-1-4">
<path d="M 1.9375 -15.609375 L 4.609375 -15.609375 L 4.609375 0 L 1.9375 0 Z M 1.9375 -21.515625 L 4.609375 -21.515625 L 4.609375 -18.53125 L 1.9375 -18.53125 Z M 1.9375 -21.515625 "/>
</g>
<g id="glyph-1-5">
<path d="M 2.46875 -20.0625 L 5.125 -20.0625 L 5.125 -15.6875 L 7.625 -15.6875 L 7.625 -13.53125 L 5.125 -13.53125 L 5.125 -3.296875 C 5.125 -2.742188 5.3125 -2.378906 5.6875 -2.203125 C 5.882812 -2.085938 6.222656 -2.03125 6.703125 -2.03125 C 6.835938 -2.03125 6.976562 -2.03125 7.125 -2.03125 C 7.269531 -2.039062 7.4375 -2.054688 7.625 -2.078125 L 7.625 0 C 7.320312 0.0820312 7.007812 0.144531 6.6875 0.1875 C 6.363281 0.226562 6.007812 0.25 5.625 0.25 C 4.394531 0.25 3.5625 -0.0625 3.125 -0.6875 C 2.6875 -1.320312 2.46875 -2.144531 2.46875 -3.15625 L 2.46875 -13.53125 L 0.34375 -13.53125 L 0.34375 -15.6875 L 2.46875 -15.6875 Z M 2.46875 -20.0625 "/>
</g>
<g id="glyph-1-6">
</g>
<g id="glyph-1-7">
<path d="M 3.21875 -15.6875 L 7.40625 -2.921875 L 11.796875 -15.6875 L 14.671875 -15.6875 L 8.765625 0 L 5.953125 0 L 0.15625 -15.6875 Z M 3.21875 -15.6875 "/>
</g>
<g id="glyph-1-8">
<path d="M 3.953125 -4.171875 C 3.953125 -3.410156 4.226562 -2.8125 4.78125 -2.375 C 5.34375 -1.9375 6.003906 -1.71875 6.765625 -1.71875 C 7.691406 -1.71875 8.59375 -1.929688 9.46875 -2.359375 C 10.925781 -3.066406 11.65625 -4.234375 11.65625 -5.859375 L 11.65625 -7.984375 C 11.332031 -7.773438 10.914062 -7.601562 10.40625 -7.46875 C 9.90625 -7.332031 9.410156 -7.234375 8.921875 -7.171875 L 7.328125 -6.96875 C 6.367188 -6.84375 5.648438 -6.644531 5.171875 -6.375 C 4.359375 -5.914062 3.953125 -5.179688 3.953125 -4.171875 Z M 10.34375 -9.5 C 10.945312 -9.582031 11.351562 -9.835938 11.5625 -10.265625 C 11.675781 -10.503906 11.734375 -10.84375 11.734375 -11.28125 C 11.734375 -12.175781 11.410156 -12.828125 10.765625 -13.234375 C 10.128906 -13.640625 9.21875 -13.84375 8.03125 -13.84375 C 6.65625 -13.84375 5.675781 -13.472656 5.09375 -12.734375 C 4.769531 -12.316406 4.5625 -11.707031 4.46875 -10.90625 L 2 -10.90625 C 2.050781 -12.832031 2.679688 -14.171875 3.890625 -14.921875 C 5.097656 -15.679688 6.5 -16.0625 8.09375 -16.0625 C 9.9375 -16.0625 11.429688 -15.710938 12.578125 -15.015625 C 13.722656 -14.304688 14.296875 -13.210938 14.296875 -11.734375 L 14.296875 -2.703125 C 14.296875 -2.421875 14.351562 -2.195312 14.46875 -2.03125 C 14.582031 -1.863281 14.816406 -1.78125 15.171875 -1.78125 C 15.296875 -1.78125 15.429688 -1.785156 15.578125 -1.796875 C 15.722656 -1.816406 15.878906 -1.84375 16.046875 -1.875 L 16.046875 0.078125 C 15.628906 0.191406 15.3125 0.265625 15.09375 0.296875 C 14.882812 0.328125 14.59375 0.34375 14.21875 0.34375 C 13.3125 0.34375 12.65625 0.0195312 12.25 -0.625 C 12.03125 -0.96875 11.878906 -1.453125 11.796875 -2.078125 C 11.253906 -1.378906 10.476562 -0.769531 9.46875 -0.25 C 8.46875 0.269531 7.363281 0.53125 6.15625 0.53125 C 4.695312 0.53125 3.503906 0.0859375 2.578125 -0.796875 C 1.660156 -1.679688 1.203125 -2.785156 1.203125 -4.109375 C 1.203125 -5.566406 1.65625 -6.695312 2.5625 -7.5 C 3.46875 -8.300781 4.660156 -8.796875 6.140625 -8.984375 Z M 8.15625 -16.0625 Z M 8.15625 -16.0625 "/>
</g>
<g id="glyph-1-9">
<path d="M 4.578125 -15.6875 L 4.578125 -5.28125 C 4.578125 -4.476562 4.703125 -3.820312 4.953125 -3.3125 C 5.421875 -2.375 6.296875 -1.90625 7.578125 -1.90625 C 9.410156 -1.90625 10.660156 -2.722656 11.328125 -4.359375 C 11.679688 -5.242188 11.859375 -6.453125 11.859375 -7.984375 L 11.859375 -15.6875 L 14.5 -15.6875 L 14.5 0 L 12.015625 0 L 12.046875 -2.3125 C 11.703125 -1.71875 11.273438 -1.21875 10.765625 -0.8125 C 9.765625 0.0078125 8.546875 0.421875 7.109375 0.421875 C 4.867188 0.421875 3.34375 -0.320312 2.53125 -1.8125 C 2.09375 -2.613281 1.875 -3.6875 1.875 -5.03125 L 1.875 -15.6875 Z M 8.1875 -16.0625 Z M 8.1875 -16.0625 "/>
</g>
<g id="glyph-1-10">
<path d="M 8.46875 -16.046875 C 9.582031 -16.046875 10.660156 -15.78125 11.703125 -15.25 C 12.742188 -14.726562 13.539062 -14.054688 14.09375 -13.234375 C 14.625 -12.441406 14.972656 -11.515625 15.140625 -10.453125 C 15.296875 -9.734375 15.375 -8.582031 15.375 -7 L 3.875 -7 C 3.925781 -5.40625 4.300781 -4.128906 5 -3.171875 C 5.707031 -2.210938 6.800781 -1.734375 8.28125 -1.734375 C 9.65625 -1.734375 10.753906 -2.1875 11.578125 -3.09375 C 12.046875 -3.613281 12.375 -4.222656 12.5625 -4.921875 L 15.15625 -4.921875 C 15.09375 -4.347656 14.867188 -3.707031 14.484375 -3 C 14.097656 -2.289062 13.664062 -1.710938 13.1875 -1.265625 C 12.382812 -0.484375 11.390625 0.046875 10.203125 0.328125 C 9.578125 0.484375 8.863281 0.5625 8.0625 0.5625 C 6.101562 0.5625 4.445312 -0.144531 3.09375 -1.5625 C 1.738281 -2.988281 1.0625 -4.984375 1.0625 -7.546875 C 1.0625 -10.066406 1.742188 -12.113281 3.109375 -13.6875 C 4.472656 -15.257812 6.257812 -16.046875 8.46875 -16.046875 Z M 12.671875 -9.09375 C 12.566406 -10.238281 12.316406 -11.15625 11.921875 -11.84375 C 11.203125 -13.101562 10 -13.734375 8.3125 -13.734375 C 7.09375 -13.734375 6.070312 -13.296875 5.25 -12.421875 C 4.4375 -11.554688 4.003906 -10.445312 3.953125 -9.09375 Z M 8.21875 -16.0625 Z M 8.21875 -16.0625 "/>
</g>
<g id="glyph-1-11">
<path d="M 2.484375 3.0625 C 3.160156 2.945312 3.632812 2.472656 3.90625 1.640625 C 4.050781 1.203125 4.125 0.773438 4.125 0.359375 C 4.125 0.296875 4.117188 0.238281 4.109375 0.1875 C 4.109375 0.132812 4.101562 0.0703125 4.09375 0 L 2.484375 0 L 2.484375 -3.1875 L 5.625 -3.1875 L 5.625 -0.234375 C 5.625 0.929688 5.390625 1.953125 4.921875 2.828125 C 4.453125 3.703125 3.640625 4.242188 2.484375 4.453125 Z M 2.484375 3.0625 "/>
</g>
<g id="glyph-1-12">
<path d="M 8.875 -21.875 C 7.34375 -18.894531 6.347656 -16.703125 5.890625 -15.296875 C 5.191406 -13.148438 4.84375 -10.675781 4.84375 -7.875 C 4.84375 -5.050781 5.238281 -2.46875 6.03125 -0.125 C 6.519531 1.320312 7.484375 3.40625 8.921875 6.125 L 7.15625 6.125 C 5.726562 3.894531 4.84375 2.472656 4.5 1.859375 C 4.15625 1.242188 3.785156 0.410156 3.390625 -0.640625 C 2.835938 -2.085938 2.453125 -3.632812 2.234375 -5.28125 C 2.128906 -6.125 2.078125 -6.929688 2.078125 -7.703125 C 2.078125 -10.597656 2.53125 -13.171875 3.4375 -15.421875 C 4.019531 -16.859375 5.222656 -19.007812 7.046875 -21.875 Z M 8.875 -21.875 "/>
</g>
<g id="glyph-1-13">
<path d="M 8.5625 -1.765625 C 9.789062 -1.765625 10.8125 -2.28125 11.625 -3.3125 C 12.4375 -4.34375 12.84375 -5.882812 12.84375 -7.9375 C 12.84375 -9.1875 12.664062 -10.257812 12.3125 -11.15625 C 11.625 -12.882812 10.375 -13.75 8.5625 -13.75 C 6.726562 -13.75 5.476562 -12.835938 4.8125 -11.015625 C 4.445312 -10.035156 4.265625 -8.796875 4.265625 -7.296875 C 4.265625 -6.085938 4.445312 -5.054688 4.8125 -4.203125 C 5.488281 -2.578125 6.738281 -1.765625 8.5625 -1.765625 Z M 1.734375 -15.609375 L 4.296875 -15.609375 L 4.296875 -13.53125 C 4.816406 -14.25 5.390625 -14.800781 6.015625 -15.1875 C 6.910156 -15.769531 7.957031 -16.0625 9.15625 -16.0625 C 10.9375 -16.0625 12.445312 -15.378906 13.6875 -14.015625 C 14.925781 -12.660156 15.546875 -10.71875 15.546875 -8.1875 C 15.546875 -4.769531 14.648438 -2.328125 12.859375 -0.859375 C 11.722656 0.0664062 10.40625 0.53125 8.90625 0.53125 C 7.726562 0.53125 6.738281 0.269531 5.9375 -0.25 C 5.46875 -0.539062 4.941406 -1.046875 4.359375 -1.765625 L 4.359375 6.25 L 1.734375 6.25 Z M 1.734375 -15.609375 "/>
</g>
<g id="glyph-1-14">
<path d="M 1.046875 6.125 C 2.597656 3.09375 3.597656 0.882812 4.046875 -0.5 C 4.722656 -2.59375 5.0625 -5.050781 5.0625 -7.875 C 5.0625 -10.695312 4.664062 -13.28125 3.875 -15.625 C 3.394531 -17.070312 2.4375 -19.15625 1 -21.875 L 2.765625 -21.875 C 4.273438 -19.46875 5.1875 -17.984375 5.5 -17.421875 C 5.820312 -16.859375 6.164062 -16.085938 6.53125 -15.109375 C 7 -13.878906 7.332031 -12.671875 7.53125 -11.484375 C 7.738281 -10.296875 7.84375 -9.148438 7.84375 -8.046875 C 7.84375 -5.148438 7.378906 -2.570312 6.453125 -0.3125 C 5.878906 1.144531 4.6875 3.289062 2.875 6.125 Z M 1.046875 6.125 "/>
</g>
<g id="glyph-1-15">
<path d="M 3.5 -4.921875 C 3.582031 -4.046875 3.800781 -3.375 4.15625 -2.90625 C 4.820312 -2.050781 5.976562 -1.625 7.625 -1.625 C 8.59375 -1.625 9.445312 -1.835938 10.1875 -2.265625 C 10.9375 -2.691406 11.3125 -3.347656 11.3125 -4.234375 C 11.3125 -4.910156 11.015625 -5.421875 10.421875 -5.765625 C 10.035156 -5.984375 9.28125 -6.234375 8.15625 -6.515625 L 6.0625 -7.046875 C 4.726562 -7.378906 3.742188 -7.75 3.109375 -8.15625 C 1.972656 -8.875 1.40625 -9.863281 1.40625 -11.125 C 1.40625 -12.601562 1.9375 -13.800781 3 -14.71875 C 4.070312 -15.632812 5.515625 -16.09375 7.328125 -16.09375 C 9.691406 -16.09375 11.394531 -15.398438 12.4375 -14.015625 C 13.09375 -13.140625 13.410156 -12.191406 13.390625 -11.171875 L 10.90625 -11.171875 C 10.851562 -11.773438 10.640625 -12.316406 10.265625 -12.796875 C 9.660156 -13.492188 8.613281 -13.84375 7.125 -13.84375 C 6.125 -13.84375 5.367188 -13.648438 4.859375 -13.265625 C 4.347656 -12.890625 4.09375 -12.390625 4.09375 -11.765625 C 4.09375 -11.078125 4.425781 -10.53125 5.09375 -10.125 C 5.488281 -9.875 6.066406 -9.660156 6.828125 -9.484375 L 8.5625 -9.046875 C 10.457031 -8.585938 11.726562 -8.144531 12.375 -7.71875 C 13.40625 -7.039062 13.921875 -5.984375 13.921875 -4.546875 C 13.921875 -3.148438 13.390625 -1.941406 12.328125 -0.921875 C 11.265625 0.0859375 9.648438 0.59375 7.484375 0.59375 C 5.148438 0.59375 3.492188 0.0664062 2.515625 -0.984375 C 1.546875 -2.046875 1.03125 -3.359375 0.96875 -4.921875 Z M 7.390625 -16.0625 Z M 7.390625 -16.0625 "/>
</g>
<g id="glyph-1-16">
<path d="M 3.15625 -15.6875 L 6.171875 -3.328125 L 9.234375 -15.6875 L 12.1875 -15.6875 L 15.265625 -3.40625 L 18.46875 -15.6875 L 21.109375 -15.6875 L 16.546875 0 L 13.8125 0 L 10.625 -12.140625 L 7.53125 0 L 4.796875 0 L 0.265625 -15.6875 Z M 3.15625 -15.6875 "/>
</g>
<g id="glyph-1-17">
<path d="M 11.734375 -15.6875 L 14.65625 -15.6875 C 14.28125 -14.6875 13.453125 -12.390625 12.171875 -8.796875 C 11.210938 -6.109375 10.410156 -3.914062 9.765625 -2.21875 C 8.242188 1.789062 7.171875 4.234375 6.546875 5.109375 C 5.921875 5.992188 4.847656 6.4375 3.328125 6.4375 C 2.953125 6.4375 2.664062 6.421875 2.46875 6.390625 C 2.269531 6.359375 2.023438 6.300781 1.734375 6.21875 L 1.734375 3.828125 C 2.191406 3.953125 2.519531 4.03125 2.71875 4.0625 C 2.925781 4.09375 3.109375 4.109375 3.265625 4.109375 C 3.753906 4.109375 4.113281 4.023438 4.34375 3.859375 C 4.570312 3.703125 4.765625 3.503906 4.921875 3.265625 C 4.972656 3.191406 5.148438 2.789062 5.453125 2.0625 C 5.753906 1.34375 5.972656 0.804688 6.109375 0.453125 L 0.3125 -15.6875 L 3.296875 -15.6875 L 7.5 -2.921875 Z M 7.484375 -16.0625 Z M 7.484375 -16.0625 "/>
</g>
<g id="glyph-1-18">
<path d="M 2 -15.6875 L 4.515625 -15.6875 L 4.515625 -12.984375 C 4.710938 -13.503906 5.210938 -14.144531 6.015625 -14.90625 C 6.816406 -15.664062 7.742188 -16.046875 8.796875 -16.046875 C 8.835938 -16.046875 8.914062 -16.039062 9.03125 -16.03125 C 9.15625 -16.019531 9.359375 -16 9.640625 -15.96875 L 9.640625 -13.1875 C 9.484375 -13.21875 9.335938 -13.234375 9.203125 -13.234375 C 9.078125 -13.242188 8.9375 -13.25 8.78125 -13.25 C 7.445312 -13.25 6.421875 -12.820312 5.703125 -11.96875 C 4.992188 -11.113281 4.640625 -10.132812 4.640625 -9.03125 L 4.640625 0 L 2 0 Z M 2 -15.6875 "/>
</g>
<g id="glyph-1-19">
<path d="M 3.609375 -7.65625 C 3.609375 -5.976562 3.960938 -4.570312 4.671875 -3.4375 C 5.390625 -2.3125 6.53125 -1.75 8.09375 -1.75 C 9.320312 -1.75 10.328125 -2.269531 11.109375 -3.3125 C 11.898438 -4.363281 12.296875 -5.875 12.296875 -7.84375 C 12.296875 -9.820312 11.890625 -11.285156 11.078125 -12.234375 C 10.265625 -13.191406 9.265625 -13.671875 8.078125 -13.671875 C 6.742188 -13.671875 5.664062 -13.160156 4.84375 -12.140625 C 4.019531 -11.128906 3.609375 -9.632812 3.609375 -7.65625 Z M 7.578125 -15.96875 C 8.773438 -15.96875 9.78125 -15.710938 10.59375 -15.203125 C 11.0625 -14.910156 11.59375 -14.398438 12.1875 -13.671875 L 12.1875 -21.59375 L 14.71875 -21.59375 L 14.71875 0 L 12.34375 0 L 12.34375 -2.1875 C 11.726562 -1.21875 11 -0.515625 10.15625 -0.078125 C 9.320312 0.347656 8.363281 0.5625 7.28125 0.5625 C 5.53125 0.5625 4.015625 -0.171875 2.734375 -1.640625 C 1.460938 -3.117188 0.828125 -5.078125 0.828125 -7.515625 C 0.828125 -9.796875 1.410156 -11.773438 2.578125 -13.453125 C 3.742188 -15.128906 5.410156 -15.96875 7.578125 -15.96875 Z M 7.578125 -15.96875 "/>
</g>
<g id="glyph-1-20">
<path d="M 7.984375 -16.140625 C 9.753906 -16.140625 11.191406 -15.707031 12.296875 -14.84375 C 13.398438 -13.988281 14.066406 -12.515625 14.296875 -10.421875 L 11.734375 -10.421875 C 11.578125 -11.378906 11.21875 -12.175781 10.65625 -12.8125 C 10.101562 -13.457031 9.210938 -13.78125 7.984375 -13.78125 C 6.304688 -13.78125 5.101562 -12.960938 4.375 -11.328125 C 3.90625 -10.265625 3.671875 -8.953125 3.671875 -7.390625 C 3.671875 -5.816406 4.003906 -4.488281 4.671875 -3.40625 C 5.335938 -2.332031 6.382812 -1.796875 7.8125 -1.796875 C 8.90625 -1.796875 9.769531 -2.128906 10.40625 -2.796875 C 11.050781 -3.472656 11.492188 -4.390625 11.734375 -5.546875 L 14.296875 -5.546875 C 14.003906 -3.472656 13.269531 -1.953125 12.09375 -0.984375 C 10.925781 -0.0234375 9.429688 0.453125 7.609375 0.453125 C 5.554688 0.453125 3.914062 -0.296875 2.6875 -1.796875 C 1.46875 -3.296875 0.859375 -5.164062 0.859375 -7.40625 C 0.859375 -10.164062 1.523438 -12.3125 2.859375 -13.84375 C 4.203125 -15.375 5.910156 -16.140625 7.984375 -16.140625 Z M 7.578125 -16.0625 Z M 7.578125 -16.0625 "/>
</g>
<g id="glyph-1-21">
<path d="M 1.734375 -21.59375 L 4.296875 -21.59375 L 4.296875 -13.78125 C 4.867188 -14.53125 5.554688 -15.101562 6.359375 -15.5 C 7.160156 -15.894531 8.03125 -16.09375 8.96875 -16.09375 C 10.914062 -16.09375 12.5 -15.421875 13.71875 -14.078125 C 14.9375 -12.742188 15.546875 -10.765625 15.546875 -8.140625 C 15.546875 -5.660156 14.941406 -3.597656 13.734375 -1.953125 C 12.535156 -0.316406 10.875 0.5 8.75 0.5 C 7.550781 0.5 6.546875 0.210938 5.734375 -0.359375 C 5.242188 -0.703125 4.71875 -1.25 4.15625 -2 L 4.15625 0 L 1.734375 0 Z M 8.578125 -1.828125 C 10.003906 -1.828125 11.070312 -2.394531 11.78125 -3.53125 C 12.488281 -4.664062 12.84375 -6.160156 12.84375 -8.015625 C 12.84375 -9.660156 12.488281 -11.023438 11.78125 -12.109375 C 11.070312 -13.191406 10.03125 -13.734375 8.65625 -13.734375 C 7.457031 -13.734375 6.40625 -13.289062 5.5 -12.40625 C 4.59375 -11.519531 4.140625 -10.054688 4.140625 -8.015625 C 4.140625 -6.535156 4.328125 -5.335938 4.703125 -4.421875 C 5.398438 -2.691406 6.691406 -1.828125 8.578125 -1.828125 Z M 8.578125 -1.828125 "/>
</g>
<g id="glyph-1-22">
<path d="M 1.9375 -15.6875 L 4.4375 -15.6875 L 4.4375 -13.46875 C 5.175781 -14.382812 5.960938 -15.039062 6.796875 -15.4375 C 7.628906 -15.84375 8.550781 -16.046875 9.5625 -16.046875 C 11.789062 -16.046875 13.296875 -15.269531 14.078125 -13.71875 C 14.503906 -12.863281 14.71875 -11.644531 14.71875 -10.0625 L 14.71875 0 L 12.046875 0 L 12.046875 -9.890625 C 12.046875 -10.847656 11.898438 -11.617188 11.609375 -12.203125 C 11.140625 -13.179688 10.289062 -13.671875 9.0625 -13.671875 C 8.4375 -13.671875 7.925781 -13.609375 7.53125 -13.484375 C 6.8125 -13.265625 6.175781 -12.832031 5.625 -12.1875 C 5.1875 -11.664062 4.898438 -11.128906 4.765625 -10.578125 C 4.640625 -10.023438 4.578125 -9.238281 4.578125 -8.21875 L 4.578125 0 L 1.9375 0 Z M 8.125 -16.0625 Z M 8.125 -16.0625 "/>
</g>
<g id="glyph-1-23">
<path d="M 8.109375 -20.984375 C 10.828125 -20.984375 12.789062 -19.863281 14 -17.625 C 14.9375 -15.894531 15.40625 -13.523438 15.40625 -10.515625 C 15.40625 -7.660156 14.984375 -5.300781 14.140625 -3.4375 C 12.910156 -0.757812 10.894531 0.578125 8.09375 0.578125 C 5.582031 0.578125 3.707031 -0.515625 2.46875 -2.703125 C 1.445312 -4.535156 0.9375 -6.988281 0.9375 -10.0625 C 0.9375 -12.445312 1.242188 -14.492188 1.859375 -16.203125 C 3.015625 -19.390625 5.097656 -20.984375 8.109375 -20.984375 Z M 8.09375 -1.828125 C 9.457031 -1.828125 10.539062 -2.429688 11.34375 -3.640625 C 12.15625 -4.859375 12.5625 -7.117188 12.5625 -10.421875 C 12.5625 -12.796875 12.269531 -14.753906 11.6875 -16.296875 C 11.101562 -17.835938 9.96875 -18.609375 8.28125 -18.609375 C 6.726562 -18.609375 5.59375 -17.875 4.875 -16.40625 C 4.15625 -14.945312 3.796875 -12.800781 3.796875 -9.96875 C 3.796875 -7.820312 4.023438 -6.101562 4.484375 -4.8125 C 5.179688 -2.820312 6.382812 -1.828125 8.09375 -1.828125 Z M 8.09375 -1.828125 "/>
</g>
<g id="glyph-1-24">
<path d="M 2.875 -14.859375 L 2.875 -16.875 C 4.78125 -17.0625 6.109375 -17.367188 6.859375 -17.796875 C 7.609375 -18.234375 8.171875 -19.265625 8.546875 -20.890625 L 10.625 -20.890625 L 10.625 0 L 7.8125 0 L 7.8125 -14.859375 Z M 2.875 -14.859375 "/>
</g>
<g id="glyph-2-0">
<path d="M 0 -0.96875 L -21.515625 -0.96875 L -21.515625 -18.046875 L 0 -18.046875 Z M -2.703125 -15.359375 L -18.828125 -15.359375 L -18.828125 -3.65625 L -2.703125 -3.65625 Z M -2.703125 -15.359375 "/>
</g>
<g id="glyph-2-1">
<path d="M -1.765625 -8.5625 C -1.765625 -9.789062 -2.28125 -10.8125 -3.3125 -11.625 C -4.34375 -12.4375 -5.882812 -12.84375 -7.9375 -12.84375 C -9.1875 -12.84375 -10.257812 -12.664062 -11.15625 -12.3125 C -12.882812 -11.625 -13.75 -10.375 -13.75 -8.5625 C -13.75 -6.726562 -12.835938 -5.476562 -11.015625 -4.8125 C -10.035156 -4.445312 -8.796875 -4.265625 -7.296875 -4.265625 C -6.085938 -4.265625 -5.054688 -4.445312 -4.203125 -4.8125 C -2.578125 -5.488281 -1.765625 -6.738281 -1.765625 -8.5625 Z M -15.609375 -1.734375 L -15.609375 -4.296875 L -13.53125 -4.296875 C -14.25 -4.816406 -14.800781 -5.390625 -15.1875 -6.015625 C -15.769531 -6.910156 -16.0625 -7.957031 -16.0625 -9.15625 C -16.0625 -10.9375 -15.378906 -12.445312 -14.015625 -13.6875 C -12.660156 -14.925781 -10.71875 -15.546875 -8.1875 -15.546875 C -4.769531 -15.546875 -2.328125 -14.648438 -0.859375 -12.859375 C 0.0664062 -11.722656 0.53125 -10.40625 0.53125 -8.90625 C 0.53125 -7.726562 0.269531 -6.738281 -0.25 -5.9375 C -0.539062 -5.46875 -1.046875 -4.941406 -1.765625 -4.359375 L 6.25 -4.359375 L 6.25 -1.734375 Z M -15.609375 -1.734375 "/>
</g>
<g id="glyph-2-2">
<path d="M -15.6875 -2 L -15.6875 -4.515625 L -12.984375 -4.515625 C -13.503906 -4.710938 -14.144531 -5.210938 -14.90625 -6.015625 C -15.664062 -6.816406 -16.046875 -7.742188 -16.046875 -8.796875 C -16.046875 -8.835938 -16.039062 -8.914062 -16.03125 -9.03125 C -16.019531 -9.15625 -16 -9.359375 -15.96875 -9.640625 L -13.1875 -9.640625 C -13.21875 -9.484375 -13.234375 -9.335938 -13.234375 -9.203125 C -13.242188 -9.078125 -13.25 -8.9375 -13.25 -8.78125 C -13.25 -7.445312 -12.820312 -6.421875 -11.96875 -5.703125 C -11.113281 -4.992188 -10.132812 -4.640625 -9.03125 -4.640625 L 0 -4.640625 L 0 -2 Z M -15.6875 -2 "/>
</g>
<g id="glyph-2-3">
<path d="M -1.703125 -8.15625 C -1.703125 -9.90625 -2.363281 -11.101562 -3.6875 -11.75 C -5.007812 -12.40625 -6.476562 -12.734375 -8.09375 -12.734375 C -9.5625 -12.734375 -10.753906 -12.5 -11.671875 -12.03125 C -13.117188 -11.28125 -13.84375 -10 -13.84375 -8.1875 C -13.84375 -6.570312 -13.226562 -5.398438 -12 -4.671875 C -10.769531 -3.941406 -9.285156 -3.578125 -7.546875 -3.578125 C -5.878906 -3.578125 -4.488281 -3.941406 -3.375 -4.671875 C -2.257812 -5.398438 -1.703125 -6.5625 -1.703125 -8.15625 Z M -16.140625 -8.265625 C -16.140625 -10.285156 -15.460938 -11.992188 -14.109375 -13.390625 C -12.765625 -14.785156 -10.785156 -15.484375 -8.171875 -15.484375 C -5.640625 -15.484375 -3.546875 -14.867188 -1.890625 -13.640625 C -0.242188 -12.410156 0.578125 -10.5 0.578125 -7.90625 C 0.578125 -5.75 -0.148438 -4.035156 -1.609375 -2.765625 C -3.078125 -1.492188 -5.039062 -0.859375 -7.5 -0.859375 C -10.132812 -0.859375 -12.234375 -1.523438 -13.796875 -2.859375 C -15.359375 -4.203125 -16.140625 -6.003906 -16.140625 -8.265625 Z M -16.0625 -8.171875 Z M -16.0625 -8.171875 "/>
</g>
<g id="glyph-2-4">
<path d="M -21.59375 -1.734375 L -21.59375 -4.296875 L -13.78125 -4.296875 C -14.53125 -4.867188 -15.101562 -5.554688 -15.5 -6.359375 C -15.894531 -7.160156 -16.09375 -8.03125 -16.09375 -8.96875 C -16.09375 -10.914062 -15.421875 -12.5 -14.078125 -13.71875 C -12.742188 -14.9375 -10.765625 -15.546875 -8.140625 -15.546875 C -5.660156 -15.546875 -3.597656 -14.941406 -1.953125 -13.734375 C -0.316406 -12.535156 0.5 -10.875 0.5 -8.75 C 0.5 -7.550781 0.210938 -6.546875 -0.359375 -5.734375 C -0.703125 -5.242188 -1.25 -4.71875 -2 -4.15625 L 0 -4.15625 L 0 -1.734375 Z M -1.828125 -8.578125 C -1.828125 -10.003906 -2.394531 -11.070312 -3.53125 -11.78125 C -4.664062 -12.488281 -6.160156 -12.84375 -8.015625 -12.84375 C -9.660156 -12.84375 -11.023438 -12.488281 -12.109375 -11.78125 C -13.191406 -11.070312 -13.734375 -10.03125 -13.734375 -8.65625 C -13.734375 -7.457031 -13.289062 -6.40625 -12.40625 -5.5 C -11.519531 -4.59375 -10.054688 -4.140625 -8.015625 -4.140625 C -6.535156 -4.140625 -5.335938 -4.328125 -4.421875 -4.703125 C -2.691406 -5.398438 -1.828125 -6.691406 -1.828125 -8.578125 Z M -1.828125 -8.578125 "/>
</g>
<g id="glyph-2-5">
<path d="M -4.171875 -3.953125 C -3.410156 -3.953125 -2.8125 -4.226562 -2.375 -4.78125 C -1.9375 -5.34375 -1.71875 -6.003906 -1.71875 -6.765625 C -1.71875 -7.691406 -1.929688 -8.59375 -2.359375 -9.46875 C -3.066406 -10.925781 -4.234375 -11.65625 -5.859375 -11.65625 L -7.984375 -11.65625 C -7.773438 -11.332031 -7.601562 -10.914062 -7.46875 -10.40625 C -7.332031 -9.90625 -7.234375 -9.410156 -7.171875 -8.921875 L -6.96875 -7.328125 C -6.84375 -6.367188 -6.644531 -5.648438 -6.375 -5.171875 C -5.914062 -4.359375 -5.179688 -3.953125 -4.171875 -3.953125 Z M -9.5 -10.34375 C -9.582031 -10.945312 -9.835938 -11.351562 -10.265625 -11.5625 C -10.503906 -11.675781 -10.84375 -11.734375 -11.28125 -11.734375 C -12.175781 -11.734375 -12.828125 -11.410156 -13.234375 -10.765625 C -13.640625 -10.128906 -13.84375 -9.21875 -13.84375 -8.03125 C -13.84375 -6.65625 -13.472656 -5.675781 -12.734375 -5.09375 C -12.316406 -4.769531 -11.707031 -4.5625 -10.90625 -4.46875 L -10.90625 -2 C -12.832031 -2.050781 -14.171875 -2.679688 -14.921875 -3.890625 C -15.679688 -5.097656 -16.0625 -6.5 -16.0625 -8.09375 C -16.0625 -9.9375 -15.710938 -11.429688 -15.015625 -12.578125 C -14.304688 -13.722656 -13.210938 -14.296875 -11.734375 -14.296875 L -2.703125 -14.296875 C -2.421875 -14.296875 -2.195312 -14.351562 -2.03125 -14.46875 C -1.863281 -14.582031 -1.78125 -14.816406 -1.78125 -15.171875 C -1.78125 -15.296875 -1.785156 -15.429688 -1.796875 -15.578125 C -1.816406 -15.722656 -1.84375 -15.878906 -1.875 -16.046875 L 0.078125 -16.046875 C 0.191406 -15.628906 0.265625 -15.3125 0.296875 -15.09375 C 0.328125 -14.882812 0.34375 -14.59375 0.34375 -14.21875 C 0.34375 -13.3125 0.0195312 -12.65625 -0.625 -12.25 C -0.96875 -12.03125 -1.453125 -11.878906 -2.078125 -11.796875 C -1.378906 -11.253906 -0.769531 -10.476562 -0.25 -9.46875 C 0.269531 -8.46875 0.53125 -7.363281 0.53125 -6.15625 C 0.53125 -4.695312 0.0859375 -3.503906 -0.796875 -2.578125 C -1.679688 -1.660156 -2.785156 -1.203125 -4.109375 -1.203125 C -5.566406 -1.203125 -6.695312 -1.65625 -7.5 -2.5625 C -8.300781 -3.46875 -8.796875 -4.660156 -8.984375 -6.140625 Z M -16.0625 -8.15625 Z M -16.0625 -8.15625 "/>
</g>
<g id="glyph-2-6">
<path d="M -15.609375 -1.9375 L -15.609375 -4.609375 L 0 -4.609375 L 0 -1.9375 Z M -21.515625 -1.9375 L -21.515625 -4.609375 L -18.53125 -4.609375 L -18.53125 -1.9375 Z M -21.515625 -1.9375 "/>
</g>
<g id="glyph-2-7">
<path d="M -21.515625 -2 L -21.515625 -4.640625 L 0 -4.640625 L 0 -2 Z M -21.515625 -2 "/>
</g>
<g id="glyph-2-8">
<path d="M -20.0625 -2.46875 L -20.0625 -5.125 L -15.6875 -5.125 L -15.6875 -7.625 L -13.53125 -7.625 L -13.53125 -5.125 L -3.296875 -5.125 C -2.742188 -5.125 -2.378906 -5.3125 -2.203125 -5.6875 C -2.085938 -5.882812 -2.03125 -6.222656 -2.03125 -6.703125 C -2.03125 -6.835938 -2.03125 -6.976562 -2.03125 -7.125 C -2.039062 -7.269531 -2.054688 -7.4375 -2.078125 -7.625 L 0 -7.625 C 0.0820312 -7.320312 0.144531 -7.007812 0.1875 -6.6875 C 0.226562 -6.363281 0.25 -6.007812 0.25 -5.625 C 0.25 -4.394531 -0.0625 -3.5625 -0.6875 -3.125 C -1.320312 -2.6875 -2.144531 -2.46875 -3.15625 -2.46875 L -13.53125 -2.46875 L -13.53125 -0.34375 L -15.6875 -0.34375 L -15.6875 -2.46875 Z M -20.0625 -2.46875 "/>
</g>
<g id="glyph-2-9">
<path d="M -15.6875 -11.734375 L -15.6875 -14.65625 C -14.6875 -14.28125 -12.390625 -13.453125 -8.796875 -12.171875 C -6.109375 -11.210938 -3.914062 -10.410156 -2.21875 -9.765625 C 1.789062 -8.242188 4.234375 -7.171875 5.109375 -6.546875 C 5.992188 -5.921875 6.4375 -4.847656 6.4375 -3.328125 C 6.4375 -2.953125 6.421875 -2.664062 6.390625 -2.46875 C 6.359375 -2.269531 6.300781 -2.023438 6.21875 -1.734375 L 3.828125 -1.734375 C 3.953125 -2.191406 4.03125 -2.519531 4.0625 -2.71875 C 4.09375 -2.925781 4.109375 -3.109375 4.109375 -3.265625 C 4.109375 -3.753906 4.023438 -4.113281 3.859375 -4.34375 C 3.703125 -4.570312 3.503906 -4.765625 3.265625 -4.921875 C 3.191406 -4.972656 2.789062 -5.148438 2.0625 -5.453125 C 1.34375 -5.753906 0.804688 -5.972656 0.453125 -6.109375 L -15.6875 -0.3125 L -15.6875 -3.296875 L -2.921875 -7.5 Z M -16.0625 -7.484375 Z M -16.0625 -7.484375 "/>
</g>
<g id="glyph-2-10">
</g>
<g id="glyph-2-11">
<path d="M -21.875 -8.875 C -18.894531 -7.34375 -16.703125 -6.347656 -15.296875 -5.890625 C -13.148438 -5.191406 -10.675781 -4.84375 -7.875 -4.84375 C -5.050781 -4.84375 -2.46875 -5.238281 -0.125 -6.03125 C 1.320312 -6.519531 3.40625 -7.484375 6.125 -8.921875 L 6.125 -7.15625 C 3.894531 -5.726562 2.472656 -4.84375 1.859375 -4.5 C 1.242188 -4.15625 0.410156 -3.785156 -0.640625 -3.390625 C -2.085938 -2.835938 -3.632812 -2.453125 -5.28125 -2.234375 C -6.125 -2.128906 -6.929688 -2.078125 -7.703125 -2.078125 C -10.597656 -2.078125 -13.171875 -2.53125 -15.421875 -3.4375 C -16.859375 -4.019531 -19.007812 -5.222656 -21.875 -7.046875 Z M -21.875 -8.875 "/>
</g>
<g id="glyph-2-12">
<path d="M 6.125 -1.046875 C 3.09375 -2.597656 0.882812 -3.597656 -0.5 -4.046875 C -2.59375 -4.722656 -5.050781 -5.0625 -7.875 -5.0625 C -10.695312 -5.0625 -13.28125 -4.664062 -15.625 -3.875 C -17.070312 -3.394531 -19.15625 -2.4375 -21.875 -1 L -21.875 -2.765625 C -19.46875 -4.273438 -17.984375 -5.1875 -17.421875 -5.5 C -16.859375 -5.820312 -16.085938 -6.164062 -15.109375 -6.53125 C -13.878906 -7 -12.671875 -7.332031 -11.484375 -7.53125 C -10.296875 -7.738281 -9.148438 -7.84375 -8.046875 -7.84375 C -5.148438 -7.84375 -2.570312 -7.378906 -0.3125 -6.453125 C 1.144531 -5.878906 3.289062 -4.6875 6.125 -2.875 Z M 6.125 -1.046875 "/>
</g>
</g>
<clipPath id="clip-0">
<path clip-rule="nonzero" d="M 110.867188 58.886719 L 849.058594 58.886719 L 849.058594 947.132812 L 110.867188 947.132812 Z M 110.867188 58.886719 "/>
</clipPath>
<clipPath id="clip-1">
<path clip-rule="nonzero" d="M 110.867188 805 L 849.058594 805 L 849.058594 807 L 110.867188 807 Z M 110.867188 805 "/>
</clipPath>
<clipPath id="clip-2">
<path clip-rule="nonzero" d="M 110.867188 603 L 849.058594 603 L 849.058594 605 L 110.867188 605 Z M 110.867188 603 "/>
</clipPath>
<clipPath id="clip-3">
<path clip-rule="nonzero" d="M 110.867188 401 L 849.058594 401 L 849.058594 403 L 110.867188 403 Z M 110.867188 401 "/>
</clipPath>
<clipPath id="clip-4">
<path clip-rule="nonzero" d="M 110.867188 199 L 849.058594 199 L 849.058594 201 L 110.867188 201 Z M 110.867188 199 "/>
</clipPath>
<clipPath id="clip-5">
<path clip-rule="nonzero" d="M 164 58.886719 L 167 58.886719 L 167 947.132812 L 164 947.132812 Z M 164 58.886719 "/>
</clipPath>
<clipPath id="clip-6">
<path clip-rule="nonzero" d="M 374 58.886719 L 376 58.886719 L 376 947.132812 L 374 947.132812 Z M 374 58.886719 "/>
</clipPath>
<clipPath id="clip-7">
<path clip-rule="nonzero" d="M 584 58.886719 L 586 58.886719 L 586 947.132812 L 584 947.132812 Z M 584 58.886719 "/>
</clipPath>
<clipPath id="clip-8">
<path clip-rule="nonzero" d="M 793 58.886719 L 796 58.886719 L 796 947.132812 L 793 947.132812 Z M 793 58.886719 "/>
</clipPath>
<clipPath id="clip-9">
<path clip-rule="nonzero" d="M 110.867188 905 L 849.058594 905 L 849.058594 909 L 110.867188 909 Z M 110.867188 905 "/>
</clipPath>
<clipPath id="clip-10">
<path clip-rule="nonzero" d="M 110.867188 703 L 849.058594 703 L 849.058594 707 L 110.867188 707 Z M 110.867188 703 "/>
</clipPath>
<clipPath id="clip-11">
<path clip-rule="nonzero" d="M 110.867188 501 L 849.058594 501 L 849.058594 505 L 110.867188 505 Z M 110.867188 501 "/>
</clipPath>
<clipPath id="clip-12">
<path clip-rule="nonzero" d="M 110.867188 299 L 849.058594 299 L 849.058594 303 L 110.867188 303 Z M 110.867188 299 "/>
</clipPath>
<clipPath id="clip-13">
<path clip-rule="nonzero" d="M 110.867188 97 L 849.058594 97 L 849.058594 101 L 110.867188 101 Z M 110.867188 97 "/>
</clipPath>
<clipPath id="clip-14">
<path clip-rule="nonzero" d="M 268 58.886719 L 272 58.886719 L 272 947.132812 L 268 947.132812 Z M 268 58.886719 "/>
</clipPath>
<clipPath id="clip-15">
<path clip-rule="nonzero" d="M 478 58.886719 L 482 58.886719 L 482 947.132812 L 478 947.132812 Z M 478 58.886719 "/>
</clipPath>
<clipPath id="clip-16">
<path clip-rule="nonzero" d="M 688 58.886719 L 692 58.886719 L 692 947.132812 L 688 947.132812 Z M 688 58.886719 "/>
</clipPath>
<clipPath id="clip-17">
<path clip-rule="nonzero" d="M 110.867188 905 L 849.058594 905 L 849.058594 909 L 110.867188 909 Z M 110.867188 905 "/>
</clipPath>
<clipPath id="clip-18">
<path clip-rule="nonzero" d="M 110.867188 97 L 849.058594 97 L 849.058594 101 L 110.867188 101 Z M 110.867188 97 "/>
</clipPath>
<clipPath id="clip-19">
<path clip-rule="nonzero" d="M 110.867188 58.886719 L 849.058594 58.886719 L 849.058594 947.132812 L 110.867188 947.132812 Z M 110.867188 58.886719 "/>
</clipPath>
</defs>
<rect x="-86.4" y="-103.6" width="1036.8" height="1243.2" fill="rgb(100%, 100%, 100%)" fill-opacity="1"/>
<rect x="-86.4" y="-103.6" width="1036.8" height="1243.2" fill="rgb(100%, 100%, 100%)" fill-opacity="1"/>
<path fill="none" stroke-width="2.909941" stroke-linecap="round" stroke-linejoin="round" stroke="rgb(100%, 100%, 100%)" stroke-opacity="1" stroke-miterlimit="10" d="M 0 1036 L 864 1036 L 864 0 L 0 0 Z M 0 1036 "/>
<g clip-path="url(#clip-0)">
<path fill-rule="nonzero" fill="rgb(100%, 100%, 100%)" fill-opacity="1" d="M 110.867188 947.132812 L 849.058594 947.132812 L 849.058594 58.886719 L 110.867188 58.886719 Z M 110.867188 947.132812 "/>
</g>
<g clip-path="url(#clip-1)">
<path fill="none" stroke-width="1.45497" stroke-linecap="butt" stroke-linejoin="round" stroke="rgb(92.156863%, 92.156863%, 92.156863%)" stroke-opacity="1" stroke-miterlimit="10" d="M 110.867188 805.824219 L 849.054688 805.824219 "/>
</g>
<g clip-path="url(#clip-2)">
<path fill="none" stroke-width="1.45497" stroke-linecap="butt" stroke-linejoin="round" stroke="rgb(92.156863%, 92.156863%, 92.156863%)" stroke-opacity="1" stroke-miterlimit="10" d="M 110.867188 603.949219 L 849.054688 603.949219 "/>
</g>
<g clip-path="url(#clip-3)">
<path fill="none" stroke-width="1.45497" stroke-linecap="butt" stroke-linejoin="round" stroke="rgb(92.156863%, 92.156863%, 92.156863%)" stroke-opacity="1" stroke-miterlimit="10" d="M 110.867188 402.074219 L 849.054688 402.074219 "/>
</g>
<g clip-path="url(#clip-4)">
<path fill="none" stroke-width="1.45497" stroke-linecap="butt" stroke-linejoin="round" stroke="rgb(92.156863%, 92.156863%, 92.156863%)" stroke-opacity="1" stroke-miterlimit="10" d="M 110.867188 200.199219 L 849.054688 200.199219 "/>
</g>
<g clip-path="url(#clip-5)">
<path fill="none" stroke-width="1.45497" stroke-linecap="butt" stroke-linejoin="round" stroke="rgb(92.156863%, 92.156863%, 92.156863%)" stroke-opacity="1" stroke-miterlimit="10" d="M 165.390625 947.132812 L 165.390625 58.886719 "/>
</g>
<g clip-path="url(#clip-6)">
<path fill="none" stroke-width="1.45497" stroke-linecap="butt" stroke-linejoin="round" stroke="rgb(92.156863%, 92.156863%, 92.156863%)" stroke-opacity="1" stroke-miterlimit="10" d="M 375.105469 947.132812 L 375.105469 58.886719 "/>
</g>
<g clip-path="url(#clip-7)">
<path fill="none" stroke-width="1.45497" stroke-linecap="butt" stroke-linejoin="round" stroke="rgb(92.156863%, 92.156863%, 92.156863%)" stroke-opacity="1" stroke-miterlimit="10" d="M 584.816406 947.132812 L 584.816406 58.886719 "/>
</g>
<g clip-path="url(#clip-8)">
<path fill="none" stroke-width="1.45497" stroke-linecap="butt" stroke-linejoin="round" stroke="rgb(92.156863%, 92.156863%, 92.156863%)" stroke-opacity="1" stroke-miterlimit="10" d="M 794.53125 947.132812 L 794.53125 58.886719 "/>
</g>
<g clip-path="url(#clip-9)">
<path fill="none" stroke-width="2.909941" stroke-linecap="butt" stroke-linejoin="round" stroke="rgb(92.156863%, 92.156863%, 92.156863%)" stroke-opacity="1" stroke-miterlimit="10" d="M 110.867188 906.757812 L 849.054688 906.757812 "/>
</g>
<g clip-path="url(#clip-10)">
<path fill="none" stroke-width="2.909941" stroke-linecap="butt" stroke-linejoin="round" stroke="rgb(92.156863%, 92.156863%, 92.156863%)" stroke-opacity="1" stroke-miterlimit="10" d="M 110.867188 704.886719 L 849.054688 704.886719 "/>
</g>
<g clip-path="url(#clip-11)">
<path fill="none" stroke-width="2.909941" stroke-linecap="butt" stroke-linejoin="round" stroke="rgb(92.156863%, 92.156863%, 92.156863%)" stroke-opacity="1" stroke-miterlimit="10" d="M 110.867188 503.011719 L 849.054688 503.011719 "/>
</g>
<g clip-path="url(#clip-12)">
<path fill="none" stroke-width="2.909941" stroke-linecap="butt" stroke-linejoin="round" stroke="rgb(92.156863%, 92.156863%, 92.156863%)" stroke-opacity="1" stroke-miterlimit="10" d="M 110.867188 301.136719 L 849.054688 301.136719 "/>
</g>
<g clip-path="url(#clip-13)">
<path fill="none" stroke-width="2.909941" stroke-linecap="butt" stroke-linejoin="round" stroke="rgb(92.156863%, 92.156863%, 92.156863%)" stroke-opacity="1" stroke-miterlimit="10" d="M 110.867188 99.261719 L 849.054688 99.261719 "/>
</g>
<g clip-path="url(#clip-14)">
<path fill="none" stroke-width="2.909941" stroke-linecap="butt" stroke-linejoin="round" stroke="rgb(92.156863%, 92.156863%, 92.156863%)" stroke-opacity="1" stroke-miterlimit="10" d="M 270.246094 947.132812 L 270.246094 58.886719 "/>
</g>
<g clip-path="url(#clip-15)">
<path fill="none" stroke-width="2.909941" stroke-linecap="butt" stroke-linejoin="round" stroke="rgb(92.156863%, 92.156863%, 92.156863%)" stroke-opacity="1" stroke-miterlimit="10" d="M 479.960938 947.132812 L 479.960938 58.886719 "/>
</g>
<g clip-path="url(#clip-16)">
<path fill="none" stroke-width="2.909941" stroke-linecap="butt" stroke-linejoin="round" stroke="rgb(92.156863%, 92.156863%, 92.156863%)" stroke-opacity="1" stroke-miterlimit="10" d="M 689.675781 947.132812 L 689.675781 58.886719 "/>
</g>
<g clip-path="url(#clip-17)">
<path fill="none" stroke-width="2.909941" stroke-linecap="butt" stroke-linejoin="round" stroke="rgb(0%, 0%, 0%)" stroke-opacity="1" stroke-dasharray="11.639764 11.639764" stroke-miterlimit="10" d="M 110.867188 906.757812 L 849.054688 906.757812 "/>
</g>
<g clip-path="url(#clip-18)">
<path fill="none" stroke-width="2.909941" stroke-linecap="butt" stroke-linejoin="round" stroke="rgb(0%, 0%, 0%)" stroke-opacity="1" stroke-dasharray="11.639764 11.639764" stroke-miterlimit="10" d="M 110.867188 99.261719 L 849.054688 99.261719 "/>
</g>
<path fill="none" stroke-width="2.909941" stroke-linecap="butt" stroke-linejoin="round" stroke="rgb(0%, 0%, 0%)" stroke-opacity="1" stroke-miterlimit="10" d="M 144.417969 906.488281 L 144.839844 906.484375 L 145.257812 906.484375 L 145.679688 906.480469 L 146.097656 906.476562 L 146.515625 906.476562 L 146.9375 906.472656 L 147.773438 906.464844 L 148.195312 906.464844 L 148.613281 906.460938 L 149.035156 906.457031 L 149.453125 906.453125 L 149.871094 906.453125 L 150.292969 906.449219 L 151.128906 906.441406 L 151.550781 906.4375 L 151.96875 906.433594 L 152.390625 906.433594 L 153.226562 906.425781 L 153.648438 906.421875 L 154.484375 906.414062 L 154.90625 906.410156 L 155.324219 906.410156 L 155.742188 906.40625 L 156.164062 906.402344 L 156.582031 906.398438 L 157.003906 906.394531 L 157.839844 906.386719 L 158.261719 906.382812 L 159.097656 906.375 L 159.519531 906.371094 L 159.9375 906.367188 L 160.359375 906.363281 L 161.195312 906.355469 L 161.617188 906.351562 L 162.453125 906.34375 L 162.875 906.339844 L 163.292969 906.335938 L 163.714844 906.332031 L 164.132812 906.328125 L 164.550781 906.320312 L 164.972656 906.316406 L 165.808594 906.308594 L 166.230469 906.304688 L 166.648438 906.300781 L 167.070312 906.296875 L 167.488281 906.289062 L 167.90625 906.285156 L 168.328125 906.28125 L 168.746094 906.277344 L 169.164062 906.269531 L 169.585938 906.265625 L 170.003906 906.261719 L 170.425781 906.257812 L 170.84375 906.25 L 171.261719 906.246094 L 171.683594 906.242188 L 172.101562 906.234375 L 172.519531 906.230469 L 172.941406 906.226562 L 173.359375 906.21875 L 173.78125 906.214844 L 174.199219 906.210938 L 174.617188 906.203125 L 175.039062 906.199219 L 175.457031 906.191406 L 175.875 906.1875 L 176.296875 906.179688 L 176.714844 906.175781 L 177.136719 906.167969 L 177.554688 906.164062 L 177.972656 906.15625 L 178.394531 906.152344 L 178.8125 906.144531 L 179.230469 906.140625 L 179.652344 906.132812 L 180.070312 906.125 L 180.492188 906.121094 L 181.328125 906.105469 L 181.75 906.101562 L 182.585938 906.085938 L 183.007812 906.082031 L 183.425781 906.074219 L 183.847656 906.066406 L 184.265625 906.058594 L 184.683594 906.054688 L 185.105469 906.046875 L 185.941406 906.03125 L 186.363281 906.023438 L 187.199219 906.007812 L 187.621094 906 L 188.039062 905.992188 L 188.460938 905.984375 L 188.878906 905.980469 L 189.296875 905.96875 L 189.71875 905.960938 L 190.554688 905.945312 L 190.976562 905.9375 L 191.394531 905.929688 L 191.816406 905.921875 L 192.652344 905.90625 L 193.074219 905.894531 L 193.910156 905.878906 L 194.332031 905.871094 L 194.75 905.859375 L 195.171875 905.851562 L 195.589844 905.84375 L 196.007812 905.832031 L 196.429688 905.824219 L 196.847656 905.816406 L 197.265625 905.804688 L 197.6875 905.796875 L 198.105469 905.785156 L 198.527344 905.777344 L 198.945312 905.765625 L 199.363281 905.757812 L 199.785156 905.746094 L 200.203125 905.738281 L 200.621094 905.726562 L 201.042969 905.714844 L 201.460938 905.707031 L 201.882812 905.695312 L 202.71875 905.671875 L 203.140625 905.664062 L 203.976562 905.640625 L 204.398438 905.628906 L 204.816406 905.617188 L 205.238281 905.605469 L 206.074219 905.582031 L 206.496094 905.570312 L 207.332031 905.546875 L 207.753906 905.535156 L 208.171875 905.523438 L 208.59375 905.511719 L 209.011719 905.5 L 209.429688 905.484375 L 209.851562 905.472656 L 210.269531 905.460938 L 210.6875 905.445312 L 211.109375 905.433594 L 211.527344 905.421875 L 211.949219 905.40625 L 212.367188 905.394531 L 212.785156 905.378906 L 213.207031 905.367188 L 214.042969 905.335938 L 214.464844 905.324219 L 215.300781 905.292969 L 215.722656 905.28125 L 216.140625 905.265625 L 216.5625 905.25 L 217.398438 905.21875 L 217.820312 905.203125 L 218.65625 905.171875 L 219.078125 905.15625 L 219.496094 905.140625 L 219.917969 905.125 L 220.335938 905.109375 L 220.753906 905.089844 L 221.175781 905.074219 L 221.59375 905.058594 L 222.011719 905.039062 L 222.433594 905.023438 L 222.851562 905.007812 L 223.273438 904.988281 L 223.691406 904.96875 L 224.109375 904.953125 L 224.53125 904.933594 L 224.949219 904.917969 L 225.367188 904.898438 L 225.789062 904.878906 L 226.207031 904.859375 L 226.628906 904.839844 L 227.464844 904.800781 L 227.886719 904.78125 L 228.722656 904.742188 L 229.144531 904.722656 L 229.5625 904.703125 L 229.984375 904.683594 L 230.402344 904.660156 L 230.820312 904.640625 L 231.242188 904.617188 L 231.660156 904.597656 L 232.078125 904.574219 L 232.5 904.554688 L 232.917969 904.53125 L 233.339844 904.507812 L 233.757812 904.488281 L 234.175781 904.464844 L 234.597656 904.441406 L 235.433594 904.394531 L 235.855469 904.371094 L 236.273438 904.347656 L 236.695312 904.324219 L 237.113281 904.296875 L 237.53125 904.273438 L 237.953125 904.25 L 238.371094 904.222656 L 238.789062 904.199219 L 239.210938 904.171875 L 239.628906 904.144531 L 240.050781 904.121094 L 240.886719 904.066406 L 241.308594 904.039062 L 242.144531 903.984375 L 242.566406 903.957031 L 243.402344 903.902344 L 243.824219 903.871094 L 244.242188 903.84375 L 244.664062 903.8125 L 245.082031 903.785156 L 245.5 903.753906 L 245.921875 903.726562 L 246.757812 903.664062 L 247.179688 903.632812 L 247.597656 903.601562 L 248.019531 903.570312 L 248.4375 903.539062 L 248.855469 903.503906 L 249.277344 903.472656 L 249.695312 903.441406 L 250.113281 903.40625 L 250.535156 903.375 L 250.953125 903.339844 L 251.375 903.304688 L 252.210938 903.234375 L 252.632812 903.199219 L 253.46875 903.128906 L 253.890625 903.09375 L 254.308594 903.054688 L 254.730469 903.019531 L 255.148438 902.980469 L 255.566406 902.945312 L 255.988281 902.90625 L 256.824219 902.828125 L 257.246094 902.789062 L 257.664062 902.75 L 258.085938 902.707031 L 258.921875 902.628906 L 259.34375 902.585938 L 259.761719 902.542969 L 260.179688 902.503906 L 260.601562 902.460938 L 261.019531 902.417969 L 261.441406 902.375 L 261.859375 902.328125 L 262.277344 902.285156 L 262.699219 902.242188 L 263.535156 902.148438 L 263.957031 902.105469 L 264.375 902.058594 L 264.796875 902.011719 L 265.214844 901.960938 L 265.632812 901.914062 L 266.054688 901.867188 L 266.472656 901.816406 L 266.890625 901.769531 L 267.3125 901.71875 L 267.730469 901.667969 L 268.152344 901.617188 L 268.988281 901.515625 L 269.410156 901.460938 L 269.828125 901.410156 L 270.246094 901.355469 L 270.667969 901.300781 L 271.503906 901.191406 L 271.925781 901.136719 L 272.34375 901.078125 L 272.765625 901.023438 L 273.183594 900.964844 L 273.601562 900.910156 L 274.023438 900.851562 L 274.441406 900.789062 L 274.859375 900.730469 L 275.28125 900.671875 L 275.699219 900.609375 L 276.121094 900.550781 L 276.957031 900.425781 L 277.378906 900.363281 L 277.796875 900.296875 L 278.214844 900.234375 L 278.636719 900.167969 L 279.054688 900.101562 L 279.476562 900.035156 L 280.3125 899.902344 L 280.734375 899.832031 L 281.152344 899.765625 L 281.570312 899.695312 L 281.992188 899.625 L 282.410156 899.554688 L 282.832031 899.480469 L 283.25 899.410156 L 283.667969 899.335938 L 284.089844 899.261719 L 284.925781 899.113281 L 285.347656 899.035156 L 285.765625 898.957031 L 286.1875 898.882812 L 286.605469 898.804688 L 287.023438 898.722656 L 287.445312 898.644531 L 288.28125 898.480469 L 288.703125 898.398438 L 289.121094 898.316406 L 289.542969 898.230469 L 289.960938 898.148438 L 290.378906 898.0625 L 290.800781 897.976562 L 291.21875 897.886719 L 291.636719 897.800781 L 292.058594 897.710938 L 292.476562 897.621094 L 292.898438 897.53125 L 293.734375 897.34375 L 294.15625 897.253906 L 294.574219 897.15625 L 294.992188 897.0625 L 295.414062 896.964844 L 295.832031 896.867188 L 296.253906 896.769531 L 296.671875 896.671875 L 297.089844 896.570312 L 297.511719 896.46875 L 298.347656 896.265625 L 298.769531 896.160156 L 299.605469 895.949219 L 300.027344 895.84375 L 300.445312 895.734375 L 300.867188 895.625 L 301.285156 895.515625 L 301.703125 895.402344 L 302.125 895.289062 L 302.960938 895.0625 L 303.382812 894.945312 L 303.800781 894.828125 L 304.222656 894.710938 L 304.640625 894.59375 L 305.058594 894.472656 L 305.480469 894.351562 L 305.898438 894.226562 L 306.316406 894.105469 L 306.738281 893.976562 L 307.15625 893.851562 L 307.578125 893.722656 L 308.414062 893.464844 L 308.835938 893.332031 L 309.253906 893.203125 L 309.671875 893.066406 L 310.09375 892.933594 L 310.511719 892.796875 L 310.933594 892.65625 L 311.351562 892.519531 L 311.769531 892.378906 L 312.191406 892.234375 L 312.609375 892.09375 L 313.027344 891.949219 L 313.449219 891.800781 L 313.867188 891.652344 L 314.289062 891.503906 L 314.707031 891.355469 L 315.125 891.203125 L 315.546875 891.050781 L 316.382812 890.738281 L 316.804688 890.582031 L 317.222656 890.421875 L 317.644531 890.261719 L 318.480469 889.933594 L 318.902344 889.769531 L 319.738281 889.433594 L 320.160156 889.261719 L 320.578125 889.089844 L 321 888.917969 L 321.835938 888.566406 L 322.257812 888.386719 L 322.675781 888.207031 L 323.09375 888.023438 L 323.515625 887.839844 L 323.933594 887.652344 L 324.355469 887.464844 L 324.773438 887.277344 L 325.191406 887.085938 L 325.613281 886.894531 L 326.449219 886.503906 L 326.871094 886.304688 L 327.289062 886.101562 L 327.707031 885.902344 L 328.128906 885.695312 L 328.546875 885.492188 L 328.96875 885.28125 L 329.386719 885.074219 L 329.804688 884.859375 L 330.226562 884.648438 L 331.0625 884.210938 L 331.484375 883.992188 L 331.902344 883.769531 L 332.324219 883.546875 L 332.742188 883.320312 L 333.160156 883.089844 L 333.582031 882.859375 L 334.417969 882.390625 L 334.839844 882.152344 L 335.257812 881.914062 L 335.679688 881.671875 L 336.515625 881.179688 L 336.9375 880.933594 L 337.773438 880.425781 L 338.195312 880.171875 L 338.613281 879.914062 L 339.035156 879.652344 L 339.453125 879.390625 L 339.871094 879.125 L 340.292969 878.855469 L 340.710938 878.585938 L 341.128906 878.3125 L 341.550781 878.035156 L 341.96875 877.757812 L 342.390625 877.476562 L 343.226562 876.90625 L 343.648438 876.617188 L 344.066406 876.328125 L 344.484375 876.03125 L 344.90625 875.734375 L 345.324219 875.4375 L 345.746094 875.132812 L 346.164062 874.828125 L 346.582031 874.519531 L 347.003906 874.210938 L 347.839844 873.578125 L 348.261719 873.257812 L 348.679688 872.9375 L 349.101562 872.609375 L 349.519531 872.28125 L 349.9375 871.949219 L 350.359375 871.617188 L 351.195312 870.9375 L 351.617188 870.59375 L 352.035156 870.246094 L 352.457031 869.894531 L 352.875 869.542969 L 353.292969 869.1875 L 353.714844 868.828125 L 354.132812 868.464844 L 354.550781 868.097656 L 354.972656 867.726562 L 355.390625 867.355469 L 355.808594 866.976562 L 356.230469 866.597656 L 356.648438 866.214844 L 357.070312 865.828125 L 357.488281 865.4375 L 357.90625 865.042969 L 358.328125 864.644531 L 358.746094 864.246094 L 359.164062 863.839844 L 359.585938 863.433594 L 360.003906 863.019531 L 360.425781 862.605469 L 361.261719 861.761719 L 361.683594 861.335938 L 362.101562 860.90625 L 362.519531 860.46875 L 362.941406 860.03125 L 363.359375 859.589844 L 363.78125 859.144531 L 364.199219 858.695312 L 364.617188 858.238281 L 365.039062 857.78125 L 365.457031 857.320312 L 365.875 856.855469 L 366.296875 856.382812 L 366.714844 855.910156 L 367.136719 855.429688 L 367.554688 854.949219 L 367.972656 854.460938 L 368.394531 853.96875 L 368.8125 853.472656 L 369.230469 852.972656 L 369.652344 852.46875 L 370.070312 851.960938 L 370.492188 851.449219 L 371.328125 850.410156 L 371.75 849.882812 L 372.167969 849.351562 L 372.585938 848.816406 L 373.007812 848.277344 L 373.425781 847.730469 L 373.847656 847.179688 L 374.265625 846.628906 L 374.683594 846.066406 L 375.105469 845.503906 L 375.523438 844.9375 L 375.941406 844.363281 L 376.363281 843.785156 L 376.78125 843.203125 L 377.203125 842.613281 L 377.621094 842.019531 L 378.039062 841.421875 L 378.460938 840.820312 L 378.878906 840.210938 L 379.296875 839.597656 L 379.71875 838.980469 L 380.136719 838.355469 L 380.558594 837.726562 L 380.976562 837.09375 L 381.394531 836.453125 L 381.816406 835.808594 L 382.234375 835.160156 L 382.652344 834.503906 L 383.074219 833.84375 L 383.492188 833.179688 L 383.914062 832.507812 L 384.75 831.148438 L 385.171875 830.457031 L 385.589844 829.765625 L 386.007812 829.066406 L 386.429688 828.359375 L 386.847656 827.648438 L 387.265625 826.933594 L 387.6875 826.210938 L 388.105469 825.484375 L 388.527344 824.75 L 388.945312 824.011719 L 389.363281 823.265625 L 389.785156 822.511719 L 390.203125 821.753906 L 390.621094 820.992188 L 391.042969 820.222656 L 391.460938 819.445312 L 391.882812 818.664062 L 392.300781 817.875 L 392.71875 817.082031 L 393.140625 816.28125 L 393.558594 815.476562 L 393.976562 814.664062 L 394.398438 813.84375 L 394.816406 813.019531 L 395.238281 812.1875 L 395.65625 811.347656 L 396.074219 810.503906 L 396.496094 809.652344 L 396.914062 808.796875 L 397.332031 807.929688 L 397.753906 807.058594 L 398.171875 806.183594 L 398.59375 805.300781 L 399.011719 804.410156 L 399.429688 803.511719 L 399.851562 802.609375 L 400.269531 801.699219 L 400.6875 800.78125 L 401.109375 799.855469 L 401.527344 798.925781 L 401.949219 797.988281 L 402.367188 797.042969 L 402.785156 796.089844 L 403.207031 795.132812 L 403.625 794.167969 L 404.042969 793.195312 L 404.464844 792.214844 L 404.882812 791.230469 L 405.304688 790.234375 L 405.722656 789.234375 L 406.140625 788.226562 L 406.5625 787.210938 L 406.980469 786.191406 L 407.398438 785.160156 L 407.820312 784.125 L 408.238281 783.082031 L 408.660156 782.03125 L 409.078125 780.972656 L 409.496094 779.90625 L 409.917969 778.832031 L 410.335938 777.753906 L 410.753906 776.664062 L 411.175781 775.570312 L 411.59375 774.46875 L 412.015625 773.355469 L 412.433594 772.238281 L 412.851562 771.113281 L 413.273438 769.984375 L 413.691406 768.84375 L 414.109375 767.695312 L 414.53125 766.539062 L 414.949219 765.378906 L 415.367188 764.207031 L 415.789062 763.03125 L 416.207031 761.84375 L 416.628906 760.652344 L 417.046875 759.453125 L 417.464844 758.242188 L 417.886719 757.027344 L 418.304688 755.804688 L 418.722656 754.574219 L 419.144531 753.332031 L 419.5625 752.085938 L 419.984375 750.832031 L 420.402344 749.570312 L 420.820312 748.300781 L 421.242188 747.023438 L 421.660156 745.738281 L 422.078125 744.445312 L 422.5 743.144531 L 422.917969 741.835938 L 423.339844 740.519531 L 423.757812 739.195312 L 424.175781 737.863281 L 424.597656 736.523438 L 425.015625 735.175781 L 425.433594 733.820312 L 425.855469 732.460938 L 426.273438 731.089844 L 426.695312 729.710938 L 427.113281 728.324219 L 427.53125 726.929688 L 427.953125 725.527344 L 428.371094 724.117188 L 428.789062 722.703125 L 429.210938 721.277344 L 429.628906 719.84375 L 430.050781 718.402344 L 430.46875 716.957031 L 430.886719 715.5 L 431.308594 714.035156 L 431.726562 712.566406 L 432.144531 711.085938 L 432.566406 709.601562 L 432.984375 708.105469 L 433.40625 706.605469 L 433.824219 705.09375 L 434.242188 703.578125 L 434.664062 702.054688 L 435.082031 700.523438 L 435.5 698.984375 L 435.921875 697.4375 L 436.339844 695.882812 L 436.761719 694.320312 L 437.179688 692.75 L 437.597656 691.175781 L 438.019531 689.589844 L 438.4375 688 L 438.855469 686.398438 L 439.277344 684.792969 L 439.695312 683.179688 L 440.117188 681.5625 L 440.535156 679.933594 L 440.953125 678.296875 L 441.375 676.65625 L 441.792969 675.007812 L 442.210938 673.351562 L 442.632812 671.6875 L 443.050781 670.019531 L 443.46875 668.34375 L 443.890625 666.660156 L 444.308594 664.96875 L 444.730469 663.269531 L 445.148438 661.566406 L 445.566406 659.855469 L 445.988281 658.140625 L 446.40625 656.414062 L 446.824219 654.683594 L 447.246094 652.949219 L 447.664062 651.203125 L 448.085938 649.453125 L 448.503906 647.699219 L 448.921875 645.933594 L 449.34375 644.164062 L 449.761719 642.390625 L 450.179688 640.609375 L 450.601562 638.824219 L 451.019531 637.027344 L 451.441406 635.230469 L 451.859375 633.425781 L 452.277344 631.613281 L 452.699219 629.796875 L 453.117188 627.972656 L 453.535156 626.144531 L 453.957031 624.3125 L 454.375 622.472656 L 454.796875 620.628906 L 455.214844 618.777344 L 455.632812 616.921875 L 456.054688 615.0625 L 456.472656 613.195312 L 456.890625 611.324219 L 457.3125 609.449219 L 457.730469 607.570312 L 458.152344 605.683594 L 458.570312 603.792969 L 458.988281 601.898438 L 459.410156 599.996094 L 459.828125 598.09375 L 460.246094 596.183594 L 460.667969 594.269531 L 461.085938 592.351562 L 461.507812 590.429688 L 461.925781 588.503906 L 462.34375 586.574219 L 462.765625 584.640625 L 463.183594 582.703125 L 463.601562 580.757812 L 464.023438 578.8125 L 464.441406 576.863281 L 464.863281 574.910156 L 465.699219 570.996094 L 466.121094 569.03125 L 466.539062 567.066406 L 466.957031 565.097656 L 467.378906 563.125 L 467.796875 561.148438 L 468.21875 559.167969 L 468.636719 557.1875 L 469.054688 555.203125 L 469.476562 553.21875 L 469.894531 551.230469 L 470.3125 549.238281 L 470.734375 547.246094 L 471.570312 543.253906 L 471.992188 541.253906 L 472.410156 539.25 L 472.832031 537.246094 L 473.25 535.242188 L 473.667969 533.234375 L 474.089844 531.226562 L 474.507812 529.21875 L 474.925781 527.207031 L 475.347656 525.195312 L 475.765625 523.183594 L 476.1875 521.167969 L 477.023438 517.136719 L 477.445312 515.121094 L 477.863281 513.101562 L 478.28125 511.085938 L 478.703125 509.066406 L 479.121094 507.046875 L 479.542969 505.03125 L 480.378906 500.992188 L 480.800781 498.972656 L 481.21875 496.957031 L 481.636719 494.9375 L 482.058594 492.917969 L 482.476562 490.902344 L 482.898438 488.886719 L 483.734375 484.855469 L 484.15625 482.839844 L 484.992188 478.816406 L 485.414062 476.804688 L 485.832031 474.792969 L 486.253906 472.785156 L 486.671875 470.78125 L 487.089844 468.773438 L 487.511719 466.773438 L 487.929688 464.769531 L 488.347656 462.769531 L 488.769531 460.773438 L 489.1875 458.777344 L 489.609375 456.785156 L 490.027344 454.792969 L 490.445312 452.804688 L 490.867188 450.816406 L 491.285156 448.832031 L 491.703125 446.851562 L 492.125 444.875 L 492.542969 442.898438 L 492.964844 440.925781 L 493.382812 438.957031 L 493.800781 436.992188 L 494.222656 435.027344 L 494.640625 433.066406 L 495.058594 431.113281 L 495.480469 429.160156 L 495.898438 427.207031 L 496.320312 425.261719 L 496.738281 423.320312 L 497.15625 421.382812 L 497.578125 419.449219 L 497.996094 417.519531 L 498.414062 415.59375 L 498.835938 413.671875 L 499.253906 411.753906 L 499.671875 409.839844 L 500.09375 407.929688 L 500.511719 406.027344 L 500.933594 404.125 L 501.351562 402.230469 L 501.769531 400.339844 L 502.191406 398.453125 L 503.027344 394.695312 L 503.449219 392.828125 L 503.867188 390.960938 L 504.289062 389.101562 L 504.707031 387.246094 L 505.125 385.394531 L 505.546875 383.550781 L 505.964844 381.710938 L 506.382812 379.875 L 506.804688 378.046875 L 507.222656 376.226562 L 507.644531 374.410156 L 508.0625 372.597656 L 508.480469 370.792969 L 508.902344 368.992188 L 509.320312 367.199219 L 509.738281 365.414062 L 510.160156 363.632812 L 510.578125 361.855469 L 511 360.085938 L 511.417969 358.324219 L 511.835938 356.570312 L 512.257812 354.820312 L 512.675781 353.074219 L 513.09375 351.339844 L 513.515625 349.605469 L 513.933594 347.882812 L 514.355469 346.164062 L 515.191406 342.75 L 515.613281 341.054688 L 516.03125 339.363281 L 516.449219 337.679688 L 516.871094 336.003906 L 517.289062 334.332031 L 517.710938 332.671875 L 518.128906 331.015625 L 518.546875 329.367188 L 518.96875 327.722656 L 519.386719 326.089844 L 519.804688 324.460938 L 520.226562 322.839844 L 520.644531 321.226562 L 521.066406 319.621094 L 521.484375 318.023438 L 521.902344 316.433594 L 522.324219 314.847656 L 522.742188 313.273438 L 523.160156 311.703125 L 523.582031 310.140625 L 524 308.585938 L 524.421875 307.039062 L 524.839844 305.5 L 525.257812 303.96875 L 525.679688 302.445312 L 526.097656 300.925781 L 526.515625 299.417969 L 526.9375 297.917969 L 527.355469 296.421875 L 527.773438 294.9375 L 528.195312 293.457031 L 528.613281 291.984375 L 529.035156 290.523438 L 529.453125 289.066406 L 529.871094 287.617188 L 530.292969 286.179688 L 530.710938 284.746094 L 531.128906 283.320312 L 531.550781 281.902344 L 531.96875 280.492188 L 532.390625 279.09375 L 532.808594 277.699219 L 533.226562 276.3125 L 533.648438 274.933594 L 534.066406 273.5625 L 534.484375 272.199219 L 534.90625 270.84375 L 535.324219 269.496094 L 535.746094 268.160156 L 536.164062 266.828125 L 536.582031 265.503906 L 537.003906 264.1875 L 537.421875 262.878906 L 537.839844 261.578125 L 538.261719 260.285156 L 538.679688 259 L 539.101562 257.722656 L 539.519531 256.453125 L 539.9375 255.1875 L 540.359375 253.933594 L 540.777344 252.6875 L 541.195312 251.449219 L 541.617188 250.21875 L 542.035156 248.996094 L 542.457031 247.777344 L 542.875 246.570312 L 543.292969 245.371094 L 543.714844 244.175781 L 544.132812 242.992188 L 544.550781 241.8125 L 544.972656 240.644531 L 545.390625 239.480469 L 545.8125 238.328125 L 546.230469 237.179688 L 546.648438 236.039062 L 547.070312 234.90625 L 547.488281 233.78125 L 547.90625 232.664062 L 548.328125 231.554688 L 548.746094 230.453125 L 549.167969 229.359375 L 549.585938 228.269531 L 550.003906 227.191406 L 550.425781 226.117188 L 550.84375 225.050781 L 551.261719 223.992188 L 551.683594 222.941406 L 552.101562 221.898438 L 552.523438 220.863281 L 552.941406 219.832031 L 553.359375 218.808594 L 553.78125 217.796875 L 554.199219 216.789062 L 554.617188 215.785156 L 555.039062 214.792969 L 555.457031 213.808594 L 555.878906 212.828125 L 556.296875 211.855469 L 556.714844 210.890625 L 557.136719 209.929688 L 557.554688 208.980469 L 557.972656 208.035156 L 558.394531 207.097656 L 558.8125 206.167969 L 559.230469 205.242188 L 559.652344 204.324219 L 560.070312 203.414062 L 560.492188 202.511719 L 560.910156 201.613281 L 561.328125 200.722656 L 561.75 199.839844 L 562.167969 198.960938 L 562.585938 198.089844 L 563.007812 197.226562 L 563.425781 196.371094 L 563.847656 195.519531 L 564.265625 194.675781 L 564.683594 193.835938 L 565.105469 193.003906 L 565.523438 192.179688 L 565.941406 191.359375 L 566.363281 190.546875 L 566.78125 189.742188 L 567.203125 188.941406 L 567.621094 188.144531 L 568.039062 187.359375 L 568.460938 186.578125 L 568.878906 185.800781 L 569.296875 185.03125 L 569.71875 184.265625 L 570.136719 183.511719 L 570.558594 182.757812 L 570.976562 182.011719 L 571.394531 181.273438 L 571.816406 180.539062 L 572.234375 179.8125 L 572.652344 179.089844 L 573.074219 178.371094 L 573.492188 177.660156 L 573.914062 176.957031 L 574.332031 176.257812 L 574.75 175.5625 L 575.171875 174.875 L 575.589844 174.191406 L 576.007812 173.515625 L 576.429688 172.84375 L 576.847656 172.179688 L 577.269531 171.519531 L 577.6875 170.863281 L 578.105469 170.210938 L 578.527344 169.566406 L 578.945312 168.929688 L 579.363281 168.296875 L 579.785156 167.667969 L 580.203125 167.042969 L 580.625 166.425781 L 581.042969 165.8125 L 581.460938 165.203125 L 581.882812 164.601562 L 582.300781 164.003906 L 582.71875 163.410156 L 583.140625 162.820312 L 583.558594 162.238281 L 583.980469 161.660156 L 584.398438 161.085938 L 584.816406 160.519531 L 585.238281 159.953125 L 585.65625 159.394531 L 586.074219 158.839844 L 586.496094 158.292969 L 586.914062 157.746094 L 587.332031 157.207031 L 587.753906 156.671875 L 588.171875 156.140625 L 588.59375 155.613281 L 589.429688 154.574219 L 589.851562 154.0625 L 590.6875 153.046875 L 591.109375 152.546875 L 591.527344 152.054688 L 591.949219 151.5625 L 592.367188 151.074219 L 592.785156 150.59375 L 593.207031 150.113281 L 594.042969 149.167969 L 594.464844 148.703125 L 594.882812 148.242188 L 595.304688 147.78125 L 595.722656 147.328125 L 596.140625 146.878906 L 596.5625 146.433594 L 596.980469 145.988281 L 597.398438 145.550781 L 597.820312 145.117188 L 598.238281 144.6875 L 598.660156 144.261719 L 599.078125 143.835938 L 599.496094 143.417969 L 599.917969 143.003906 L 600.335938 142.589844 L 600.753906 142.183594 L 601.175781 141.777344 L 601.59375 141.375 L 602.015625 140.980469 L 602.433594 140.585938 L 602.851562 140.195312 L 603.273438 139.808594 L 604.109375 139.042969 L 604.53125 138.667969 L 604.949219 138.296875 L 605.371094 137.925781 L 605.789062 137.558594 L 606.207031 137.195312 L 606.628906 136.835938 L 607.464844 136.125 L 607.886719 135.777344 L 608.304688 135.429688 L 608.726562 135.085938 L 609.144531 134.742188 L 609.5625 134.40625 L 609.984375 134.070312 L 610.402344 133.738281 L 610.820312 133.410156 L 611.242188 133.085938 L 611.660156 132.761719 L 612.082031 132.445312 L 612.917969 131.8125 L 613.339844 131.503906 L 613.757812 131.195312 L 614.175781 130.890625 L 614.597656 130.585938 L 615.015625 130.285156 L 615.433594 129.988281 L 615.855469 129.695312 L 616.273438 129.402344 L 616.695312 129.117188 L 617.113281 128.828125 L 617.53125 128.546875 L 617.953125 128.265625 L 618.789062 127.710938 L 619.210938 127.4375 L 619.628906 127.167969 L 620.050781 126.898438 L 620.46875 126.632812 L 620.886719 126.371094 L 621.308594 126.109375 L 622.144531 125.59375 L 622.566406 125.339844 L 622.984375 125.089844 L 623.40625 124.839844 L 623.824219 124.59375 L 624.242188 124.351562 L 624.664062 124.109375 L 625.082031 123.867188 L 625.5 123.632812 L 625.921875 123.394531 L 626.339844 123.164062 L 626.761719 122.933594 L 627.179688 122.703125 L 627.597656 122.476562 L 628.019531 122.253906 L 628.855469 121.808594 L 629.277344 121.59375 L 629.695312 121.375 L 630.117188 121.160156 L 630.953125 120.738281 L 631.375 120.53125 L 631.792969 120.324219 L 632.210938 120.121094 L 632.632812 119.917969 L 633.050781 119.71875 L 633.472656 119.519531 L 634.308594 119.128906 L 634.730469 118.9375 L 635.566406 118.554688 L 635.988281 118.367188 L 636.40625 118.183594 L 636.828125 118 L 637.246094 117.816406 L 637.664062 117.636719 L 638.085938 117.457031 L 638.921875 117.105469 L 639.34375 116.933594 L 639.761719 116.761719 L 640.183594 116.589844 L 641.019531 116.253906 L 641.441406 116.089844 L 642.277344 115.761719 L 642.699219 115.601562 L 643.117188 115.441406 L 643.535156 115.285156 L 643.957031 115.128906 L 644.375 114.972656 L 644.796875 114.820312 L 645.632812 114.515625 L 646.054688 114.367188 L 646.472656 114.21875 L 646.890625 114.074219 L 647.3125 113.929688 L 647.730469 113.785156 L 648.152344 113.644531 L 648.988281 113.363281 L 649.410156 113.226562 L 649.828125 113.089844 L 650.246094 112.957031 L 650.667969 112.820312 L 651.085938 112.6875 L 651.507812 112.558594 L 651.925781 112.425781 L 652.34375 112.296875 L 652.765625 112.171875 L 653.183594 112.042969 L 653.601562 111.917969 L 654.023438 111.792969 L 654.441406 111.671875 L 654.863281 111.550781 L 655.28125 111.429688 L 655.699219 111.3125 L 656.121094 111.191406 L 656.539062 111.074219 L 656.957031 110.960938 L 657.378906 110.84375 L 657.796875 110.730469 L 658.21875 110.617188 L 659.054688 110.398438 L 659.476562 110.289062 L 659.894531 110.179688 L 660.3125 110.074219 L 660.734375 109.964844 L 661.152344 109.863281 L 661.574219 109.757812 L 661.992188 109.652344 L 662.410156 109.550781 L 662.832031 109.449219 L 663.25 109.351562 L 663.667969 109.25 L 664.089844 109.152344 L 664.507812 109.054688 L 664.929688 108.960938 L 665.347656 108.863281 L 665.765625 108.769531 L 666.1875 108.675781 L 666.605469 108.585938 L 667.023438 108.492188 L 667.445312 108.402344 L 667.863281 108.3125 L 668.285156 108.222656 L 668.703125 108.132812 L 669.121094 108.046875 L 669.542969 107.960938 L 670.378906 107.789062 L 670.800781 107.707031 L 671.636719 107.542969 L 672.058594 107.460938 L 672.476562 107.378906 L 672.898438 107.296875 L 673.734375 107.140625 L 674.15625 107.0625 L 674.574219 106.988281 L 674.992188 106.910156 L 675.414062 106.835938 L 675.832031 106.761719 L 676.253906 106.6875 L 677.089844 106.539062 L 677.511719 106.46875 L 678.347656 106.328125 L 678.769531 106.257812 L 679.1875 106.1875 L 679.609375 106.121094 L 680.027344 106.054688 L 680.445312 105.984375 L 680.867188 105.917969 L 681.285156 105.855469 L 681.703125 105.789062 L 682.125 105.722656 L 682.542969 105.660156 L 682.964844 105.597656 L 683.800781 105.472656 L 684.222656 105.410156 L 684.640625 105.351562 L 685.058594 105.289062 L 685.480469 105.230469 L 685.898438 105.171875 L 686.320312 105.113281 L 686.738281 105.054688 L 687.15625 105 L 687.578125 104.941406 L 688.414062 104.832031 L 688.835938 104.777344 L 689.253906 104.722656 L 689.675781 104.667969 L 690.09375 104.613281 L 690.511719 104.5625 L 690.933594 104.507812 L 691.769531 104.40625 L 692.191406 104.355469 L 692.609375 104.304688 L 693.03125 104.253906 L 693.449219 104.203125 L 693.867188 104.15625 L 694.289062 104.109375 L 694.707031 104.058594 L 695.125 104.011719 L 695.546875 103.964844 L 695.964844 103.917969 L 696.386719 103.871094 L 696.804688 103.828125 L 697.222656 103.78125 L 697.644531 103.738281 L 698.0625 103.691406 L 698.480469 103.648438 L 698.902344 103.605469 L 699.738281 103.519531 L 700.160156 103.476562 L 700.578125 103.4375 L 701 103.394531 L 701.417969 103.355469 L 701.835938 103.3125 L 702.257812 103.273438 L 703.09375 103.195312 L 703.515625 103.15625 L 703.933594 103.117188 L 704.355469 103.078125 L 704.773438 103.039062 L 705.191406 103.003906 L 705.613281 102.964844 L 706.449219 102.894531 L 706.871094 102.859375 L 707.289062 102.820312 L 707.710938 102.785156 L 708.128906 102.75 L 708.546875 102.71875 L 708.96875 102.683594 L 709.386719 102.648438 L 709.804688 102.617188 L 710.226562 102.582031 L 710.644531 102.550781 L 711.066406 102.515625 L 711.902344 102.453125 L 712.324219 102.421875 L 713.160156 102.359375 L 713.582031 102.328125 L 714 102.296875 L 714.421875 102.265625 L 714.839844 102.238281 L 715.257812 102.207031 L 715.679688 102.179688 L 716.097656 102.148438 L 716.515625 102.121094 L 716.9375 102.09375 L 717.355469 102.066406 L 717.777344 102.039062 L 718.613281 101.984375 L 719.035156 101.957031 L 719.871094 101.902344 L 720.292969 101.875 L 720.710938 101.851562 L 721.132812 101.824219 L 721.550781 101.800781 L 721.96875 101.773438 L 722.390625 101.75 L 722.808594 101.722656 L 723.226562 101.699219 L 723.648438 101.675781 L 724.066406 101.652344 L 724.488281 101.628906 L 725.324219 101.582031 L 725.746094 101.558594 L 726.582031 101.511719 L 727.003906 101.492188 L 727.421875 101.46875 L 727.84375 101.445312 L 728.261719 101.425781 L 728.679688 101.402344 L 729.101562 101.382812 L 729.519531 101.363281 L 729.9375 101.339844 L 730.359375 101.320312 L 731.195312 101.28125 L 731.617188 101.257812 L 732.035156 101.238281 L 732.457031 101.21875 L 733.292969 101.179688 L 733.714844 101.164062 L 734.550781 101.125 L 734.972656 101.105469 L 735.390625 101.089844 L 735.8125 101.070312 L 736.230469 101.050781 L 736.648438 101.035156 L 737.070312 101.015625 L 737.488281 101 L 737.90625 100.980469 L 738.328125 100.964844 L 738.746094 100.949219 L 739.167969 100.929688 L 740.003906 100.898438 L 740.425781 100.882812 L 741.261719 100.851562 L 741.683594 100.835938 L 742.101562 100.820312 L 742.523438 100.804688 L 743.359375 100.773438 L 743.78125 100.757812 L 744.617188 100.726562 L 745.039062 100.714844 L 745.457031 100.699219 L 745.878906 100.683594 L 746.296875 100.671875 L 746.714844 100.65625 L 747.136719 100.644531 L 747.554688 100.628906 L 747.972656 100.617188 L 748.394531 100.601562 L 748.8125 100.589844 L 749.234375 100.574219 L 750.070312 100.550781 L 750.492188 100.535156 L 751.328125 100.511719 L 751.75 100.5 L 752.167969 100.488281 L 752.589844 100.476562 L 753.007812 100.464844 L 753.425781 100.449219 L 753.847656 100.4375 L 754.683594 100.414062 L 755.105469 100.40625 L 755.523438 100.394531 L 755.945312 100.382812 L 756.78125 100.359375 L 757.203125 100.347656 L 757.621094 100.339844 L 758.039062 100.328125 L 758.460938 100.316406 L 758.878906 100.304688 L 759.296875 100.296875 L 759.71875 100.285156 L 760.136719 100.277344 L 760.558594 100.265625 L 760.976562 100.253906 L 761.394531 100.246094 L 761.816406 100.234375 L 762.234375 100.226562 L 762.652344 100.214844 L 763.074219 100.207031 L 763.492188 100.199219 L 763.914062 100.1875 L 764.75 100.171875 L 765.171875 100.160156 L 766.007812 100.144531 L 766.429688 100.132812 L 766.847656 100.125 L 767.269531 100.117188 L 768.105469 100.101562 L 768.527344 100.09375 L 768.945312 100.082031 L 769.363281 100.074219 L 769.785156 100.066406 L 770.203125 100.058594 L 770.625 100.050781 L 771.460938 100.035156 L 771.882812 100.027344 L 772.71875 100.011719 L 773.140625 100.003906 L 773.558594 100 L 773.980469 99.992188 L 774.816406 99.976562 L 775.238281 99.96875 L 775.65625 99.960938 L 776.074219 99.957031 L 776.496094 99.949219 L 776.914062 99.941406 L 777.335938 99.933594 L 777.753906 99.929688 L 778.171875 99.921875 L 778.59375 99.914062 L 779.011719 99.910156 L 779.429688 99.902344 L 779.851562 99.894531 L 780.269531 99.890625 L 780.691406 99.882812 L 781.109375 99.878906 L 781.527344 99.871094 L 781.949219 99.863281 L 782.367188 99.859375 L 782.785156 99.851562 L 783.207031 99.847656 L 783.625 99.839844 L 784.046875 99.835938 L 784.464844 99.832031 L 784.882812 99.824219 L 785.304688 99.820312 L 785.722656 99.8125 L 786.140625 99.808594 L 786.5625 99.800781 L 787.398438 99.792969 L 787.820312 99.785156 L 788.238281 99.78125 L 788.660156 99.777344 L 789.078125 99.769531 L 789.496094 99.765625 L 789.917969 99.761719 L 790.335938 99.757812 L 790.753906 99.75 L 791.175781 99.746094 L 791.59375 99.742188 L 792.015625 99.738281 L 792.433594 99.730469 L 792.851562 99.726562 L 793.273438 99.722656 L 794.109375 99.714844 L 794.53125 99.710938 L 794.949219 99.703125 L 795.371094 99.699219 L 796.207031 99.691406 L 796.628906 99.6875 L 797.464844 99.679688 L 797.886719 99.675781 L 798.304688 99.671875 L 798.726562 99.667969 L 799.5625 99.660156 L 799.984375 99.65625 L 800.820312 99.648438 L 801.242188 99.644531 L 801.660156 99.640625 L 802.082031 99.636719 L 802.917969 99.628906 L 803.339844 99.625 L 804.175781 99.617188 L 804.597656 99.613281 L 805.015625 99.609375 L 805.4375 99.605469 L 805.855469 99.605469 L 806.273438 99.601562 L 806.695312 99.597656 L 807.53125 99.589844 L 807.953125 99.585938 L 808.371094 99.582031 L 808.792969 99.582031 L 809.628906 99.574219 L 810.050781 99.570312 L 810.46875 99.566406 L 810.886719 99.566406 L 811.308594 99.5625 L 811.726562 99.558594 L 812.148438 99.554688 L 812.566406 99.554688 L 812.984375 99.550781 L 813.40625 99.546875 L 813.824219 99.542969 L 814.242188 99.542969 L 814.664062 99.539062 L 815.082031 99.535156 L 815.5 99.535156 "/>
<g clip-path="url(#clip-19)">
<path fill="none" stroke-width="2.909941" stroke-linecap="round" stroke-linejoin="round" stroke="rgb(20%, 20%, 20%)" stroke-opacity="1" stroke-miterlimit="10" d="M 110.867188 947.132812 L 849.058594 947.132812 L 849.058594 58.886719 L 110.867188 58.886719 Z M 110.867188 947.132812 "/>
</g>
<g fill="rgb(30.196078%, 30.196078%, 30.196078%)" fill-opacity="1">
<use xlink:href="#glyph-0-1" x="51.414062" y="915.238281"/>
<use xlink:href="#glyph-0-2" x="64.414062" y="915.238281"/>
<use xlink:href="#glyph-0-1" x="71.414062" y="915.238281"/>
<use xlink:href="#glyph-0-1" x="84.414062" y="915.238281"/>
</g>
<g fill="rgb(30.196078%, 30.196078%, 30.196078%)" fill-opacity="1">
<use xlink:href="#glyph-0-1" x="51.414062" y="713.367188"/>
<use xlink:href="#glyph-0-2" x="64.414062" y="713.367188"/>
<use xlink:href="#glyph-0-3" x="71.414062" y="713.367188"/>
<use xlink:href="#glyph-0-4" x="84.414062" y="713.367188"/>
</g>
<g fill="rgb(30.196078%, 30.196078%, 30.196078%)" fill-opacity="1">
<use xlink:href="#glyph-0-1" x="51.414062" y="511.492188"/>
<use xlink:href="#glyph-0-2" x="64.414062" y="511.492188"/>
<use xlink:href="#glyph-0-4" x="71.414062" y="511.492188"/>
<use xlink:href="#glyph-0-1" x="84.414062" y="511.492188"/>
</g>
<g fill="rgb(30.196078%, 30.196078%, 30.196078%)" fill-opacity="1">
<use xlink:href="#glyph-0-1" x="51.414062" y="309.617188"/>
<use xlink:href="#glyph-0-2" x="64.414062" y="309.617188"/>
<use xlink:href="#glyph-0-5" x="71.414062" y="309.617188"/>
<use xlink:href="#glyph-0-4" x="84.414062" y="309.617188"/>
</g>
<g fill="rgb(30.196078%, 30.196078%, 30.196078%)" fill-opacity="1">
<use xlink:href="#glyph-0-6" x="51.414062" y="107.742188"/>
<use xlink:href="#glyph-0-2" x="64.414062" y="107.742188"/>
<use xlink:href="#glyph-0-1" x="71.414062" y="107.742188"/>
<use xlink:href="#glyph-0-1" x="84.414062" y="107.742188"/>
</g>
<path fill="none" stroke-width="2.909941" stroke-linecap="butt" stroke-linejoin="round" stroke="rgb(20%, 20%, 20%)" stroke-opacity="1" stroke-miterlimit="10" d="M 103.394531 906.757812 L 110.867188 906.757812 "/>
<path fill="none" stroke-width="2.909941" stroke-linecap="butt" stroke-linejoin="round" stroke="rgb(20%, 20%, 20%)" stroke-opacity="1" stroke-miterlimit="10" d="M 103.394531 704.886719 L 110.867188 704.886719 "/>
<path fill="none" stroke-width="2.909941" stroke-linecap="butt" stroke-linejoin="round" stroke="rgb(20%, 20%, 20%)" stroke-opacity="1" stroke-miterlimit="10" d="M 103.394531 503.011719 L 110.867188 503.011719 "/>
<path fill="none" stroke-width="2.909941" stroke-linecap="butt" stroke-linejoin="round" stroke="rgb(20%, 20%, 20%)" stroke-opacity="1" stroke-miterlimit="10" d="M 103.394531 301.136719 L 110.867188 301.136719 "/>
<path fill="none" stroke-width="2.909941" stroke-linecap="butt" stroke-linejoin="round" stroke="rgb(20%, 20%, 20%)" stroke-opacity="1" stroke-miterlimit="10" d="M 103.394531 99.261719 L 110.867188 99.261719 "/>
<path fill="none" stroke-width="2.909941" stroke-linecap="butt" stroke-linejoin="round" stroke="rgb(20%, 20%, 20%)" stroke-opacity="1" stroke-miterlimit="10" d="M 270.246094 954.605469 L 270.246094 947.132812 "/>
<path fill="none" stroke-width="2.909941" stroke-linecap="butt" stroke-linejoin="round" stroke="rgb(20%, 20%, 20%)" stroke-opacity="1" stroke-miterlimit="10" d="M 479.960938 954.605469 L 479.960938 947.132812 "/>
<path fill="none" stroke-width="2.909941" stroke-linecap="butt" stroke-linejoin="round" stroke="rgb(20%, 20%, 20%)" stroke-opacity="1" stroke-miterlimit="10" d="M 689.675781 954.605469 L 689.675781 947.132812 "/>
<g fill="rgb(30.196078%, 30.196078%, 30.196078%)" fill-opacity="1">
<use xlink:href="#glyph-0-7" x="259.746094" y="978.066406"/>
<use xlink:href="#glyph-0-4" x="267.746094" y="978.066406"/>
</g>
<g fill="rgb(30.196078%, 30.196078%, 30.196078%)" fill-opacity="1">
<use xlink:href="#glyph-0-1" x="473.460938" y="978.066406"/>
</g>
<g fill="rgb(30.196078%, 30.196078%, 30.196078%)" fill-opacity="1">
<use xlink:href="#glyph-0-4" x="683.175781" y="978.066406"/>
</g>
<g fill="rgb(0%, 0%, 0%)" fill-opacity="1">
<use xlink:href="#glyph-1-1" x="356.960938" y="1013.155273"/>
<use xlink:href="#glyph-1-2" x="363.960938" y="1013.155273"/>
<use xlink:href="#glyph-1-3" x="380.960938" y="1013.155273"/>
<use xlink:href="#glyph-1-4" x="397.960938" y="1013.155273"/>
<use xlink:href="#glyph-1-5" x="404.960938" y="1013.155273"/>
<use xlink:href="#glyph-1-6" x="412.960938" y="1013.155273"/>
<use xlink:href="#glyph-1-7" x="420.960938" y="1013.155273"/>
<use xlink:href="#glyph-1-8" x="435.960938" y="1013.155273"/>
<use xlink:href="#glyph-1-1" x="452.960938" y="1013.155273"/>
<use xlink:href="#glyph-1-9" x="459.960938" y="1013.155273"/>
<use xlink:href="#glyph-1-10" x="476.960938" y="1013.155273"/>
<use xlink:href="#glyph-1-11" x="493.960938" y="1013.155273"/>
<use xlink:href="#glyph-1-6" x="501.960938" y="1013.155273"/>
<use xlink:href="#glyph-1-1" x="509.960938" y="1013.155273"/>
<use xlink:href="#glyph-1-2" x="516.960938" y="1013.155273"/>
<use xlink:href="#glyph-1-3" x="533.960938" y="1013.155273"/>
<use xlink:href="#glyph-1-4" x="550.960938" y="1013.155273"/>
<use xlink:href="#glyph-1-5" x="557.960938" y="1013.155273"/>
<use xlink:href="#glyph-1-12" x="565.960938" y="1013.155273"/>
<use xlink:href="#glyph-1-13" x="575.960938" y="1013.155273"/>
<use xlink:href="#glyph-1-14" x="592.960938" y="1013.155273"/>
</g>
<g fill="rgb(0%, 0%, 0%)" fill-opacity="1">
<use xlink:href="#glyph-2-1" x="36.045898" y="595.011719"/>
<use xlink:href="#glyph-2-2" x="36.045898" y="578.011719"/>
<use xlink:href="#glyph-2-3" x="36.045898" y="568.011719"/>
<use xlink:href="#glyph-2-4" x="36.045898" y="551.011719"/>
<use xlink:href="#glyph-2-5" x="36.045898" y="534.011719"/>
<use xlink:href="#glyph-2-4" x="36.045898" y="517.011719"/>
<use xlink:href="#glyph-2-6" x="36.045898" y="500.011719"/>
<use xlink:href="#glyph-2-7" x="36.045898" y="493.011719"/>
<use xlink:href="#glyph-2-6" x="36.045898" y="486.011719"/>
<use xlink:href="#glyph-2-8" x="36.045898" y="479.011719"/>
<use xlink:href="#glyph-2-9" x="36.045898" y="471.011719"/>
<use xlink:href="#glyph-2-10" x="36.045898" y="456.011719"/>
<use xlink:href="#glyph-2-11" x="36.045898" y="448.011719"/>
<use xlink:href="#glyph-2-1" x="36.045898" y="438.011719"/>
<use xlink:href="#glyph-2-12" x="36.045898" y="421.011719"/>
</g>
<g fill="rgb(0%, 0%, 0%)" fill-opacity="1">
<use xlink:href="#glyph-1-1" x="110.867188" y="36.045898"/>
<use xlink:href="#glyph-1-2" x="117.867188" y="36.045898"/>
<use xlink:href="#glyph-1-3" x="134.867188" y="36.045898"/>
<use xlink:href="#glyph-1-4" x="151.867188" y="36.045898"/>
<use xlink:href="#glyph-1-5" x="158.867188" y="36.045898"/>
<use xlink:href="#glyph-1-15" x="166.867188" y="36.045898"/>
<use xlink:href="#glyph-1-6" x="181.867188" y="36.045898"/>
<use xlink:href="#glyph-1-8" x="189.867188" y="36.045898"/>
<use xlink:href="#glyph-1-1" x="206.867188" y="36.045898"/>
<use xlink:href="#glyph-1-16" x="213.867188" y="36.045898"/>
<use xlink:href="#glyph-1-8" x="235.867188" y="36.045898"/>
<use xlink:href="#glyph-1-17" x="252.867188" y="36.045898"/>
<use xlink:href="#glyph-1-15" x="267.867188" y="36.045898"/>
<use xlink:href="#glyph-1-6" x="282.867188" y="36.045898"/>
<use xlink:href="#glyph-1-13" x="290.867188" y="36.045898"/>
<use xlink:href="#glyph-1-18" x="307.867188" y="36.045898"/>
<use xlink:href="#glyph-1-2" x="317.867188" y="36.045898"/>
<use xlink:href="#glyph-1-19" x="334.867188" y="36.045898"/>
<use xlink:href="#glyph-1-9" x="351.867188" y="36.045898"/>
<use xlink:href="#glyph-1-20" x="368.867188" y="36.045898"/>
<use xlink:href="#glyph-1-10" x="383.867188" y="36.045898"/>
<use xlink:href="#glyph-1-6" x="400.867188" y="36.045898"/>
<use xlink:href="#glyph-1-13" x="408.867188" y="36.045898"/>
<use xlink:href="#glyph-1-18" x="425.867188" y="36.045898"/>
<use xlink:href="#glyph-1-2" x="435.867188" y="36.045898"/>
<use xlink:href="#glyph-1-21" x="452.867188" y="36.045898"/>
<use xlink:href="#glyph-1-8" x="469.867188" y="36.045898"/>
<use xlink:href="#glyph-1-21" x="486.867188" y="36.045898"/>
<use xlink:href="#glyph-1-4" x="503.867188" y="36.045898"/>
<use xlink:href="#glyph-1-1" x="510.867188" y="36.045898"/>
<use xlink:href="#glyph-1-4" x="517.867188" y="36.045898"/>
<use xlink:href="#glyph-1-5" x="524.867188" y="36.045898"/>
<use xlink:href="#glyph-1-4" x="532.867188" y="36.045898"/>
<use xlink:href="#glyph-1-10" x="539.867188" y="36.045898"/>
<use xlink:href="#glyph-1-15" x="556.867188" y="36.045898"/>
<use xlink:href="#glyph-1-6" x="571.867188" y="36.045898"/>
<use xlink:href="#glyph-1-21" x="579.867188" y="36.045898"/>
<use xlink:href="#glyph-1-10" x="596.867188" y="36.045898"/>
<use xlink:href="#glyph-1-5" x="613.867188" y="36.045898"/>
<use xlink:href="#glyph-1-16" x="621.867188" y="36.045898"/>
<use xlink:href="#glyph-1-10" x="643.867188" y="36.045898"/>
<use xlink:href="#glyph-1-10" x="660.867188" y="36.045898"/>
<use xlink:href="#glyph-1-22" x="677.867188" y="36.045898"/>
<use xlink:href="#glyph-1-6" x="694.867188" y="36.045898"/>
<use xlink:href="#glyph-1-23" x="702.867188" y="36.045898"/>
<use xlink:href="#glyph-1-6" x="719.867188" y="36.045898"/>
<use xlink:href="#glyph-1-8" x="727.867188" y="36.045898"/>
<use xlink:href="#glyph-1-22" x="744.867188" y="36.045898"/>
<use xlink:href="#glyph-1-19" x="761.867188" y="36.045898"/>
<use xlink:href="#glyph-1-6" x="778.867188" y="36.045898"/>
<use xlink:href="#glyph-1-24" x="786.867188" y="36.045898"/>
</g>
</svg>
