<?xml version="1.0" encoding="UTF-8"?>
<svg xmlns="http://www.w3.org/2000/svg" xmlns:xlink="http://www.w3.org/1999/xlink" width="720pt" height="684pt" viewBox="0 0 720 684">
<defs>
<g>
<g id="glyph-0-0">
<path d="M 0.640625 0 L 0.640625 -14.296875 L 11.984375 -14.296875 L 11.984375 0 Z M 10.1875 -1.796875 L 10.1875 -12.5 L 2.4375 -12.5 L 2.4375 -1.796875 Z M 10.1875 -1.796875 "/>
</g>
<g id="glyph-0-1">
<path d="M 1.703125 -14.296875 L 11.609375 -14.296875 L 11.609375 -12.53125 L 3.640625 -12.53125 L 3.640625 -8.203125 L 10.65625 -8.203125 L 10.65625 -6.5 L 3.640625 -6.5 L 3.640625 0 L 1.703125 0 Z M 1.703125 -14.296875 "/>
</g>
<g id="glyph-0-2">
<path d="M 5.421875 -1.125 C 6.578125 -1.125 7.367188 -1.5625 7.796875 -2.4375 C 8.234375 -3.320312 8.453125 -4.300781 8.453125 -5.375 C 8.453125 -6.351562 8.296875 -7.144531 7.984375 -7.75 C 7.492188 -8.707031 6.644531 -9.1875 5.4375 -9.1875 C 4.363281 -9.1875 3.582031 -8.773438 3.09375 -7.953125 C 2.613281 -7.140625 2.375 -6.160156 2.375 -5.015625 C 2.375 -3.898438 2.613281 -2.972656 3.09375 -2.234375 C 3.582031 -1.492188 4.359375 -1.125 5.421875 -1.125 Z M 5.484375 -10.71875 C 6.828125 -10.71875 7.960938 -10.269531 8.890625 -9.375 C 9.816406 -8.476562 10.28125 -7.160156 10.28125 -5.421875 C 10.28125 -3.742188 9.867188 -2.359375 9.046875 -1.265625 C 8.234375 -0.171875 6.96875 0.375 5.25 0.375 C 3.820312 0.375 2.6875 -0.109375 1.84375 -1.078125 C 1 -2.046875 0.578125 -3.347656 0.578125 -4.984375 C 0.578125 -6.734375 1.019531 -8.125 1.90625 -9.15625 C 2.789062 -10.195312 3.984375 -10.71875 5.484375 -10.71875 Z M 5.421875 -10.671875 Z M 5.421875 -10.671875 "/>
</g>
<g id="glyph-0-3">
<path d="M 1.328125 -10.421875 L 3 -10.421875 L 3 -8.625 C 3.132812 -8.96875 3.46875 -9.390625 4 -9.890625 C 4.53125 -10.398438 5.144531 -10.65625 5.84375 -10.65625 C 5.875 -10.65625 5.925781 -10.648438 6 -10.640625 C 6.082031 -10.628906 6.21875 -10.617188 6.40625 -10.609375 L 6.40625 -8.75 C 6.300781 -8.769531 6.203125 -8.78125 6.109375 -8.78125 C 6.023438 -8.789062 5.929688 -8.796875 5.828125 -8.796875 C 4.941406 -8.796875 4.257812 -8.507812 3.78125 -7.9375 C 3.3125 -7.375 3.078125 -6.722656 3.078125 -5.984375 L 3.078125 0 L 1.328125 0 Z M 1.328125 -10.421875 "/>
</g>
<g id="glyph-0-4">
</g>
<g id="glyph-0-5">
<path d="M 5.6875 -1.171875 C 6.5 -1.171875 7.175781 -1.515625 7.71875 -2.203125 C 8.257812 -2.890625 8.53125 -3.910156 8.53125 -5.265625 C 8.53125 -6.097656 8.410156 -6.8125 8.171875 -7.40625 C 7.710938 -8.5625 6.882812 -9.140625 5.6875 -9.140625 C 4.46875 -9.140625 3.632812 -8.53125 3.1875 -7.3125 C 2.945312 -6.664062 2.828125 -5.84375 2.828125 -4.84375 C 2.828125 -4.039062 2.945312 -3.359375 3.1875 -2.796875 C 3.644531 -1.710938 4.476562 -1.171875 5.6875 -1.171875 Z M 1.140625 -10.375 L 2.84375 -10.375 L 2.84375 -8.984375 C 3.195312 -9.460938 3.582031 -9.832031 4 -10.09375 C 4.59375 -10.476562 5.285156 -10.671875 6.078125 -10.671875 C 7.253906 -10.671875 8.253906 -10.21875 9.078125 -9.3125 C 9.910156 -8.40625 10.328125 -7.113281 10.328125 -5.4375 C 10.328125 -3.164062 9.734375 -1.546875 8.546875 -0.578125 C 7.785156 0.0351562 6.910156 0.34375 5.921875 0.34375 C 5.128906 0.34375 4.46875 0.167969 3.9375 -0.171875 C 3.625 -0.359375 3.28125 -0.691406 2.90625 -1.171875 L 2.90625 4.15625 L 1.140625 4.15625 Z M 1.140625 -10.375 "/>
</g>
<g id="glyph-0-6">
<path d="M 11.046875 -8 L 11.046875 -6.359375 L 0.890625 -6.359375 L 0.890625 -8 Z M 11.046875 -3.828125 L 11.046875 -2.15625 L 0.890625 -2.15625 L 0.890625 -3.828125 Z M 11.046875 -3.828125 "/>
</g>
<g id="glyph-0-7">
<path d="M 1.90625 -9.859375 L 1.90625 -11.203125 C 3.164062 -11.328125 4.046875 -11.53125 4.546875 -11.8125 C 5.046875 -12.101562 5.421875 -12.789062 5.671875 -13.875 L 7.046875 -13.875 L 7.046875 0 L 5.1875 0 L 5.1875 -9.859375 Z M 1.90625 -9.859375 "/>
</g>
<g id="glyph-0-8">
<path d="M 4.53125 -14.296875 L 6.015625 -14.296875 L 1.484375 0 L 0 0 Z M 4.53125 -14.296875 "/>
</g>
<g id="glyph-0-9">
<path d="M 5.828125 -13.984375 C 7.378906 -13.984375 8.460938 -13.578125 9.078125 -12.765625 C 9.691406 -11.960938 10 -11.132812 10 -10.28125 L 8.265625 -10.28125 C 8.160156 -10.832031 7.992188 -11.265625 7.765625 -11.578125 C 7.347656 -12.160156 6.710938 -12.453125 5.859375 -12.453125 C 4.878906 -12.453125 4.097656 -12 3.515625 -11.09375 C 2.941406 -10.1875 2.625 -8.890625 2.5625 -7.203125 C 2.957031 -7.796875 3.460938 -8.238281 4.078125 -8.53125 C 4.628906 -8.789062 5.25 -8.921875 5.9375 -8.921875 C 7.101562 -8.921875 8.117188 -8.546875 8.984375 -7.796875 C 9.859375 -7.054688 10.296875 -5.945312 10.296875 -4.46875 C 10.296875 -3.195312 9.882812 -2.070312 9.0625 -1.09375 C 8.238281 -0.125 7.066406 0.359375 5.546875 0.359375 C 4.242188 0.359375 3.117188 -0.132812 2.171875 -1.125 C 1.222656 -2.113281 0.75 -3.78125 0.75 -6.125 C 0.75 -7.851562 0.957031 -9.320312 1.375 -10.53125 C 2.1875 -12.832031 3.671875 -13.984375 5.828125 -13.984375 Z M 5.703125 -1.203125 C 6.617188 -1.203125 7.304688 -1.507812 7.765625 -2.125 C 8.222656 -2.738281 8.453125 -3.46875 8.453125 -4.3125 C 8.453125 -5.03125 8.25 -5.710938 7.84375 -6.359375 C 7.4375 -7.003906 6.691406 -7.328125 5.609375 -7.328125 C 4.859375 -7.328125 4.195312 -7.078125 3.625 -6.578125 C 3.0625 -6.078125 2.78125 -5.320312 2.78125 -4.3125 C 2.78125 -3.4375 3.035156 -2.695312 3.546875 -2.09375 C 4.066406 -1.5 4.785156 -1.203125 5.703125 -1.203125 Z M 5.703125 -1.203125 "/>
</g>
<g id="glyph-0-10">
<path d="M 1.65625 2.03125 C 2.101562 1.957031 2.414062 1.644531 2.59375 1.09375 C 2.695312 0.800781 2.75 0.519531 2.75 0.25 C 2.75 0.195312 2.742188 0.148438 2.734375 0.109375 C 2.734375 0.078125 2.726562 0.0390625 2.71875 0 L 1.65625 0 L 1.65625 -2.125 L 3.734375 -2.125 L 3.734375 -0.15625 C 3.734375 0.613281 3.578125 1.289062 3.265625 1.875 C 2.953125 2.457031 2.414062 2.816406 1.65625 2.953125 Z M 1.65625 2.03125 "/>
</g>
<g id="glyph-0-11">
<path d="M 1.640625 -13.328125 L 3.40625 -13.328125 L 3.40625 -10.421875 L 5.0625 -10.421875 L 5.0625 -8.984375 L 3.40625 -8.984375 L 3.40625 -2.1875 C 3.40625 -1.820312 3.53125 -1.578125 3.78125 -1.453125 C 3.914062 -1.390625 4.140625 -1.359375 4.453125 -1.359375 C 4.535156 -1.359375 4.625 -1.359375 4.71875 -1.359375 C 4.820312 -1.359375 4.9375 -1.363281 5.0625 -1.375 L 5.0625 0 C 4.863281 0.0625 4.65625 0.101562 4.4375 0.125 C 4.21875 0.15625 3.984375 0.171875 3.734375 0.171875 C 2.921875 0.171875 2.367188 -0.0351562 2.078125 -0.453125 C 1.785156 -0.878906 1.640625 -1.425781 1.640625 -2.09375 L 1.640625 -8.984375 L 0.21875 -8.984375 L 0.21875 -10.421875 L 1.640625 -10.421875 Z M 1.640625 -13.328125 "/>
</g>
<g id="glyph-0-12">
<path d="M 1.28125 -14.34375 L 3.03125 -14.34375 L 3.03125 -9 C 3.445312 -9.53125 3.820312 -9.898438 4.15625 -10.109375 C 4.71875 -10.484375 5.421875 -10.671875 6.265625 -10.671875 C 7.773438 -10.671875 8.800781 -10.140625 9.34375 -9.078125 C 9.632812 -8.503906 9.78125 -7.707031 9.78125 -6.6875 L 9.78125 0 L 7.96875 0 L 7.96875 -6.5625 C 7.96875 -7.332031 7.875 -7.894531 7.6875 -8.25 C 7.363281 -8.820312 6.765625 -9.109375 5.890625 -9.109375 C 5.171875 -9.109375 4.515625 -8.859375 3.921875 -8.359375 C 3.328125 -7.859375 3.03125 -6.914062 3.03125 -5.53125 L 3.03125 0 L 1.28125 0 Z M 1.28125 -14.34375 "/>
</g>
<g id="glyph-0-13">
<path d="M 5.625 -10.65625 C 6.363281 -10.65625 7.078125 -10.476562 7.765625 -10.125 C 8.460938 -9.78125 8.992188 -9.332031 9.359375 -8.78125 C 9.710938 -8.257812 9.945312 -7.648438 10.0625 -6.953125 C 10.164062 -6.460938 10.21875 -5.695312 10.21875 -4.65625 L 2.578125 -4.65625 C 2.609375 -3.59375 2.859375 -2.738281 3.328125 -2.09375 C 3.796875 -1.457031 4.519531 -1.140625 5.5 -1.140625 C 6.414062 -1.140625 7.144531 -1.441406 7.6875 -2.046875 C 8 -2.398438 8.21875 -2.804688 8.34375 -3.265625 L 10.0625 -3.265625 C 10.019531 -2.878906 9.867188 -2.453125 9.609375 -1.984375 C 9.359375 -1.515625 9.070312 -1.132812 8.75 -0.84375 C 8.21875 -0.320312 7.5625 0.03125 6.78125 0.21875 C 6.351562 0.320312 5.875 0.375 5.34375 0.375 C 4.050781 0.375 2.953125 -0.0976562 2.046875 -1.046875 C 1.148438 -1.992188 0.703125 -3.316406 0.703125 -5.015625 C 0.703125 -6.679688 1.15625 -8.035156 2.0625 -9.078125 C 2.96875 -10.128906 4.15625 -10.65625 5.625 -10.65625 Z M 8.421875 -6.046875 C 8.347656 -6.796875 8.179688 -7.398438 7.921875 -7.859375 C 7.441406 -8.703125 6.640625 -9.125 5.515625 -9.125 C 4.710938 -9.125 4.035156 -8.832031 3.484375 -8.25 C 2.941406 -7.675781 2.65625 -6.941406 2.625 -6.046875 Z M 5.453125 -10.671875 Z M 5.453125 -10.671875 "/>
</g>
<g id="glyph-0-14">
<path d="M 2.78125 -4.609375 C 2.820312 -3.796875 3.015625 -3.140625 3.359375 -2.640625 C 3.992188 -1.691406 5.125 -1.21875 6.75 -1.21875 C 7.476562 -1.21875 8.140625 -1.320312 8.734375 -1.53125 C 9.890625 -1.925781 10.46875 -2.644531 10.46875 -3.6875 C 10.46875 -4.46875 10.222656 -5.019531 9.734375 -5.34375 C 9.242188 -5.675781 8.472656 -5.960938 7.421875 -6.203125 L 5.484375 -6.640625 C 4.222656 -6.921875 3.328125 -7.234375 2.796875 -7.578125 C 1.890625 -8.171875 1.4375 -9.0625 1.4375 -10.25 C 1.4375 -11.53125 1.878906 -12.582031 2.765625 -13.40625 C 3.660156 -14.238281 4.921875 -14.65625 6.546875 -14.65625 C 8.046875 -14.65625 9.316406 -14.289062 10.359375 -13.5625 C 11.410156 -12.84375 11.9375 -11.6875 11.9375 -10.09375 L 10.109375 -10.09375 C 10.015625 -10.863281 9.8125 -11.453125 9.5 -11.859375 C 8.90625 -12.597656 7.898438 -12.96875 6.484375 -12.96875 C 5.347656 -12.96875 4.53125 -12.726562 4.03125 -12.25 C 3.53125 -11.769531 3.28125 -11.210938 3.28125 -10.578125 C 3.28125 -9.878906 3.570312 -9.367188 4.15625 -9.046875 C 4.539062 -8.835938 5.40625 -8.578125 6.75 -8.265625 L 8.75 -7.8125 C 9.71875 -7.59375 10.460938 -7.289062 10.984375 -6.90625 C 11.898438 -6.238281 12.359375 -5.269531 12.359375 -4 C 12.359375 -2.414062 11.78125 -1.28125 10.625 -0.59375 C 9.476562 0.0820312 8.140625 0.421875 6.609375 0.421875 C 4.835938 0.421875 3.445312 -0.03125 2.4375 -0.9375 C 1.4375 -1.84375 0.945312 -3.066406 0.96875 -4.609375 Z M 6.6875 -14.671875 Z M 6.6875 -14.671875 "/>
</g>
<g id="glyph-0-15">
<path d="M 7 -1.65625 C 7.65625 -1.65625 8.195312 -1.722656 8.625 -1.859375 C 9.375 -2.109375 9.988281 -2.59375 10.46875 -3.3125 C 10.851562 -3.894531 11.128906 -4.632812 11.296875 -5.53125 C 11.390625 -6.070312 11.4375 -6.570312 11.4375 -7.03125 C 11.4375 -8.800781 11.082031 -10.175781 10.375 -11.15625 C 9.675781 -12.132812 8.546875 -12.625 6.984375 -12.625 L 3.546875 -12.625 L 3.546875 -1.65625 Z M 1.609375 -14.296875 L 7.390625 -14.296875 C 9.359375 -14.296875 10.882812 -13.597656 11.96875 -12.203125 C 12.9375 -10.941406 13.421875 -9.328125 13.421875 -7.359375 C 13.421875 -5.847656 13.132812 -4.476562 12.5625 -3.25 C 11.550781 -1.082031 9.820312 0 7.375 0 L 1.609375 0 Z M 1.609375 -14.296875 "/>
</g>
<g id="glyph-0-16">
<path d="M 1.28125 -10.375 L 3.0625 -10.375 L 3.0625 0 L 1.28125 0 Z M 1.28125 -14.296875 L 3.0625 -14.296875 L 3.0625 -12.3125 L 1.28125 -12.3125 Z M 1.28125 -14.296875 "/>
</g>
<g id="glyph-0-17">
<path d="M 2.328125 -3.265625 C 2.378906 -2.679688 2.523438 -2.234375 2.765625 -1.921875 C 3.203125 -1.359375 3.96875 -1.078125 5.0625 -1.078125 C 5.707031 -1.078125 6.273438 -1.21875 6.765625 -1.5 C 7.265625 -1.78125 7.515625 -2.21875 7.515625 -2.8125 C 7.515625 -3.257812 7.316406 -3.597656 6.921875 -3.828125 C 6.660156 -3.972656 6.160156 -4.140625 5.421875 -4.328125 L 4.03125 -4.671875 C 3.132812 -4.898438 2.476562 -5.148438 2.0625 -5.421875 C 1.3125 -5.890625 0.9375 -6.546875 0.9375 -7.390625 C 0.9375 -8.367188 1.289062 -9.160156 2 -9.765625 C 2.707031 -10.378906 3.660156 -10.6875 4.859375 -10.6875 C 6.429688 -10.6875 7.566406 -10.226562 8.265625 -9.3125 C 8.691406 -8.726562 8.898438 -8.097656 8.890625 -7.421875 L 7.234375 -7.421875 C 7.203125 -7.816406 7.0625 -8.175781 6.8125 -8.5 C 6.414062 -8.957031 5.722656 -9.1875 4.734375 -9.1875 C 4.066406 -9.1875 3.5625 -9.0625 3.21875 -8.8125 C 2.882812 -8.5625 2.71875 -8.226562 2.71875 -7.8125 C 2.71875 -7.351562 2.941406 -6.988281 3.390625 -6.71875 C 3.648438 -6.5625 4.03125 -6.421875 4.53125 -6.296875 L 5.6875 -6.015625 C 6.945312 -5.703125 7.789062 -5.40625 8.21875 -5.125 C 8.894531 -4.675781 9.234375 -3.972656 9.234375 -3.015625 C 9.234375 -2.085938 8.878906 -1.285156 8.171875 -0.609375 C 7.472656 0.0664062 6.40625 0.40625 4.96875 0.40625 C 3.414062 0.40625 2.316406 0.0507812 1.671875 -0.65625 C 1.023438 -1.363281 0.679688 -2.234375 0.640625 -3.265625 Z M 4.90625 -10.671875 Z M 4.90625 -10.671875 "/>
</g>
<g id="glyph-0-18">
<path d="M 1.703125 -2.125 L 3.734375 -2.125 L 3.734375 0 L 1.703125 0 Z M 1.703125 -2.125 "/>
</g>
<g id="glyph-1-0">
<path d="M 0.671875 0 L 0.671875 -14.921875 L 12.515625 -14.921875 L 12.515625 0 Z M 10.640625 -1.875 L 10.640625 -13.046875 L 2.53125 -13.046875 L 2.53125 -1.875 Z M 10.640625 -1.875 "/>
</g>
<g id="glyph-1-1">
<path d="M 5.625 -14.546875 C 7.507812 -14.546875 8.867188 -13.769531 9.703125 -12.21875 C 10.359375 -11.019531 10.6875 -9.378906 10.6875 -7.296875 C 10.6875 -5.316406 10.390625 -3.679688 9.796875 -2.390625 C 8.941406 -0.535156 7.546875 0.390625 5.609375 0.390625 C 3.867188 0.390625 2.570312 -0.363281 1.71875 -1.875 C 1.007812 -3.144531 0.65625 -4.84375 0.65625 -6.96875 C 0.65625 -8.625 0.867188 -10.046875 1.296875 -11.234375 C 2.085938 -13.441406 3.53125 -14.546875 5.625 -14.546875 Z M 5.609375 -1.265625 C 6.554688 -1.265625 7.3125 -1.679688 7.875 -2.515625 C 8.4375 -3.359375 8.71875 -4.925781 8.71875 -7.21875 C 8.71875 -8.875 8.515625 -10.234375 8.109375 -11.296875 C 7.703125 -12.359375 6.910156 -12.890625 5.734375 -12.890625 C 4.660156 -12.890625 3.875 -12.382812 3.375 -11.375 C 2.875 -10.363281 2.625 -8.875 2.625 -6.90625 C 2.625 -5.425781 2.785156 -4.234375 3.109375 -3.328125 C 3.597656 -1.953125 4.429688 -1.265625 5.609375 -1.265625 Z M 5.609375 -1.265625 "/>
</g>
<g id="glyph-1-2">
<path d="M 1.78125 -2.21875 L 3.90625 -2.21875 L 3.90625 0 L 1.78125 0 Z M 1.78125 -2.21875 "/>
</g>
<g id="glyph-1-3">
<path d="M 2.5625 -3.703125 C 2.6875 -2.660156 3.171875 -1.941406 4.015625 -1.546875 C 4.453125 -1.335938 4.957031 -1.234375 5.53125 -1.234375 C 6.613281 -1.234375 7.414062 -1.578125 7.9375 -2.265625 C 8.457031 -2.960938 8.71875 -3.726562 8.71875 -4.5625 C 8.71875 -5.582031 8.40625 -6.367188 7.78125 -6.921875 C 7.164062 -7.484375 6.421875 -7.765625 5.546875 -7.765625 C 4.921875 -7.765625 4.382812 -7.640625 3.9375 -7.390625 C 3.488281 -7.148438 3.101562 -6.8125 2.78125 -6.375 L 1.203125 -6.46875 L 2.3125 -14.296875 L 9.859375 -14.296875 L 9.859375 -12.53125 L 3.671875 -12.53125 L 3.0625 -8.484375 C 3.394531 -8.742188 3.710938 -8.9375 4.015625 -9.0625 C 4.554688 -9.289062 5.1875 -9.40625 5.90625 -9.40625 C 7.238281 -9.40625 8.367188 -8.972656 9.296875 -8.109375 C 10.222656 -7.253906 10.6875 -6.164062 10.6875 -4.84375 C 10.6875 -3.46875 10.257812 -2.253906 9.40625 -1.203125 C 8.5625 -0.160156 7.207031 0.359375 5.34375 0.359375 C 4.15625 0.359375 3.101562 0.0234375 2.1875 -0.640625 C 1.28125 -1.304688 0.773438 -2.328125 0.671875 -3.703125 Z M 2.5625 -3.703125 "/>
</g>
<g id="glyph-1-4">
<path d="M 1.984375 -10.296875 L 1.984375 -11.703125 C 3.304688 -11.828125 4.226562 -12.039062 4.75 -12.34375 C 5.269531 -12.644531 5.660156 -13.359375 5.921875 -14.484375 L 7.359375 -14.484375 L 7.359375 0 L 5.40625 0 L 5.40625 -10.296875 Z M 1.984375 -10.296875 "/>
</g>
<g id="glyph-1-5">
<path d="M 0.65625 0 C 0.71875 -1.25 0.972656 -2.335938 1.421875 -3.265625 C 1.878906 -4.191406 2.757812 -5.035156 4.0625 -5.796875 L 6.015625 -6.921875 C 6.890625 -7.429688 7.5 -7.863281 7.84375 -8.21875 C 8.40625 -8.78125 8.6875 -9.425781 8.6875 -10.15625 C 8.6875 -11 8.429688 -11.671875 7.921875 -12.171875 C 7.410156 -12.671875 6.734375 -12.921875 5.890625 -12.921875 C 4.640625 -12.921875 3.773438 -12.445312 3.296875 -11.5 C 3.035156 -10.988281 2.890625 -10.285156 2.859375 -9.390625 L 1 -9.390625 C 1.019531 -10.648438 1.253906 -11.679688 1.703125 -12.484375 C 2.492188 -13.890625 3.894531 -14.59375 5.90625 -14.59375 C 7.5625 -14.59375 8.773438 -14.140625 9.546875 -13.234375 C 10.316406 -12.335938 10.703125 -11.335938 10.703125 -10.234375 C 10.703125 -9.066406 10.289062 -8.070312 9.46875 -7.25 C 9 -6.769531 8.148438 -6.1875 6.921875 -5.5 L 5.53125 -4.734375 C 4.875 -4.367188 4.351562 -4.019531 3.96875 -3.6875 C 3.289062 -3.09375 2.863281 -2.4375 2.6875 -1.71875 L 10.625 -1.71875 L 10.625 0 Z M 0.65625 0 "/>
</g>
<g id="glyph-1-6">
<path d="M 10.875 -14.296875 L 10.875 -12.703125 C 10.40625 -12.242188 9.78125 -11.453125 9 -10.328125 C 8.226562 -9.210938 7.546875 -8.003906 6.953125 -6.703125 C 6.367188 -5.429688 5.921875 -4.273438 5.609375 -3.234375 C 5.421875 -2.566406 5.171875 -1.488281 4.859375 0 L 2.828125 0 C 3.296875 -2.769531 4.3125 -5.53125 5.875 -8.28125 C 6.800781 -9.894531 7.773438 -11.285156 8.796875 -12.453125 L 0.765625 -12.453125 L 0.765625 -14.296875 Z M 10.875 -14.296875 "/>
</g>
<g id="glyph-2-0">
<path d="M 0.84375 0 L 0.84375 -18.65625 L 15.640625 -18.65625 L 15.640625 0 Z M 13.3125 -2.34375 L 13.3125 -16.3125 L 3.171875 -16.3125 L 3.171875 -2.34375 Z M 13.3125 -2.34375 "/>
</g>
<g id="glyph-2-1">
<path d="M 7.421875 -1.53125 C 8.484375 -1.53125 9.367188 -1.976562 10.078125 -2.875 C 10.785156 -3.769531 11.140625 -5.101562 11.140625 -6.875 C 11.140625 -7.957031 10.984375 -8.890625 10.671875 -9.671875 C 10.078125 -11.171875 8.992188 -11.921875 7.421875 -11.921875 C 5.835938 -11.921875 4.753906 -11.128906 4.171875 -9.546875 C 3.847656 -8.703125 3.6875 -7.628906 3.6875 -6.328125 C 3.6875 -5.273438 3.847656 -4.378906 4.171875 -3.640625 C 4.753906 -2.234375 5.835938 -1.53125 7.421875 -1.53125 Z M 1.5 -13.53125 L 3.71875 -13.53125 L 3.71875 -11.734375 C 4.175781 -12.347656 4.675781 -12.828125 5.21875 -13.171875 C 5.988281 -13.671875 6.894531 -13.921875 7.9375 -13.921875 C 9.476562 -13.921875 10.785156 -13.332031 11.859375 -12.15625 C 12.929688 -10.976562 13.46875 -9.289062 13.46875 -7.09375 C 13.46875 -4.132812 12.691406 -2.019531 11.140625 -0.75 C 10.160156 0.0507812 9.019531 0.453125 7.71875 0.453125 C 6.695312 0.453125 5.835938 0.226562 5.140625 -0.21875 C 4.734375 -0.46875 4.28125 -0.90625 3.78125 -1.53125 L 3.78125 5.421875 L 1.5 5.421875 Z M 1.5 -13.53125 "/>
</g>
<g id="glyph-2-2">
<path d="M 1.734375 -13.59375 L 3.90625 -13.59375 L 3.90625 -11.25 C 4.082031 -11.707031 4.519531 -12.265625 5.21875 -12.921875 C 5.914062 -13.578125 6.71875 -13.90625 7.625 -13.90625 C 7.664062 -13.90625 7.734375 -13.898438 7.828125 -13.890625 C 7.929688 -13.878906 8.109375 -13.863281 8.359375 -13.84375 L 8.359375 -11.421875 C 8.222656 -11.453125 8.097656 -11.46875 7.984375 -11.46875 C 7.867188 -11.476562 7.742188 -11.484375 7.609375 -11.484375 C 6.453125 -11.484375 5.566406 -11.113281 4.953125 -10.375 C 4.335938 -9.632812 4.03125 -8.785156 4.03125 -7.828125 L 4.03125 0 L 1.734375 0 Z M 1.734375 -13.59375 "/>
</g>
<g id="glyph-2-3">
<path d="M 7.078125 -1.46875 C 8.585938 -1.46875 9.625 -2.039062 10.1875 -3.1875 C 10.75 -4.332031 11.03125 -5.609375 11.03125 -7.015625 C 11.03125 -8.285156 10.828125 -9.320312 10.421875 -10.125 C 9.773438 -11.375 8.664062 -12 7.09375 -12 C 5.695312 -12 4.679688 -11.460938 4.046875 -10.390625 C 3.410156 -9.328125 3.09375 -8.039062 3.09375 -6.53125 C 3.09375 -5.09375 3.410156 -3.890625 4.046875 -2.921875 C 4.679688 -1.953125 5.691406 -1.46875 7.078125 -1.46875 Z M 7.15625 -13.984375 C 8.90625 -13.984375 10.382812 -13.398438 11.59375 -12.234375 C 12.8125 -11.066406 13.421875 -9.347656 13.421875 -7.078125 C 13.421875 -4.890625 12.882812 -3.078125 11.8125 -1.640625 C 10.75 -0.210938 9.097656 0.5 6.859375 0.5 C 4.984375 0.5 3.492188 -0.128906 2.390625 -1.390625 C 1.296875 -2.660156 0.75 -4.363281 0.75 -6.5 C 0.75 -8.78125 1.328125 -10.597656 2.484375 -11.953125 C 3.648438 -13.304688 5.207031 -13.984375 7.15625 -13.984375 Z M 7.078125 -13.921875 Z M 7.078125 -13.921875 "/>
</g>
<g id="glyph-2-4">
<path d="M 1.5 -18.71875 L 3.71875 -18.71875 L 3.71875 -11.953125 C 4.21875 -12.597656 4.8125 -13.09375 5.5 -13.4375 C 6.195312 -13.78125 6.953125 -13.953125 7.765625 -13.953125 C 9.460938 -13.953125 10.835938 -13.367188 11.890625 -12.203125 C 12.941406 -11.046875 13.46875 -9.332031 13.46875 -7.0625 C 13.46875 -4.90625 12.945312 -3.113281 11.90625 -1.6875 C 10.863281 -0.269531 9.421875 0.4375 7.578125 0.4375 C 6.546875 0.4375 5.675781 0.183594 4.96875 -0.3125 C 4.539062 -0.613281 4.085938 -1.085938 3.609375 -1.734375 L 3.609375 0 L 1.5 0 Z M 7.4375 -1.59375 C 8.675781 -1.59375 9.601562 -2.082031 10.21875 -3.0625 C 10.832031 -4.039062 11.140625 -5.332031 11.140625 -6.9375 C 11.140625 -8.375 10.832031 -9.5625 10.21875 -10.5 C 9.601562 -11.4375 8.695312 -11.90625 7.5 -11.90625 C 6.457031 -11.90625 5.546875 -11.519531 4.765625 -10.75 C 3.984375 -9.976562 3.59375 -8.707031 3.59375 -6.9375 C 3.59375 -5.664062 3.753906 -4.628906 4.078125 -3.828125 C 4.679688 -2.335938 5.800781 -1.59375 7.4375 -1.59375 Z M 7.4375 -1.59375 "/>
</g>
<g id="glyph-2-5">
<path d="M 3.421875 -3.625 C 3.421875 -2.957031 3.660156 -2.429688 4.140625 -2.046875 C 4.628906 -1.671875 5.203125 -1.484375 5.859375 -1.484375 C 6.671875 -1.484375 7.453125 -1.671875 8.203125 -2.046875 C 9.472656 -2.660156 10.109375 -3.671875 10.109375 -5.078125 L 10.109375 -6.921875 C 9.828125 -6.742188 9.460938 -6.59375 9.015625 -6.46875 C 8.578125 -6.351562 8.148438 -6.269531 7.734375 -6.21875 L 6.34375 -6.046875 C 5.519531 -5.929688 4.898438 -5.753906 4.484375 -5.515625 C 3.773438 -5.117188 3.421875 -4.488281 3.421875 -3.625 Z M 8.96875 -8.234375 C 9.488281 -8.304688 9.835938 -8.53125 10.015625 -8.90625 C 10.117188 -9.101562 10.171875 -9.394531 10.171875 -9.78125 C 10.171875 -10.550781 9.890625 -11.113281 9.328125 -11.46875 C 8.773438 -11.820312 7.984375 -12 6.953125 -12 C 5.765625 -12 4.921875 -11.675781 4.421875 -11.03125 C 4.140625 -10.675781 3.957031 -10.148438 3.875 -9.453125 L 1.734375 -9.453125 C 1.773438 -11.117188 2.316406 -12.28125 3.359375 -12.9375 C 4.410156 -13.59375 5.628906 -13.921875 7.015625 -13.921875 C 8.609375 -13.921875 9.90625 -13.617188 10.90625 -13.015625 C 11.894531 -12.398438 12.390625 -11.453125 12.390625 -10.171875 L 12.390625 -2.34375 C 12.390625 -2.101562 12.4375 -1.910156 12.53125 -1.765625 C 12.632812 -1.617188 12.84375 -1.546875 13.15625 -1.546875 C 13.257812 -1.546875 13.375 -1.550781 13.5 -1.5625 C 13.625 -1.582031 13.757812 -1.601562 13.90625 -1.625 L 13.90625 0.0625 C 13.550781 0.164062 13.28125 0.226562 13.09375 0.25 C 12.90625 0.28125 12.648438 0.296875 12.328125 0.296875 C 11.535156 0.296875 10.960938 0.0117188 10.609375 -0.546875 C 10.421875 -0.835938 10.289062 -1.253906 10.21875 -1.796875 C 9.75 -1.191406 9.078125 -0.664062 8.203125 -0.21875 C 7.335938 0.226562 6.378906 0.453125 5.328125 0.453125 C 4.066406 0.453125 3.035156 0.0703125 2.234375 -0.6875 C 1.441406 -1.457031 1.046875 -2.414062 1.046875 -3.5625 C 1.046875 -4.820312 1.4375 -5.800781 2.21875 -6.5 C 3.007812 -7.195312 4.039062 -7.625 5.3125 -7.78125 Z M 7.078125 -13.921875 Z M 7.078125 -13.921875 "/>
</g>
<g id="glyph-2-6">
<path d="M 1.671875 -13.53125 L 4 -13.53125 L 4 0 L 1.671875 0 Z M 1.671875 -18.65625 L 4 -18.65625 L 4 -16.0625 L 1.671875 -16.0625 Z M 1.671875 -18.65625 "/>
</g>
<g id="glyph-2-7">
<path d="M 1.734375 -18.65625 L 4.03125 -18.65625 L 4.03125 0 L 1.734375 0 Z M 1.734375 -18.65625 "/>
</g>
<g id="glyph-2-8">
<path d="M 2.140625 -17.390625 L 4.4375 -17.390625 L 4.4375 -13.59375 L 6.609375 -13.59375 L 6.609375 -11.734375 L 4.4375 -11.734375 L 4.4375 -2.859375 C 4.4375 -2.378906 4.597656 -2.0625 4.921875 -1.90625 C 5.097656 -1.8125 5.394531 -1.765625 5.8125 -1.765625 C 5.925781 -1.765625 6.046875 -1.765625 6.171875 -1.765625 C 6.296875 -1.773438 6.441406 -1.785156 6.609375 -1.796875 L 6.609375 0 C 6.347656 0.0703125 6.078125 0.125 5.796875 0.15625 C 5.515625 0.195312 5.207031 0.21875 4.875 0.21875 C 3.8125 0.21875 3.085938 -0.0507812 2.703125 -0.59375 C 2.328125 -1.144531 2.140625 -1.859375 2.140625 -2.734375 L 2.140625 -11.734375 L 0.296875 -11.734375 L 0.296875 -13.59375 L 2.140625 -13.59375 Z M 2.140625 -17.390625 "/>
</g>
<g id="glyph-2-9">
<path d="M 10.171875 -13.59375 L 12.703125 -13.59375 C 12.378906 -12.726562 11.660156 -10.738281 10.546875 -7.625 C 9.722656 -5.289062 9.03125 -3.390625 8.46875 -1.921875 C 7.144531 1.542969 6.210938 3.660156 5.671875 4.421875 C 5.128906 5.191406 4.195312 5.578125 2.875 5.578125 C 2.5625 5.578125 2.316406 5.5625 2.140625 5.53125 C 1.960938 5.507812 1.75 5.460938 1.5 5.390625 L 1.5 3.3125 C 1.894531 3.425781 2.179688 3.492188 2.359375 3.515625 C 2.535156 3.546875 2.691406 3.5625 2.828125 3.5625 C 3.253906 3.5625 3.566406 3.488281 3.765625 3.34375 C 3.960938 3.207031 4.128906 3.035156 4.265625 2.828125 C 4.304688 2.765625 4.457031 2.414062 4.71875 1.78125 C 4.976562 1.15625 5.171875 0.691406 5.296875 0.390625 L 0.265625 -13.59375 L 2.859375 -13.59375 L 6.5 -2.53125 Z M 6.484375 -13.921875 Z M 6.484375 -13.921875 "/>
</g>
<g id="glyph-2-10">
</g>
<g id="glyph-2-11">
<path d="M 2.25 -15.671875 C 2.28125 -16.617188 2.445312 -17.3125 2.75 -17.75 C 3.28125 -18.53125 4.304688 -18.921875 5.828125 -18.921875 C 5.972656 -18.921875 6.117188 -18.914062 6.265625 -18.90625 C 6.421875 -18.894531 6.597656 -18.878906 6.796875 -18.859375 L 6.796875 -16.78125 C 6.554688 -16.800781 6.382812 -16.8125 6.28125 -16.8125 C 6.175781 -16.820312 6.078125 -16.828125 5.984375 -16.828125 C 5.285156 -16.828125 4.867188 -16.644531 4.734375 -16.28125 C 4.597656 -15.925781 4.53125 -15.007812 4.53125 -13.53125 L 6.796875 -13.53125 L 6.796875 -11.734375 L 4.5 -11.734375 L 4.5 0 L 2.25 0 L 2.25 -11.734375 L 0.359375 -11.734375 L 0.359375 -13.53125 L 2.25 -13.53125 Z M 2.25 -15.671875 "/>
</g>
<g id="glyph-2-12">
<path d="M 3.03125 -4.265625 C 3.101562 -3.503906 3.296875 -2.921875 3.609375 -2.515625 C 4.179688 -1.773438 5.179688 -1.40625 6.609375 -1.40625 C 7.453125 -1.40625 8.191406 -1.585938 8.828125 -1.953125 C 9.472656 -2.328125 9.796875 -2.898438 9.796875 -3.671875 C 9.796875 -4.253906 9.539062 -4.695312 9.03125 -5 C 8.695312 -5.1875 8.046875 -5.40625 7.078125 -5.65625 L 5.25 -6.109375 C 4.09375 -6.390625 3.238281 -6.710938 2.6875 -7.078125 C 1.707031 -7.691406 1.21875 -8.546875 1.21875 -9.640625 C 1.21875 -10.921875 1.679688 -11.957031 2.609375 -12.75 C 3.535156 -13.550781 4.78125 -13.953125 6.34375 -13.953125 C 8.394531 -13.953125 9.875 -13.351562 10.78125 -12.15625 C 11.34375 -11.382812 11.617188 -10.5625 11.609375 -9.6875 L 9.453125 -9.6875 C 9.398438 -10.207031 9.21875 -10.675781 8.90625 -11.09375 C 8.375 -11.695312 7.460938 -12 6.171875 -12 C 5.304688 -12 4.648438 -11.832031 4.203125 -11.5 C 3.765625 -11.164062 3.546875 -10.726562 3.546875 -10.1875 C 3.546875 -9.601562 3.835938 -9.128906 4.421875 -8.765625 C 4.753906 -8.554688 5.253906 -8.375 5.921875 -8.21875 L 7.421875 -7.84375 C 9.066406 -7.445312 10.171875 -7.0625 10.734375 -6.6875 C 11.617188 -6.101562 12.0625 -5.1875 12.0625 -3.9375 C 12.0625 -2.726562 11.601562 -1.679688 10.6875 -0.796875 C 9.769531 0.0742188 8.367188 0.515625 6.484375 0.515625 C 4.460938 0.515625 3.03125 0.0546875 2.1875 -0.859375 C 1.34375 -1.773438 0.894531 -2.910156 0.84375 -4.265625 Z M 6.40625 -13.921875 Z M 6.40625 -13.921875 "/>
</g>
<g id="glyph-2-13">
<path d="M 3.96875 -13.59375 L 3.96875 -4.578125 C 3.96875 -3.878906 4.078125 -3.3125 4.296875 -2.875 C 4.703125 -2.0625 5.457031 -1.65625 6.5625 -1.65625 C 8.15625 -1.65625 9.238281 -2.363281 9.8125 -3.78125 C 10.125 -4.539062 10.28125 -5.585938 10.28125 -6.921875 L 10.28125 -13.59375 L 12.5625 -13.59375 L 12.5625 0 L 10.40625 0 L 10.4375 -2 C 10.132812 -1.488281 9.765625 -1.054688 9.328125 -0.703125 C 8.460938 0.0117188 7.40625 0.375 6.15625 0.375 C 4.21875 0.375 2.898438 -0.273438 2.203125 -1.578125 C 1.816406 -2.265625 1.625 -3.191406 1.625 -4.359375 L 1.625 -13.59375 Z M 7.09375 -13.921875 Z M 7.09375 -13.921875 "/>
</g>
<g id="glyph-2-14">
<path d="M 6.921875 -13.984375 C 8.453125 -13.984375 9.695312 -13.609375 10.65625 -12.859375 C 11.613281 -12.117188 12.191406 -10.84375 12.390625 -9.03125 L 10.171875 -9.03125 C 10.035156 -9.863281 9.722656 -10.554688 9.234375 -11.109375 C 8.753906 -11.671875 7.984375 -11.953125 6.921875 -11.953125 C 5.460938 -11.953125 4.421875 -11.238281 3.796875 -9.8125 C 3.390625 -8.894531 3.1875 -7.757812 3.1875 -6.40625 C 3.1875 -5.039062 3.472656 -3.890625 4.046875 -2.953125 C 4.617188 -2.023438 5.523438 -1.5625 6.765625 -1.5625 C 7.710938 -1.5625 8.460938 -1.847656 9.015625 -2.421875 C 9.578125 -3.003906 9.960938 -3.800781 10.171875 -4.8125 L 12.390625 -4.8125 C 12.140625 -3.007812 11.503906 -1.691406 10.484375 -0.859375 C 9.472656 -0.0234375 8.175781 0.390625 6.59375 0.390625 C 4.8125 0.390625 3.390625 -0.253906 2.328125 -1.546875 C 1.273438 -2.847656 0.75 -4.472656 0.75 -6.421875 C 0.75 -8.804688 1.328125 -10.660156 2.484375 -11.984375 C 3.648438 -13.316406 5.128906 -13.984375 6.921875 -13.984375 Z M 6.5625 -13.921875 Z M 6.5625 -13.921875 "/>
</g>
<g id="glyph-2-15">
<path d="M 7.34375 -13.90625 C 8.300781 -13.90625 9.234375 -13.675781 10.140625 -13.21875 C 11.046875 -12.769531 11.738281 -12.1875 12.21875 -11.46875 C 12.675781 -10.78125 12.976562 -9.976562 13.125 -9.0625 C 13.257812 -8.4375 13.328125 -7.4375 13.328125 -6.0625 L 3.359375 -6.0625 C 3.398438 -4.6875 3.722656 -3.582031 4.328125 -2.75 C 4.941406 -1.914062 5.890625 -1.5 7.171875 -1.5 C 8.367188 -1.5 9.320312 -1.890625 10.03125 -2.671875 C 10.4375 -3.128906 10.722656 -3.660156 10.890625 -4.265625 L 13.140625 -4.265625 C 13.078125 -3.765625 12.878906 -3.207031 12.546875 -2.59375 C 12.210938 -1.976562 11.835938 -1.476562 11.421875 -1.09375 C 10.734375 -0.414062 9.875 0.0390625 8.84375 0.28125 C 8.300781 0.414062 7.679688 0.484375 6.984375 0.484375 C 5.285156 0.484375 3.847656 -0.128906 2.671875 -1.359375 C 1.503906 -2.597656 0.921875 -4.320312 0.921875 -6.53125 C 0.921875 -8.71875 1.507812 -10.492188 2.6875 -11.859375 C 3.875 -13.222656 5.425781 -13.90625 7.34375 -13.90625 Z M 10.984375 -7.890625 C 10.890625 -8.878906 10.671875 -9.671875 10.328125 -10.265625 C 9.703125 -11.359375 8.660156 -11.90625 7.203125 -11.90625 C 6.148438 -11.90625 5.265625 -11.523438 4.546875 -10.765625 C 3.835938 -10.015625 3.460938 -9.054688 3.421875 -7.890625 Z M 7.125 -13.921875 Z M 7.125 -13.921875 "/>
</g>
<g id="glyph-3-0">
<path d="M 0 -0.84375 L -18.65625 -0.84375 L -18.65625 -15.640625 L 0 -15.640625 Z M -2.34375 -13.3125 L -16.3125 -13.3125 L -16.3125 -3.171875 L -2.34375 -3.171875 Z M -2.34375 -13.3125 "/>
</g>
<g id="glyph-3-1">
<path d="M -4.265625 -3.03125 C -3.503906 -3.101562 -2.921875 -3.296875 -2.515625 -3.609375 C -1.773438 -4.179688 -1.40625 -5.179688 -1.40625 -6.609375 C -1.40625 -7.453125 -1.585938 -8.191406 -1.953125 -8.828125 C -2.328125 -9.472656 -2.898438 -9.796875 -3.671875 -9.796875 C -4.253906 -9.796875 -4.695312 -9.539062 -5 -9.03125 C -5.1875 -8.695312 -5.40625 -8.046875 -5.65625 -7.078125 L -6.109375 -5.25 C -6.390625 -4.09375 -6.710938 -3.238281 -7.078125 -2.6875 C -7.691406 -1.707031 -8.546875 -1.21875 -9.640625 -1.21875 C -10.921875 -1.21875 -11.957031 -1.679688 -12.75 -2.609375 C -13.550781 -3.535156 -13.953125 -4.78125 -13.953125 -6.34375 C -13.953125 -8.394531 -13.351562 -9.875 -12.15625 -10.78125 C -11.382812 -11.34375 -10.5625 -11.617188 -9.6875 -11.609375 L -9.6875 -9.453125 C -10.207031 -9.398438 -10.675781 -9.21875 -11.09375 -8.90625 C -11.695312 -8.375 -12 -7.460938 -12 -6.171875 C -12 -5.304688 -11.832031 -4.648438 -11.5 -4.203125 C -11.164062 -3.765625 -10.726562 -3.546875 -10.1875 -3.546875 C -9.601562 -3.546875 -9.128906 -3.835938 -8.765625 -4.421875 C -8.554688 -4.753906 -8.375 -5.253906 -8.21875 -5.921875 L -7.84375 -7.421875 C -7.445312 -9.066406 -7.0625 -10.171875 -6.6875 -10.734375 C -6.101562 -11.617188 -5.1875 -12.0625 -3.9375 -12.0625 C -2.726562 -12.0625 -1.679688 -11.601562 -0.796875 -10.6875 C 0.0742188 -9.769531 0.515625 -8.367188 0.515625 -6.484375 C 0.515625 -4.460938 0.0546875 -3.03125 -0.859375 -2.1875 C -1.773438 -1.34375 -2.910156 -0.894531 -4.265625 -0.84375 Z M -13.921875 -6.40625 Z M -13.921875 -6.40625 "/>
</g>
<g id="glyph-3-2">
<path d="M -17.390625 -2.140625 L -17.390625 -4.4375 L -13.59375 -4.4375 L -13.59375 -6.609375 L -11.734375 -6.609375 L -11.734375 -4.4375 L -2.859375 -4.4375 C -2.378906 -4.4375 -2.0625 -4.597656 -1.90625 -4.921875 C -1.8125 -5.097656 -1.765625 -5.394531 -1.765625 -5.8125 C -1.765625 -5.925781 -1.765625 -6.046875 -1.765625 -6.171875 C -1.773438 -6.296875 -1.785156 -6.441406 -1.796875 -6.609375 L 0 -6.609375 C 0.0703125 -6.347656 0.125 -6.078125 0.15625 -5.796875 C 0.195312 -5.515625 0.21875 -5.207031 0.21875 -4.875 C 0.21875 -3.8125 -0.0507812 -3.085938 -0.59375 -2.703125 C -1.144531 -2.328125 -1.859375 -2.140625 -2.734375 -2.140625 L -11.734375 -2.140625 L -11.734375 -0.296875 L -13.59375 -0.296875 L -13.59375 -2.140625 Z M -17.390625 -2.140625 "/>
</g>
<g id="glyph-3-3">
<path d="M -3.625 -3.421875 C -2.957031 -3.421875 -2.429688 -3.660156 -2.046875 -4.140625 C -1.671875 -4.628906 -1.484375 -5.203125 -1.484375 -5.859375 C -1.484375 -6.671875 -1.671875 -7.453125 -2.046875 -8.203125 C -2.660156 -9.472656 -3.671875 -10.109375 -5.078125 -10.109375 L -6.921875 -10.109375 C -6.742188 -9.828125 -6.59375 -9.460938 -6.46875 -9.015625 C -6.351562 -8.578125 -6.269531 -8.148438 -6.21875 -7.734375 L -6.046875 -6.34375 C -5.929688 -5.519531 -5.753906 -4.898438 -5.515625 -4.484375 C -5.117188 -3.773438 -4.488281 -3.421875 -3.625 -3.421875 Z M -8.234375 -8.96875 C -8.304688 -9.488281 -8.53125 -9.835938 -8.90625 -10.015625 C -9.101562 -10.117188 -9.394531 -10.171875 -9.78125 -10.171875 C -10.550781 -10.171875 -11.113281 -9.890625 -11.46875 -9.328125 C -11.820312 -8.773438 -12 -7.984375 -12 -6.953125 C -12 -5.765625 -11.675781 -4.921875 -11.03125 -4.421875 C -10.675781 -4.140625 -10.148438 -3.957031 -9.453125 -3.875 L -9.453125 -1.734375 C -11.117188 -1.773438 -12.28125 -2.316406 -12.9375 -3.359375 C -13.59375 -4.410156 -13.921875 -5.628906 -13.921875 -7.015625 C -13.921875 -8.609375 -13.617188 -9.90625 -13.015625 -10.90625 C -12.398438 -11.894531 -11.453125 -12.390625 -10.171875 -12.390625 L -2.34375 -12.390625 C -2.101562 -12.390625 -1.910156 -12.4375 -1.765625 -12.53125 C -1.617188 -12.632812 -1.546875 -12.84375 -1.546875 -13.15625 C -1.546875 -13.257812 -1.550781 -13.375 -1.5625 -13.5 C -1.582031 -13.625 -1.601562 -13.757812 -1.625 -13.90625 L 0.0625 -13.90625 C 0.164062 -13.550781 0.226562 -13.28125 0.25 -13.09375 C 0.28125 -12.90625 0.296875 -12.648438 0.296875 -12.328125 C 0.296875 -11.535156 0.0117188 -10.960938 -0.546875 -10.609375 C -0.835938 -10.421875 -1.253906 -10.289062 -1.796875 -10.21875 C -1.191406 -9.75 -0.664062 -9.078125 -0.21875 -8.203125 C 0.226562 -7.335938 0.453125 -6.378906 0.453125 -5.328125 C 0.453125 -4.066406 0.0703125 -3.035156 -0.6875 -2.234375 C -1.457031 -1.441406 -2.414062 -1.046875 -3.5625 -1.046875 C -4.820312 -1.046875 -5.800781 -1.4375 -6.5 -2.21875 C -7.195312 -3.007812 -7.625 -4.039062 -7.78125 -5.3125 Z M -13.921875 -7.078125 Z M -13.921875 -7.078125 "/>
</g>
<g id="glyph-3-4">
<path d="M -13.59375 -1.671875 L -13.59375 -3.84375 L -11.671875 -3.84375 C -12.460938 -4.488281 -13.03125 -5.171875 -13.375 -5.890625 C -13.726562 -6.609375 -13.90625 -7.410156 -13.90625 -8.296875 C -13.90625 -10.222656 -13.234375 -11.523438 -11.890625 -12.203125 C -11.148438 -12.578125 -10.09375 -12.765625 -8.71875 -12.765625 L 0 -12.765625 L 0 -10.4375 L -8.5625 -10.4375 C -9.394531 -10.4375 -10.066406 -10.3125 -10.578125 -10.0625 C -11.421875 -9.65625 -11.84375 -8.921875 -11.84375 -7.859375 C -11.84375 -7.316406 -11.789062 -6.875 -11.6875 -6.53125 C -11.5 -5.90625 -11.125 -5.351562 -10.5625 -4.875 C -10.113281 -4.488281 -9.648438 -4.238281 -9.171875 -4.125 C -8.691406 -4.019531 -8.007812 -3.96875 -7.125 -3.96875 L 0 -3.96875 L 0 -1.671875 Z M -13.921875 -7.046875 Z M -13.921875 -7.046875 "/>
</g>
<g id="glyph-3-5">
<path d="M -6.640625 -3.125 C -5.179688 -3.125 -3.960938 -3.429688 -2.984375 -4.046875 C -2.003906 -4.671875 -1.515625 -5.660156 -1.515625 -7.015625 C -1.515625 -8.078125 -1.96875 -8.945312 -2.875 -9.625 C -3.78125 -10.3125 -5.085938 -10.65625 -6.796875 -10.65625 C -8.515625 -10.65625 -9.785156 -10.300781 -10.609375 -9.59375 C -11.429688 -8.894531 -11.84375 -8.03125 -11.84375 -7 C -11.84375 -5.84375 -11.398438 -4.90625 -10.515625 -4.1875 C -9.640625 -3.476562 -8.347656 -3.125 -6.640625 -3.125 Z M -13.84375 -6.5625 C -13.84375 -7.601562 -13.617188 -8.472656 -13.171875 -9.171875 C -12.921875 -9.578125 -12.476562 -10.039062 -11.84375 -10.5625 L -18.71875 -10.5625 L -18.71875 -12.765625 L 0 -12.765625 L 0 -10.703125 L -1.890625 -10.703125 C -1.054688 -10.171875 -0.453125 -9.539062 -0.078125 -8.8125 C 0.296875 -8.082031 0.484375 -7.25 0.484375 -6.3125 C 0.484375 -4.789062 -0.148438 -3.476562 -1.421875 -2.375 C -2.703125 -1.269531 -4.398438 -0.71875 -6.515625 -0.71875 C -8.492188 -0.71875 -10.207031 -1.222656 -11.65625 -2.234375 C -13.113281 -3.242188 -13.84375 -4.6875 -13.84375 -6.5625 Z M -13.84375 -6.5625 "/>
</g>
<g id="glyph-3-6">
<path d="M -13.59375 -1.734375 L -13.59375 -3.90625 L -11.25 -3.90625 C -11.707031 -4.082031 -12.265625 -4.519531 -12.921875 -5.21875 C -13.578125 -5.914062 -13.90625 -6.71875 -13.90625 -7.625 C -13.90625 -7.664062 -13.898438 -7.734375 -13.890625 -7.828125 C -13.878906 -7.929688 -13.863281 -8.109375 -13.84375 -8.359375 L -11.421875 -8.359375 C -11.453125 -8.222656 -11.46875 -8.097656 -11.46875 -7.984375 C -11.476562 -7.867188 -11.484375 -7.742188 -11.484375 -7.609375 C -11.484375 -6.453125 -11.113281 -5.566406 -10.375 -4.953125 C -9.632812 -4.335938 -8.785156 -4.03125 -7.828125 -4.03125 L 0 -4.03125 L 0 -1.734375 Z M -13.59375 -1.734375 "/>
</g>
<g id="glyph-3-7">
</g>
<g id="glyph-3-8">
<path d="M -13.90625 -7.34375 C -13.90625 -8.300781 -13.675781 -9.234375 -13.21875 -10.140625 C -12.769531 -11.046875 -12.1875 -11.738281 -11.46875 -12.21875 C -10.78125 -12.675781 -9.976562 -12.976562 -9.0625 -13.125 C -8.4375 -13.257812 -7.4375 -13.328125 -6.0625 -13.328125 L -6.0625 -3.359375 C -4.6875 -3.398438 -3.582031 -3.722656 -2.75 -4.328125 C -1.914062 -4.941406 -1.5 -5.890625 -1.5 -7.171875 C -1.5 -8.367188 -1.890625 -9.320312 -2.671875 -10.03125 C -3.128906 -10.4375 -3.660156 -10.722656 -4.265625 -10.890625 L -4.265625 -13.140625 C -3.765625 -13.078125 -3.207031 -12.878906 -2.59375 -12.546875 C -1.976562 -12.210938 -1.476562 -11.835938 -1.09375 -11.421875 C -0.414062 -10.734375 0.0390625 -9.875 0.28125 -8.84375 C 0.414062 -8.300781 0.484375 -7.679688 0.484375 -6.984375 C 0.484375 -5.285156 -0.128906 -3.847656 -1.359375 -2.671875 C -2.597656 -1.503906 -4.320312 -0.921875 -6.53125 -0.921875 C -8.71875 -0.921875 -10.492188 -1.507812 -11.859375 -2.6875 C -13.222656 -3.875 -13.90625 -5.425781 -13.90625 -7.34375 Z M -7.890625 -10.984375 C -8.878906 -10.890625 -9.671875 -10.671875 -10.265625 -10.328125 C -11.359375 -9.703125 -11.90625 -8.660156 -11.90625 -7.203125 C -11.90625 -6.148438 -11.523438 -5.265625 -10.765625 -4.546875 C -10.015625 -3.835938 -9.054688 -3.460938 -7.890625 -3.421875 Z M -13.921875 -7.125 Z M -13.921875 -7.125 "/>
</g>
<g id="glyph-3-9">
<path d="M -13.59375 -2.796875 L -2.53125 -6.421875 L -13.59375 -10.21875 L -13.59375 -12.71875 L 0 -7.59375 L 0 -5.15625 L -13.59375 -0.140625 Z M -13.59375 -2.796875 "/>
</g>
<g id="glyph-3-10">
<path d="M -13.53125 -1.671875 L -13.53125 -4 L 0 -4 L 0 -1.671875 Z M -18.65625 -1.671875 L -18.65625 -4 L -16.0625 -4 L -16.0625 -1.671875 Z M -18.65625 -1.671875 "/>
</g>
<g id="glyph-3-11">
<path d="M -1.46875 -7.078125 C -1.46875 -8.585938 -2.039062 -9.625 -3.1875 -10.1875 C -4.332031 -10.75 -5.609375 -11.03125 -7.015625 -11.03125 C -8.285156 -11.03125 -9.320312 -10.828125 -10.125 -10.421875 C -11.375 -9.773438 -12 -8.664062 -12 -7.09375 C -12 -5.695312 -11.460938 -4.679688 -10.390625 -4.046875 C -9.328125 -3.410156 -8.039062 -3.09375 -6.53125 -3.09375 C -5.09375 -3.09375 -3.890625 -3.410156 -2.921875 -4.046875 C -1.953125 -4.679688 -1.46875 -5.691406 -1.46875 -7.078125 Z M -13.984375 -7.15625 C -13.984375 -8.90625 -13.398438 -10.382812 -12.234375 -11.59375 C -11.066406 -12.8125 -9.347656 -13.421875 -7.078125 -13.421875 C -4.890625 -13.421875 -3.078125 -12.882812 -1.640625 -11.8125 C -0.210938 -10.75 0.5 -9.097656 0.5 -6.859375 C 0.5 -4.984375 -0.128906 -3.492188 -1.390625 -2.390625 C -2.660156 -1.296875 -4.363281 -0.75 -6.5 -0.75 C -8.78125 -0.75 -10.597656 -1.328125 -11.953125 -2.484375 C -13.304688 -3.648438 -13.984375 -5.207031 -13.984375 -7.15625 Z M -13.921875 -7.078125 Z M -13.921875 -7.078125 "/>
</g>
<g id="glyph-3-12">
<path d="M -13.59375 -3.96875 L -4.578125 -3.96875 C -3.878906 -3.96875 -3.3125 -4.078125 -2.875 -4.296875 C -2.0625 -4.703125 -1.65625 -5.457031 -1.65625 -6.5625 C -1.65625 -8.15625 -2.363281 -9.238281 -3.78125 -9.8125 C -4.539062 -10.125 -5.585938 -10.28125 -6.921875 -10.28125 L -13.59375 -10.28125 L -13.59375 -12.5625 L 0 -12.5625 L 0 -10.40625 L -2 -10.4375 C -1.488281 -10.132812 -1.054688 -9.765625 -0.703125 -9.328125 C 0.0117188 -8.460938 0.375 -7.40625 0.375 -6.15625 C 0.375 -4.21875 -0.273438 -2.898438 -1.578125 -2.203125 C -2.265625 -1.816406 -3.191406 -1.625 -4.359375 -1.625 L -13.59375 -1.625 Z M -13.921875 -7.09375 Z M -13.921875 -7.09375 "/>
</g>
<g id="glyph-3-13">
<path d="M -13.59375 -1.671875 L -13.59375 -3.9375 L -11.671875 -3.9375 C -12.335938 -4.476562 -12.820312 -4.96875 -13.125 -5.40625 C -13.644531 -6.15625 -13.90625 -7.007812 -13.90625 -7.96875 C -13.90625 -9.050781 -13.640625 -9.925781 -13.109375 -10.59375 C -12.796875 -10.957031 -12.34375 -11.296875 -11.75 -11.609375 C -12.476562 -12.109375 -13.019531 -12.703125 -13.375 -13.390625 C -13.726562 -14.078125 -13.90625 -14.847656 -13.90625 -15.703125 C -13.90625 -17.535156 -13.242188 -18.78125 -11.921875 -19.4375 C -11.210938 -19.789062 -10.253906 -19.96875 -9.046875 -19.96875 L 0 -19.96875 L 0 -17.59375 L -9.453125 -17.59375 C -10.347656 -17.59375 -10.960938 -17.363281 -11.296875 -16.90625 C -11.640625 -16.457031 -11.8125 -15.910156 -11.8125 -15.265625 C -11.8125 -14.367188 -11.507812 -13.59375 -10.90625 -12.9375 C -10.3125 -12.289062 -9.3125 -11.96875 -7.90625 -11.96875 L 0 -11.96875 L 0 -9.65625 L -8.875 -9.65625 C -9.800781 -9.65625 -10.472656 -9.539062 -10.890625 -9.3125 C -11.523438 -8.96875 -11.84375 -8.320312 -11.84375 -7.375 C -11.84375 -6.507812 -11.507812 -5.722656 -10.84375 -5.015625 C -10.175781 -4.316406 -8.96875 -3.96875 -7.21875 -3.96875 L 0 -3.96875 L 0 -1.671875 Z M -13.59375 -1.671875 "/>
</g>
<g id="glyph-3-14">
<path d="M -18.71875 -1.5 L -18.71875 -3.71875 L -11.953125 -3.71875 C -12.597656 -4.21875 -13.09375 -4.8125 -13.4375 -5.5 C -13.78125 -6.195312 -13.953125 -6.953125 -13.953125 -7.765625 C -13.953125 -9.460938 -13.367188 -10.835938 -12.203125 -11.890625 C -11.046875 -12.941406 -9.332031 -13.46875 -7.0625 -13.46875 C -4.90625 -13.46875 -3.113281 -12.945312 -1.6875 -11.90625 C -0.269531 -10.863281 0.4375 -9.421875 0.4375 -7.578125 C 0.4375 -6.546875 0.183594 -5.675781 -0.3125 -4.96875 C -0.613281 -4.539062 -1.085938 -4.085938 -1.734375 -3.609375 L 0 -3.609375 L 0 -1.5 Z M -1.59375 -7.4375 C -1.59375 -8.675781 -2.082031 -9.601562 -3.0625 -10.21875 C -4.039062 -10.832031 -5.332031 -11.140625 -6.9375 -11.140625 C -8.375 -11.140625 -9.5625 -10.832031 -10.5 -10.21875 C -11.4375 -9.601562 -11.90625 -8.695312 -11.90625 -7.5 C -11.90625 -6.457031 -11.519531 -5.546875 -10.75 -4.765625 C -9.976562 -3.984375 -8.707031 -3.59375 -6.9375 -3.59375 C -5.664062 -3.59375 -4.628906 -3.753906 -3.828125 -4.078125 C -2.335938 -4.679688 -1.59375 -5.800781 -1.59375 -7.4375 Z M -1.59375 -7.4375 "/>
</g>
<g id="glyph-3-15">
<path d="M -15.671875 -2.25 C -16.617188 -2.28125 -17.3125 -2.445312 -17.75 -2.75 C -18.53125 -3.28125 -18.921875 -4.304688 -18.921875 -5.828125 C -18.921875 -5.972656 -18.914062 -6.117188 -18.90625 -6.265625 C -18.894531 -6.421875 -18.878906 -6.597656 -18.859375 -6.796875 L -16.78125 -6.796875 C -16.800781 -6.554688 -16.8125 -6.382812 -16.8125 -6.28125 C -16.820312 -6.175781 -16.828125 -6.078125 -16.828125 -5.984375 C -16.828125 -5.285156 -16.644531 -4.867188 -16.28125 -4.734375 C -15.925781 -4.597656 -15.007812 -4.53125 -13.53125 -4.53125 L -13.53125 -6.796875 L -11.734375 -6.796875 L -11.734375 -4.5 L 0 -4.5 L 0 -2.25 L -11.734375 -2.25 L -11.734375 -0.359375 L -13.53125 -0.359375 L -13.53125 -2.25 Z M -15.671875 -2.25 "/>
</g>
<g id="glyph-3-16">
<path d="M -13.984375 -6.921875 C -13.984375 -8.453125 -13.609375 -9.695312 -12.859375 -10.65625 C -12.117188 -11.613281 -10.84375 -12.191406 -9.03125 -12.390625 L -9.03125 -10.171875 C -9.863281 -10.035156 -10.554688 -9.722656 -11.109375 -9.234375 C -11.671875 -8.753906 -11.953125 -7.984375 -11.953125 -6.921875 C -11.953125 -5.460938 -11.238281 -4.421875 -9.8125 -3.796875 C -8.894531 -3.390625 -7.757812 -3.1875 -6.40625 -3.1875 C -5.039062 -3.1875 -3.890625 -3.472656 -2.953125 -4.046875 C -2.023438 -4.617188 -1.5625 -5.523438 -1.5625 -6.765625 C -1.5625 -7.710938 -1.847656 -8.460938 -2.421875 -9.015625 C -3.003906 -9.578125 -3.800781 -9.960938 -4.8125 -10.171875 L -4.8125 -12.390625 C -3.007812 -12.140625 -1.691406 -11.503906 -0.859375 -10.484375 C -0.0234375 -9.472656 0.390625 -8.175781 0.390625 -6.59375 C 0.390625 -4.8125 -0.253906 -3.390625 -1.546875 -2.328125 C -2.847656 -1.273438 -4.472656 -0.75 -6.421875 -0.75 C -8.804688 -0.75 -10.660156 -1.328125 -11.984375 -2.484375 C -13.316406 -3.648438 -13.984375 -5.128906 -13.984375 -6.921875 Z M -13.921875 -6.5625 Z M -13.921875 -6.5625 "/>
</g>
<g id="glyph-3-17">
<path d="M -10.4375 -14.40625 L -8.296875 -14.40625 L -8.296875 -1.171875 L -10.4375 -1.171875 Z M -4.984375 -14.40625 L -2.8125 -14.40625 L -2.8125 -1.171875 L -4.984375 -1.171875 Z M -4.984375 -14.40625 "/>
</g>
<g id="glyph-3-18">
<path d="M 0 -0.8125 C -1.5625 -0.894531 -2.921875 -1.21875 -4.078125 -1.78125 C -5.242188 -2.34375 -6.300781 -3.441406 -7.25 -5.078125 L -8.65625 -7.515625 C -9.289062 -8.609375 -9.832031 -9.375 -10.28125 -9.8125 C -10.988281 -10.507812 -11.796875 -10.859375 -12.703125 -10.859375 C -13.753906 -10.859375 -14.59375 -10.539062 -15.21875 -9.90625 C -15.84375 -9.269531 -16.15625 -8.421875 -16.15625 -7.359375 C -16.15625 -5.796875 -15.5625 -4.710938 -14.375 -4.109375 C -13.738281 -3.785156 -12.859375 -3.609375 -11.734375 -3.578125 L -11.734375 -1.25 C -13.316406 -1.28125 -14.609375 -1.578125 -15.609375 -2.140625 C -17.367188 -3.128906 -18.25 -4.875 -18.25 -7.375 C -18.25 -9.457031 -17.679688 -10.976562 -16.546875 -11.9375 C -15.421875 -12.894531 -14.171875 -13.375 -12.796875 -13.375 C -11.335938 -13.375 -10.09375 -12.863281 -9.0625 -11.84375 C -8.457031 -11.25 -7.726562 -10.1875 -6.875 -8.65625 L -5.921875 -6.921875 C -5.460938 -6.085938 -5.023438 -5.4375 -4.609375 -4.96875 C -3.867188 -4.113281 -3.050781 -3.578125 -2.15625 -3.359375 L -2.15625 -13.296875 L 0 -13.296875 Z M 0 -0.8125 "/>
</g>
<g id="glyph-3-19">
<path d="M -18.1875 -7.03125 C -18.1875 -9.382812 -17.210938 -11.085938 -15.265625 -12.140625 C -13.773438 -12.953125 -11.722656 -13.359375 -9.109375 -13.359375 C -6.640625 -13.359375 -4.597656 -12.988281 -2.984375 -12.25 C -0.660156 -11.1875 0.5 -9.441406 0.5 -7.015625 C 0.5 -4.835938 -0.445312 -3.210938 -2.34375 -2.140625 C -3.925781 -1.253906 -6.050781 -0.8125 -8.71875 -0.8125 C -10.78125 -0.8125 -12.554688 -1.078125 -14.046875 -1.609375 C -16.804688 -2.609375 -18.1875 -4.414062 -18.1875 -7.03125 Z M -1.59375 -7.015625 C -1.59375 -8.191406 -2.113281 -9.128906 -3.15625 -9.828125 C -4.207031 -10.535156 -6.164062 -10.890625 -9.03125 -10.890625 C -11.09375 -10.890625 -12.789062 -10.632812 -14.125 -10.125 C -15.457031 -9.625 -16.125 -8.640625 -16.125 -7.171875 C -16.125 -5.828125 -15.488281 -4.84375 -14.21875 -4.21875 C -12.957031 -3.59375 -11.097656 -3.28125 -8.640625 -3.28125 C -6.785156 -3.28125 -5.296875 -3.484375 -4.171875 -3.890625 C -2.453125 -4.492188 -1.59375 -5.535156 -1.59375 -7.015625 Z M -1.59375 -7.015625 "/>
</g>
</g>
<clipPath id="clip-0">
<path clip-rule="nonzero" d="M 86.082031 12.953125 L 707.046875 12.953125 L 707.046875 607.917969 L 86.082031 607.917969 Z M 86.082031 12.953125 "/>
</clipPath>
<clipPath id="clip-1">
<path clip-rule="nonzero" d="M 86.082031 552 L 707.046875 552 L 707.046875 554 L 86.082031 554 Z M 86.082031 552 "/>
</clipPath>
<clipPath id="clip-2">
<path clip-rule="nonzero" d="M 86.082031 423 L 707.046875 423 L 707.046875 425 L 86.082031 425 Z M 86.082031 423 "/>
</clipPath>
<clipPath id="clip-3">
<path clip-rule="nonzero" d="M 86.082031 293 L 707.046875 293 L 707.046875 296 L 86.082031 296 Z M 86.082031 293 "/>
</clipPath>
<clipPath id="clip-4">
<path clip-rule="nonzero" d="M 86.082031 164 L 707.046875 164 L 707.046875 167 L 86.082031 167 Z M 86.082031 164 "/>
</clipPath>
<clipPath id="clip-5">
<path clip-rule="nonzero" d="M 86.082031 35 L 707.046875 35 L 707.046875 38 L 86.082031 38 Z M 86.082031 35 "/>
</clipPath>
<clipPath id="clip-6">
<path clip-rule="nonzero" d="M 183 12.953125 L 186 12.953125 L 186 607.917969 L 183 607.917969 Z M 183 12.953125 "/>
</clipPath>
<clipPath id="clip-7">
<path clip-rule="nonzero" d="M 325 12.953125 L 327 12.953125 L 327 607.917969 L 325 607.917969 Z M 325 12.953125 "/>
</clipPath>
<clipPath id="clip-8">
<path clip-rule="nonzero" d="M 466 12.953125 L 468 12.953125 L 468 607.917969 L 466 607.917969 Z M 466 12.953125 "/>
</clipPath>
<clipPath id="clip-9">
<path clip-rule="nonzero" d="M 608 12.953125 L 610 12.953125 L 610 607.917969 L 608 607.917969 Z M 608 12.953125 "/>
</clipPath>
<clipPath id="clip-10">
<path clip-rule="nonzero" d="M 86.082031 487 L 707.046875 487 L 707.046875 490 L 86.082031 490 Z M 86.082031 487 "/>
</clipPath>
<clipPath id="clip-11">
<path clip-rule="nonzero" d="M 86.082031 357 L 707.046875 357 L 707.046875 361 L 86.082031 361 Z M 86.082031 357 "/>
</clipPath>
<clipPath id="clip-12">
<path clip-rule="nonzero" d="M 86.082031 228 L 707.046875 228 L 707.046875 232 L 86.082031 232 Z M 86.082031 228 "/>
</clipPath>
<clipPath id="clip-13">
<path clip-rule="nonzero" d="M 86.082031 99 L 707.046875 99 L 707.046875 103 L 86.082031 103 Z M 86.082031 99 "/>
</clipPath>
<clipPath id="clip-14">
<path clip-rule="nonzero" d="M 112 12.953125 L 116 12.953125 L 116 607.917969 L 112 607.917969 Z M 112 12.953125 "/>
</clipPath>
<clipPath id="clip-15">
<path clip-rule="nonzero" d="M 253 12.953125 L 257 12.953125 L 257 607.917969 L 253 607.917969 Z M 253 12.953125 "/>
</clipPath>
<clipPath id="clip-16">
<path clip-rule="nonzero" d="M 395 12.953125 L 398 12.953125 L 398 607.917969 L 395 607.917969 Z M 395 12.953125 "/>
</clipPath>
<clipPath id="clip-17">
<path clip-rule="nonzero" d="M 536 12.953125 L 540 12.953125 L 540 607.917969 L 536 607.917969 Z M 536 12.953125 "/>
</clipPath>
<clipPath id="clip-18">
<path clip-rule="nonzero" d="M 678 12.953125 L 681 12.953125 L 681 607.917969 L 678 607.917969 Z M 678 12.953125 "/>
</clipPath>
<clipPath id="clip-19">
<path clip-rule="nonzero" d="M 206 12.953125 L 210 12.953125 L 210 607.917969 L 206 607.917969 Z M 206 12.953125 "/>
</clipPath>
<clipPath id="clip-20">
<path clip-rule="nonzero" d="M 86.082031 12.953125 L 707.046875 12.953125 L 707.046875 607.917969 L 86.082031 607.917969 Z M 86.082031 12.953125 "/>
</clipPath>
</defs>
<rect x="-72" y="-68.4" width="864" height="820.8" fill="rgb(100%, 100%, 100%)" fill-opacity="1"/>
<rect x="-72" y="-68.4" width="864" height="820.8" fill="rgb(100%, 100%, 100%)" fill-opacity="1"/>
<path fill="none" stroke-width="2.521949" stroke-linecap="round" stroke-linejoin="round" stroke="rgb(100%, 100%, 100%)" stroke-opacity="1" stroke-miterlimit="10" d="M 0 684 L 720 684 L 720 0 L 0 0 Z M 0 684 "/>
<g clip-path="url(#clip-0)">
<path fill-rule="nonzero" fill="rgb(100%, 100%, 100%)" fill-opacity="1" d="M 86.082031 607.917969 L 707.046875 607.917969 L 707.046875 12.953125 L 86.082031 12.953125 Z M 86.082031 607.917969 "/>
</g>
<g clip-path="url(#clip-1)">
<path fill="none" stroke-width="1.260974" stroke-linecap="butt" stroke-linejoin="round" stroke="rgb(92.156863%, 92.156863%, 92.156863%)" stroke-opacity="1" stroke-miterlimit="10" d="M 86.082031 552.816406 L 707.046875 552.816406 "/>
</g>
<g clip-path="url(#clip-2)">
<path fill="none" stroke-width="1.260974" stroke-linecap="butt" stroke-linejoin="round" stroke="rgb(92.156863%, 92.156863%, 92.156863%)" stroke-opacity="1" stroke-miterlimit="10" d="M 86.082031 423.714844 L 707.046875 423.714844 "/>
</g>
<g clip-path="url(#clip-3)">
<path fill="none" stroke-width="1.260974" stroke-linecap="butt" stroke-linejoin="round" stroke="rgb(92.156863%, 92.156863%, 92.156863%)" stroke-opacity="1" stroke-miterlimit="10" d="M 86.082031 294.609375 L 707.046875 294.609375 "/>
</g>
<g clip-path="url(#clip-4)">
<path fill="none" stroke-width="1.260974" stroke-linecap="butt" stroke-linejoin="round" stroke="rgb(92.156863%, 92.156863%, 92.156863%)" stroke-opacity="1" stroke-miterlimit="10" d="M 86.082031 165.503906 L 707.046875 165.503906 "/>
</g>
<g clip-path="url(#clip-5)">
<path fill="none" stroke-width="1.260974" stroke-linecap="butt" stroke-linejoin="round" stroke="rgb(92.156863%, 92.156863%, 92.156863%)" stroke-opacity="1" stroke-miterlimit="10" d="M 86.082031 36.398438 L 707.046875 36.398438 "/>
</g>
<g clip-path="url(#clip-6)">
<path fill="none" stroke-width="1.260974" stroke-linecap="butt" stroke-linejoin="round" stroke="rgb(92.156863%, 92.156863%, 92.156863%)" stroke-opacity="1" stroke-miterlimit="10" d="M 184.449219 607.917969 L 184.449219 12.953125 "/>
</g>
<g clip-path="url(#clip-7)">
<path fill="none" stroke-width="1.260974" stroke-linecap="butt" stroke-linejoin="round" stroke="rgb(92.156863%, 92.156863%, 92.156863%)" stroke-opacity="1" stroke-miterlimit="10" d="M 325.859375 607.917969 L 325.859375 12.953125 "/>
</g>
<g clip-path="url(#clip-8)">
<path fill="none" stroke-width="1.260974" stroke-linecap="butt" stroke-linejoin="round" stroke="rgb(92.156863%, 92.156863%, 92.156863%)" stroke-opacity="1" stroke-miterlimit="10" d="M 467.273438 607.917969 L 467.273438 12.953125 "/>
</g>
<g clip-path="url(#clip-9)">
<path fill="none" stroke-width="1.260974" stroke-linecap="butt" stroke-linejoin="round" stroke="rgb(92.156863%, 92.156863%, 92.156863%)" stroke-opacity="1" stroke-miterlimit="10" d="M 608.683594 607.917969 L 608.683594 12.953125 "/>
</g>
<g clip-path="url(#clip-10)">
<path fill="none" stroke-width="2.521949" stroke-linecap="butt" stroke-linejoin="round" stroke="rgb(92.156863%, 92.156863%, 92.156863%)" stroke-opacity="1" stroke-miterlimit="10" d="M 86.082031 488.265625 L 707.046875 488.265625 "/>
</g>
<g clip-path="url(#clip-11)">
<path fill="none" stroke-width="2.521949" stroke-linecap="butt" stroke-linejoin="round" stroke="rgb(92.156863%, 92.156863%, 92.156863%)" stroke-opacity="1" stroke-miterlimit="10" d="M 86.082031 359.160156 L 707.046875 359.160156 "/>
</g>
<g clip-path="url(#clip-12)">
<path fill="none" stroke-width="2.521949" stroke-linecap="butt" stroke-linejoin="round" stroke="rgb(92.156863%, 92.156863%, 92.156863%)" stroke-opacity="1" stroke-miterlimit="10" d="M 86.082031 230.054688 L 707.046875 230.054688 "/>
</g>
<g clip-path="url(#clip-13)">
<path fill="none" stroke-width="2.521949" stroke-linecap="butt" stroke-linejoin="round" stroke="rgb(92.156863%, 92.156863%, 92.156863%)" stroke-opacity="1" stroke-miterlimit="10" d="M 86.082031 100.949219 L 707.046875 100.949219 "/>
</g>
<g clip-path="url(#clip-14)">
<path fill="none" stroke-width="2.521949" stroke-linecap="butt" stroke-linejoin="round" stroke="rgb(92.156863%, 92.156863%, 92.156863%)" stroke-opacity="1" stroke-miterlimit="10" d="M 113.742188 607.917969 L 113.742188 12.953125 "/>
</g>
<g clip-path="url(#clip-15)">
<path fill="none" stroke-width="2.521949" stroke-linecap="butt" stroke-linejoin="round" stroke="rgb(92.156863%, 92.156863%, 92.156863%)" stroke-opacity="1" stroke-miterlimit="10" d="M 255.15625 607.917969 L 255.15625 12.953125 "/>
</g>
<g clip-path="url(#clip-16)">
<path fill="none" stroke-width="2.521949" stroke-linecap="butt" stroke-linejoin="round" stroke="rgb(92.156863%, 92.156863%, 92.156863%)" stroke-opacity="1" stroke-miterlimit="10" d="M 396.566406 607.917969 L 396.566406 12.953125 "/>
</g>
<g clip-path="url(#clip-17)">
<path fill="none" stroke-width="2.521949" stroke-linecap="butt" stroke-linejoin="round" stroke="rgb(92.156863%, 92.156863%, 92.156863%)" stroke-opacity="1" stroke-miterlimit="10" d="M 537.976562 607.917969 L 537.976562 12.953125 "/>
</g>
<g clip-path="url(#clip-18)">
<path fill="none" stroke-width="2.521949" stroke-linecap="butt" stroke-linejoin="round" stroke="rgb(92.156863%, 92.156863%, 92.156863%)" stroke-opacity="1" stroke-miterlimit="10" d="M 679.386719 607.917969 L 679.386719 12.953125 "/>
</g>
<path fill="none" stroke-width="2.521949" stroke-linecap="butt" stroke-linejoin="round" stroke="rgb(0%, 0%, 0%)" stroke-opacity="1" stroke-miterlimit="10" d="M 114.308594 580.871094 L 114.875 565.78125 L 115.441406 554.21875 L 116.007812 544.484375 L 116.570312 535.921875 L 117.136719 528.191406 L 117.703125 521.097656 L 118.269531 514.5 L 118.835938 508.316406 L 119.398438 502.472656 L 119.964844 496.925781 L 120.53125 491.636719 L 121.097656 486.566406 L 121.664062 481.699219 L 122.226562 477.007812 L 122.792969 472.476562 L 123.359375 468.09375 L 123.925781 463.84375 L 124.492188 459.71875 L 125.054688 455.707031 L 125.621094 451.796875 L 126.1875 447.988281 L 126.753906 444.269531 L 127.320312 440.636719 L 127.882812 437.085938 L 128.449219 433.609375 L 129.015625 430.203125 L 129.582031 426.867188 L 130.148438 423.597656 L 130.710938 420.386719 L 131.277344 417.230469 L 131.84375 414.132812 L 132.410156 411.089844 L 132.976562 408.097656 L 133.542969 405.152344 L 134.105469 402.253906 L 134.671875 399.398438 L 135.238281 396.585938 L 135.804688 393.816406 L 136.371094 391.085938 L 136.933594 388.394531 L 137.5 385.742188 L 138.066406 383.121094 L 138.632812 380.535156 L 139.199219 377.984375 L 139.761719 375.46875 L 140.328125 372.980469 L 140.894531 370.523438 L 141.460938 368.097656 L 142.027344 365.699219 L 142.589844 363.328125 L 143.15625 360.984375 L 143.722656 358.667969 L 144.289062 356.375 L 144.855469 354.109375 L 145.417969 351.867188 L 145.984375 349.648438 L 146.550781 347.457031 L 147.117188 345.28125 L 147.683594 343.132812 L 148.246094 341.003906 L 148.8125 338.894531 L 149.378906 336.808594 L 149.945312 334.742188 L 150.511719 332.695312 L 151.074219 330.667969 L 151.640625 328.65625 L 152.207031 326.667969 L 152.773438 324.695312 L 153.339844 322.738281 L 153.902344 320.800781 L 154.46875 318.882812 L 155.035156 316.976562 L 155.601562 315.089844 L 156.167969 313.21875 L 156.734375 311.363281 L 157.296875 309.523438 L 157.863281 307.699219 L 158.429688 305.890625 L 158.996094 304.09375 L 159.5625 302.3125 L 160.125 300.546875 L 160.691406 298.796875 L 161.257812 297.058594 L 161.824219 295.332031 L 162.390625 293.621094 L 162.953125 291.921875 L 163.519531 290.234375 L 164.085938 288.5625 L 164.652344 286.902344 L 165.21875 285.253906 L 165.78125 283.617188 L 166.347656 281.992188 L 166.914062 280.382812 L 167.480469 278.78125 L 168.046875 277.191406 L 168.609375 275.613281 L 169.175781 274.046875 L 169.742188 272.492188 L 170.308594 270.945312 L 170.875 269.410156 L 171.4375 267.886719 L 172.003906 266.375 L 172.570312 264.871094 L 173.136719 263.378906 L 173.703125 261.894531 L 174.265625 260.421875 L 174.832031 258.957031 L 175.398438 257.503906 L 175.964844 256.0625 L 176.53125 254.625 L 177.097656 253.199219 L 177.660156 251.785156 L 178.226562 250.378906 L 178.792969 248.980469 L 179.359375 247.589844 L 179.925781 246.210938 L 180.488281 244.839844 L 181.054688 243.476562 L 181.621094 242.121094 L 182.1875 240.773438 L 182.753906 239.4375 L 183.316406 238.109375 L 183.882812 236.785156 L 184.449219 235.472656 L 185.015625 234.167969 L 185.582031 232.871094 L 186.144531 231.582031 L 186.710938 230.296875 L 187.277344 229.023438 L 187.84375 227.757812 L 188.410156 226.5 L 188.972656 225.246094 L 189.539062 224.003906 L 190.105469 222.765625 L 190.671875 221.535156 L 191.238281 220.3125 L 191.800781 219.097656 L 192.367188 217.890625 L 192.933594 216.6875 L 193.5 215.492188 L 194.066406 214.304688 L 194.628906 213.125 L 195.195312 211.949219 L 195.761719 210.78125 L 196.328125 209.621094 L 196.894531 208.464844 L 197.457031 207.320312 L 198.023438 206.175781 L 198.589844 205.042969 L 199.15625 203.914062 L 199.722656 202.792969 L 200.289062 201.675781 L 200.851562 200.566406 L 201.417969 199.460938 L 201.984375 198.363281 L 202.550781 197.273438 L 203.117188 196.1875 L 203.679688 195.105469 L 204.246094 194.03125 L 204.8125 192.964844 L 205.378906 191.902344 L 205.945312 190.84375 L 206.507812 189.792969 L 207.074219 188.75 L 207.640625 187.710938 L 208.207031 186.675781 L 208.773438 185.648438 L 209.335938 184.625 L 209.902344 183.609375 L 210.46875 182.597656 L 211.035156 181.589844 L 211.601562 180.589844 L 212.164062 179.59375 L 212.730469 178.601562 L 213.296875 177.617188 L 213.863281 176.636719 L 214.429688 175.664062 L 214.992188 174.695312 L 215.558594 173.730469 L 216.125 172.769531 L 216.691406 171.816406 L 217.257812 170.867188 L 217.820312 169.921875 L 218.386719 168.984375 L 218.953125 168.050781 L 219.519531 167.121094 L 220.085938 166.195312 L 220.652344 165.277344 L 221.214844 164.359375 L 221.78125 163.449219 L 222.914062 161.644531 L 223.480469 160.75 L 224.042969 159.859375 L 224.609375 158.972656 L 225.175781 158.089844 L 225.742188 157.210938 L 226.308594 156.339844 L 226.871094 155.46875 L 227.4375 154.605469 L 228.003906 153.746094 L 228.570312 152.890625 L 229.136719 152.042969 L 229.699219 151.195312 L 230.832031 149.515625 L 231.398438 148.683594 L 231.964844 147.855469 L 232.527344 147.03125 L 233.09375 146.210938 L 233.660156 145.394531 L 234.226562 144.582031 L 234.792969 143.777344 L 235.355469 142.972656 L 236.488281 141.378906 L 237.621094 139.800781 L 238.183594 139.019531 L 239.316406 137.464844 L 239.882812 136.695312 L 240.449219 135.929688 L 241.011719 135.167969 L 242.144531 133.652344 L 242.710938 132.902344 L 243.277344 132.15625 L 243.84375 131.414062 L 244.40625 130.675781 L 245.539062 129.207031 L 246.105469 128.480469 L 246.671875 127.757812 L 247.234375 127.039062 L 247.800781 126.320312 L 248.367188 125.609375 L 249.5 124.195312 L 250.0625 123.496094 L 250.628906 122.796875 L 251.761719 121.414062 L 252.328125 120.726562 L 252.890625 120.042969 L 253.457031 119.363281 L 254.023438 118.691406 L 254.589844 118.015625 L 255.15625 117.347656 L 255.71875 116.683594 L 256.851562 115.363281 L 257.984375 114.058594 L 258.546875 113.414062 L 259.113281 112.769531 L 259.679688 112.128906 L 260.246094 111.492188 L 260.8125 110.859375 L 261.375 110.226562 L 262.507812 108.976562 L 263.074219 108.355469 L 263.640625 107.742188 L 264.203125 107.128906 L 265.335938 105.910156 L 266.46875 104.707031 L 267.035156 104.113281 L 267.597656 103.519531 L 268.730469 102.339844 L 269.296875 101.757812 L 269.863281 101.179688 L 270.425781 100.601562 L 270.992188 100.027344 L 271.558594 99.457031 L 273.253906 97.761719 L 274.953125 96.097656 L 275.519531 95.550781 L 276.082031 95.003906 L 277.78125 93.386719 L 278.347656 92.855469 L 278.910156 92.324219 L 280.609375 90.753906 L 281.175781 90.238281 L 281.738281 89.722656 L 282.304688 89.210938 L 282.871094 88.703125 L 284.003906 87.695312 L 284.566406 87.195312 L 285.132812 86.699219 L 286.265625 85.714844 L 286.832031 85.226562 L 287.398438 84.742188 L 287.960938 84.261719 L 288.527344 83.78125 L 289.09375 83.304688 L 289.660156 82.832031 L 290.226562 82.363281 L 290.789062 81.894531 L 291.355469 81.433594 L 291.921875 80.96875 L 293.054688 80.054688 L 293.617188 79.605469 L 294.183594 79.152344 L 295.316406 78.261719 L 295.882812 77.820312 L 296.445312 77.382812 L 297.578125 76.515625 L 298.710938 75.65625 L 299.273438 75.234375 L 300.40625 74.390625 L 301.539062 73.5625 L 302.101562 73.152344 L 303.234375 72.339844 L 303.800781 71.9375 L 304.367188 71.539062 L 304.929688 71.140625 L 305.496094 70.746094 L 306.628906 69.964844 L 307.195312 69.582031 L 307.757812 69.195312 L 308.890625 68.4375 L 309.457031 68.0625 L 310.589844 67.320312 L 311.152344 66.953125 L 312.285156 66.226562 L 312.851562 65.867188 L 313.417969 65.511719 L 313.980469 65.160156 L 315.113281 64.457031 L 316.246094 63.769531 L 316.808594 63.429688 L 317.375 63.089844 L 317.941406 62.753906 L 319.074219 62.089844 L 319.636719 61.765625 L 320.203125 61.4375 L 321.335938 60.796875 L 321.902344 60.480469 L 322.464844 60.164062 L 323.03125 59.851562 L 324.164062 59.234375 L 324.730469 58.929688 L 325.292969 58.628906 L 325.859375 58.328125 L 326.425781 58.03125 L 327.558594 57.445312 L 328.121094 57.15625 L 329.253906 56.585938 L 330.386719 56.023438 L 330.953125 55.75 L 331.515625 55.472656 L 332.648438 54.933594 L 333.78125 54.402344 L 334.34375 54.140625 L 335.476562 53.625 L 336.042969 53.371094 L 336.609375 53.121094 L 337.171875 52.871094 L 338.304688 52.378906 L 338.871094 52.136719 L 339.4375 51.898438 L 340 51.660156 L 340.566406 51.425781 L 341.699219 50.964844 L 342.265625 50.738281 L 342.828125 50.511719 L 343.394531 50.289062 L 344.527344 49.851562 L 345.09375 49.636719 L 345.65625 49.425781 L 346.222656 49.214844 L 346.789062 49.007812 L 347.921875 48.601562 L 348.484375 48.398438 L 350.183594 47.8125 L 350.75 47.621094 L 351.3125 47.433594 L 351.878906 47.246094 L 352.445312 47.0625 L 353.578125 46.703125 L 354.144531 46.527344 L 354.707031 46.355469 L 355.839844 46.011719 L 356.40625 45.847656 L 356.972656 45.679688 L 357.535156 45.519531 L 358.101562 45.359375 L 359.234375 45.046875 L 359.800781 44.894531 L 360.363281 44.746094 L 360.929688 44.597656 L 362.0625 44.308594 L 362.628906 44.167969 L 363.191406 44.027344 L 363.757812 43.894531 L 364.324219 43.757812 L 365.457031 43.5 L 366.019531 43.371094 L 366.585938 43.25 L 367.152344 43.125 L 368.285156 42.890625 L 368.847656 42.773438 L 369.414062 42.660156 L 369.980469 42.550781 L 371.113281 42.339844 L 371.675781 42.234375 L 372.242188 42.132812 L 372.808594 42.035156 L 373.941406 41.847656 L 374.503906 41.753906 L 375.070312 41.664062 L 376.203125 41.492188 L 376.769531 41.410156 L 377.335938 41.332031 L 377.898438 41.253906 L 379.03125 41.105469 L 379.597656 41.035156 L 380.164062 40.96875 L 380.726562 40.902344 L 381.292969 40.835938 L 382.992188 40.660156 L 383.554688 40.605469 L 384.6875 40.503906 L 385.253906 40.457031 L 385.820312 40.414062 L 386.382812 40.371094 L 386.949219 40.328125 L 387.515625 40.289062 L 388.082031 40.253906 L 388.648438 40.222656 L 389.210938 40.191406 L 389.777344 40.160156 L 390.34375 40.136719 L 390.910156 40.109375 L 391.476562 40.089844 L 392.039062 40.070312 L 392.605469 40.050781 L 393.171875 40.035156 L 393.738281 40.023438 L 394.304688 40.015625 L 394.867188 40.003906 L 396 39.996094 L 397.132812 39.996094 L 397.699219 40 L 398.261719 40.003906 L 398.828125 40.015625 L 399.394531 40.023438 L 399.960938 40.035156 L 400.527344 40.050781 L 401.089844 40.070312 L 402.222656 40.109375 L 402.789062 40.136719 L 403.355469 40.160156 L 403.917969 40.191406 L 405.050781 40.253906 L 405.617188 40.289062 L 406.183594 40.328125 L 406.746094 40.371094 L 407.878906 40.457031 L 408.445312 40.503906 L 409.011719 40.554688 L 409.574219 40.605469 L 410.140625 40.660156 L 411.839844 40.835938 L 412.402344 40.902344 L 413.535156 41.035156 L 414.101562 41.105469 L 414.667969 41.179688 L 415.230469 41.253906 L 416.363281 41.410156 L 416.929688 41.492188 L 417.496094 41.578125 L 418.058594 41.664062 L 418.625 41.753906 L 420.324219 42.035156 L 420.890625 42.132812 L 421.453125 42.234375 L 423.152344 42.550781 L 423.71875 42.660156 L 424.28125 42.773438 L 425.980469 43.125 L 426.546875 43.25 L 427.109375 43.371094 L 428.808594 43.757812 L 429.375 43.894531 L 429.9375 44.027344 L 431.070312 44.308594 L 432.203125 44.597656 L 432.765625 44.746094 L 433.332031 44.894531 L 433.898438 45.046875 L 435.03125 45.359375 L 435.59375 45.519531 L 436.160156 45.679688 L 436.726562 45.847656 L 437.292969 46.011719 L 437.859375 46.183594 L 438.421875 46.355469 L 438.988281 46.527344 L 439.554688 46.703125 L 440.6875 47.0625 L 441.253906 47.246094 L 441.816406 47.433594 L 442.382812 47.621094 L 442.949219 47.8125 L 444.082031 48.203125 L 444.644531 48.398438 L 446.34375 49.007812 L 446.910156 49.214844 L 447.472656 49.425781 L 448.039062 49.636719 L 448.605469 49.851562 L 449.738281 50.289062 L 450.300781 50.511719 L 451.433594 50.964844 L 452.566406 51.425781 L 453.128906 51.660156 L 454.261719 52.136719 L 454.828125 52.378906 L 455.394531 52.625 L 455.957031 52.871094 L 457.089844 53.371094 L 457.65625 53.625 L 458.222656 53.882812 L 458.785156 54.140625 L 459.351562 54.402344 L 460.484375 54.933594 L 461.050781 55.203125 L 461.613281 55.472656 L 462.179688 55.75 L 462.746094 56.023438 L 463.878906 56.585938 L 464.445312 56.871094 L 465.007812 57.15625 L 465.574219 57.445312 L 466.707031 58.03125 L 467.273438 58.328125 L 467.835938 58.628906 L 468.402344 58.929688 L 468.96875 59.234375 L 470.101562 59.851562 L 470.664062 60.164062 L 471.796875 60.796875 L 472.929688 61.4375 L 473.492188 61.765625 L 474.058594 62.089844 L 475.191406 62.753906 L 475.757812 63.089844 L 476.320312 63.429688 L 476.886719 63.769531 L 478.019531 64.457031 L 478.585938 64.808594 L 479.148438 65.160156 L 479.714844 65.511719 L 480.28125 65.867188 L 480.847656 66.226562 L 481.414062 66.589844 L 481.976562 66.953125 L 482.542969 67.320312 L 483.675781 68.0625 L 484.242188 68.4375 L 484.804688 68.816406 L 485.371094 69.195312 L 485.9375 69.582031 L 486.503906 69.964844 L 487.636719 70.746094 L 488.199219 71.140625 L 489.332031 71.9375 L 489.898438 72.339844 L 490.464844 72.746094 L 491.027344 73.152344 L 491.59375 73.5625 L 492.726562 74.390625 L 493.292969 74.8125 L 493.855469 75.234375 L 494.421875 75.65625 L 495.554688 76.515625 L 496.121094 76.949219 L 496.683594 77.382812 L 497.25 77.820312 L 497.816406 78.261719 L 498.949219 79.152344 L 499.511719 79.605469 L 500.078125 80.054688 L 501.210938 80.96875 L 501.777344 81.433594 L 502.339844 81.894531 L 503.472656 82.832031 L 504.039062 83.304688 L 504.605469 83.78125 L 505.167969 84.261719 L 505.734375 84.742188 L 506.300781 85.226562 L 506.867188 85.714844 L 508 86.699219 L 508.5625 87.195312 L 509.128906 87.695312 L 510.261719 88.703125 L 510.828125 89.210938 L 511.390625 89.722656 L 512.523438 90.753906 L 513.65625 91.800781 L 514.21875 92.324219 L 515.351562 93.386719 L 516.484375 94.464844 L 517.046875 95.003906 L 518.179688 96.097656 L 519.3125 97.207031 L 519.875 97.761719 L 520.441406 98.324219 L 521.574219 99.457031 L 522.140625 100.027344 L 522.703125 100.601562 L 523.835938 101.757812 L 524.402344 102.339844 L 524.96875 102.929688 L 525.53125 103.519531 L 526.664062 104.707031 L 527.796875 105.910156 L 528.359375 106.519531 L 528.925781 107.128906 L 530.058594 108.355469 L 530.625 108.976562 L 531.191406 109.601562 L 531.753906 110.226562 L 532.886719 111.492188 L 533.453125 112.128906 L 534.019531 112.769531 L 534.582031 113.414062 L 535.148438 114.058594 L 536.28125 115.363281 L 536.847656 116.023438 L 537.410156 116.683594 L 537.976562 117.347656 L 538.542969 118.015625 L 539.109375 118.691406 L 539.675781 119.363281 L 540.238281 120.042969 L 540.804688 120.726562 L 541.371094 121.414062 L 542.503906 122.796875 L 543.066406 123.496094 L 543.632812 124.195312 L 544.765625 125.609375 L 545.332031 126.320312 L 545.894531 127.039062 L 546.460938 127.757812 L 547.027344 128.480469 L 547.59375 129.207031 L 548.160156 129.941406 L 548.722656 130.675781 L 549.289062 131.414062 L 549.855469 132.15625 L 550.421875 132.902344 L 550.988281 133.652344 L 551.554688 134.410156 L 552.117188 135.167969 L 552.683594 135.929688 L 553.25 136.695312 L 553.816406 137.464844 L 554.382812 138.242188 L 554.945312 139.019531 L 555.511719 139.800781 L 556.644531 141.378906 L 557.210938 142.175781 L 557.773438 142.972656 L 558.90625 144.582031 L 559.472656 145.394531 L 560.039062 146.210938 L 560.601562 147.03125 L 561.167969 147.855469 L 561.734375 148.683594 L 562.300781 149.515625 L 562.867188 150.355469 L 563.429688 151.195312 L 564.5625 152.890625 L 565.128906 153.746094 L 565.695312 154.605469 L 566.257812 155.46875 L 567.390625 157.210938 L 567.957031 158.089844 L 568.523438 158.972656 L 569.085938 159.859375 L 569.652344 160.75 L 570.21875 161.644531 L 571.351562 163.449219 L 571.914062 164.359375 L 573.046875 166.195312 L 573.613281 167.121094 L 574.179688 168.050781 L 574.746094 168.984375 L 575.308594 169.921875 L 575.875 170.867188 L 576.441406 171.816406 L 577.007812 172.769531 L 577.574219 173.730469 L 578.136719 174.695312 L 578.703125 175.664062 L 579.269531 176.636719 L 579.835938 177.617188 L 580.402344 178.601562 L 580.964844 179.59375 L 581.53125 180.589844 L 582.097656 181.589844 L 582.664062 182.597656 L 583.230469 183.609375 L 583.792969 184.625 L 584.359375 185.648438 L 584.925781 186.675781 L 585.492188 187.710938 L 586.058594 188.75 L 586.621094 189.792969 L 587.1875 190.84375 L 587.753906 191.902344 L 588.320312 192.964844 L 588.886719 194.03125 L 589.449219 195.105469 L 590.015625 196.1875 L 590.582031 197.273438 L 591.148438 198.363281 L 591.714844 199.460938 L 592.277344 200.566406 L 592.84375 201.675781 L 593.410156 202.792969 L 593.976562 203.914062 L 594.542969 205.042969 L 595.105469 206.175781 L 596.238281 208.464844 L 596.804688 209.621094 L 597.371094 210.78125 L 597.9375 211.949219 L 598.5 213.125 L 599.066406 214.304688 L 599.632812 215.492188 L 600.199219 216.6875 L 600.765625 217.890625 L 601.328125 219.097656 L 601.894531 220.3125 L 602.460938 221.535156 L 603.027344 222.765625 L 603.59375 224.003906 L 604.15625 225.246094 L 604.722656 226.5 L 605.289062 227.757812 L 605.855469 229.023438 L 606.421875 230.296875 L 606.984375 231.582031 L 607.550781 232.871094 L 608.117188 234.167969 L 608.683594 235.472656 L 609.25 236.785156 L 609.8125 238.109375 L 610.378906 239.4375 L 610.945312 240.773438 L 611.511719 242.121094 L 612.078125 243.476562 L 612.640625 244.839844 L 613.207031 246.210938 L 613.773438 247.589844 L 614.339844 248.980469 L 614.90625 250.378906 L 615.46875 251.785156 L 616.035156 253.199219 L 616.601562 254.625 L 617.167969 256.0625 L 617.734375 257.503906 L 618.300781 258.957031 L 618.863281 260.421875 L 619.429688 261.894531 L 619.996094 263.378906 L 620.5625 264.871094 L 621.128906 266.375 L 621.691406 267.886719 L 622.257812 269.410156 L 622.824219 270.945312 L 623.390625 272.492188 L 623.957031 274.046875 L 624.519531 275.613281 L 625.085938 277.191406 L 625.652344 278.78125 L 626.21875 280.382812 L 626.785156 281.992188 L 627.347656 283.617188 L 627.914062 285.253906 L 628.480469 286.902344 L 629.046875 288.5625 L 629.613281 290.234375 L 630.742188 293.621094 L 631.308594 295.332031 L 631.875 297.058594 L 632.441406 298.796875 L 633.003906 300.546875 L 633.570312 302.3125 L 634.136719 304.09375 L 634.703125 305.890625 L 635.269531 307.699219 L 635.832031 309.523438 L 636.398438 311.363281 L 636.964844 313.21875 L 637.53125 315.089844 L 638.097656 316.976562 L 638.660156 318.882812 L 639.226562 320.800781 L 639.792969 322.738281 L 640.359375 324.695312 L 640.925781 326.667969 L 641.492188 328.65625 L 642.054688 330.667969 L 642.621094 332.695312 L 643.1875 334.742188 L 643.753906 336.808594 L 644.320312 338.894531 L 644.882812 341.003906 L 645.449219 343.132812 L 646.015625 345.28125 L 646.582031 347.457031 L 647.148438 349.648438 L 647.710938 351.867188 L 648.277344 354.109375 L 648.84375 356.375 L 649.410156 358.667969 L 649.976562 360.984375 L 650.539062 363.328125 L 651.105469 365.699219 L 651.671875 368.097656 L 652.238281 370.523438 L 652.804688 372.980469 L 653.367188 375.46875 L 653.933594 377.984375 L 654.5 380.535156 L 655.066406 383.121094 L 655.632812 385.742188 L 656.195312 388.394531 L 656.761719 391.085938 L 657.328125 393.816406 L 657.894531 396.585938 L 658.460938 399.398438 L 659.023438 402.253906 L 659.589844 405.152344 L 660.15625 408.097656 L 660.722656 411.089844 L 661.289062 414.132812 L 661.855469 417.230469 L 662.417969 420.386719 L 662.984375 423.597656 L 663.550781 426.867188 L 664.117188 430.203125 L 664.683594 433.609375 L 665.246094 437.085938 L 665.8125 440.636719 L 666.378906 444.269531 L 666.945312 447.988281 L 667.511719 451.796875 L 668.074219 455.707031 L 668.640625 459.71875 L 669.207031 463.84375 L 669.773438 468.09375 L 670.339844 472.476562 L 670.902344 477.007812 L 671.46875 481.699219 L 672.035156 486.566406 L 672.601562 491.636719 L 673.167969 496.925781 L 673.730469 502.472656 L 674.296875 508.316406 L 674.863281 514.5 L 675.429688 521.097656 L 675.996094 528.191406 L 676.558594 535.921875 L 677.125 544.484375 L 677.691406 554.21875 L 678.257812 565.78125 L 678.824219 580.871094 "/>
<g clip-path="url(#clip-19)">
<path fill="none" stroke-width="2.521949" stroke-linecap="butt" stroke-linejoin="round" stroke="rgb(0%, 0%, 0%)" stroke-opacity="1" stroke-dasharray="10.087795 10.087795" stroke-miterlimit="10" d="M 208.019531 607.917969 L 208.019531 12.953125 "/>
</g>
<g fill="rgb(0%, 0%, 0%)" fill-opacity="1">
<use xlink:href="#glyph-0-1" x="236.9375" y="181.239258"/>
<use xlink:href="#glyph-0-2" x="248.9375" y="181.239258"/>
<use xlink:href="#glyph-0-3" x="259.9375" y="181.239258"/>
<use xlink:href="#glyph-0-4" x="266.9375" y="181.239258"/>
<use xlink:href="#glyph-0-5" x="272.9375" y="181.239258"/>
<use xlink:href="#glyph-0-6" x="283.9375" y="181.239258"/>
<use xlink:href="#glyph-0-7" x="295.9375" y="181.239258"/>
<use xlink:href="#glyph-0-8" x="306.9375" y="181.239258"/>
<use xlink:href="#glyph-0-9" x="312.9375" y="181.239258"/>
<use xlink:href="#glyph-0-10" x="323.9375" y="181.239258"/>
</g>
<g fill="rgb(0%, 0%, 0%)" fill-opacity="1">
<use xlink:href="#glyph-0-11" x="220.4375" y="209.918945"/>
<use xlink:href="#glyph-0-12" x="226.4375" y="209.918945"/>
<use xlink:href="#glyph-0-13" x="237.4375" y="209.918945"/>
<use xlink:href="#glyph-0-4" x="248.4375" y="209.918945"/>
<use xlink:href="#glyph-0-14" x="254.4375" y="209.918945"/>
<use xlink:href="#glyph-0-15" x="267.4375" y="209.918945"/>
<use xlink:href="#glyph-0-4" x="281.4375" y="209.918945"/>
<use xlink:href="#glyph-0-16" x="287.4375" y="209.918945"/>
<use xlink:href="#glyph-0-17" x="291.4375" y="209.918945"/>
<use xlink:href="#glyph-0-4" x="301.4375" y="209.918945"/>
<use xlink:href="#glyph-0-7" x="307.4375" y="209.918945"/>
<use xlink:href="#glyph-0-18" x="318.4375" y="209.918945"/>
<use xlink:href="#glyph-0-9" x="324.4375" y="209.918945"/>
<use xlink:href="#glyph-0-9" x="335.4375" y="209.918945"/>
</g>
<g clip-path="url(#clip-20)">
<path fill="none" stroke-width="2.521949" stroke-linecap="round" stroke-linejoin="round" stroke="rgb(20%, 20%, 20%)" stroke-opacity="1" stroke-miterlimit="10" d="M 86.082031 607.917969 L 707.046875 607.917969 L 707.046875 12.953125 L 86.082031 12.953125 Z M 86.082031 607.917969 "/>
</g>
<g fill="rgb(30.196078%, 30.196078%, 30.196078%)" fill-opacity="1">
<use xlink:href="#glyph-1-1" x="44.425781" y="494.782227"/>
<use xlink:href="#glyph-1-2" x="56.425781" y="494.782227"/>
<use xlink:href="#glyph-1-3" x="62.425781" y="494.782227"/>
</g>
<g fill="rgb(30.196078%, 30.196078%, 30.196078%)" fill-opacity="1">
<use xlink:href="#glyph-1-4" x="44.425781" y="365.676758"/>
<use xlink:href="#glyph-1-2" x="56.425781" y="365.676758"/>
<use xlink:href="#glyph-1-1" x="62.425781" y="365.676758"/>
</g>
<g fill="rgb(30.196078%, 30.196078%, 30.196078%)" fill-opacity="1">
<use xlink:href="#glyph-1-4" x="44.425781" y="236.571289"/>
<use xlink:href="#glyph-1-2" x="56.425781" y="236.571289"/>
<use xlink:href="#glyph-1-3" x="62.425781" y="236.571289"/>
</g>
<g fill="rgb(30.196078%, 30.196078%, 30.196078%)" fill-opacity="1">
<use xlink:href="#glyph-1-5" x="44.425781" y="107.46582"/>
<use xlink:href="#glyph-1-2" x="56.425781" y="107.46582"/>
<use xlink:href="#glyph-1-1" x="62.425781" y="107.46582"/>
</g>
<path fill="none" stroke-width="2.521949" stroke-linecap="butt" stroke-linejoin="round" stroke="rgb(20%, 20%, 20%)" stroke-opacity="1" stroke-miterlimit="10" d="M 79.609375 488.265625 L 86.082031 488.265625 "/>
<path fill="none" stroke-width="2.521949" stroke-linecap="butt" stroke-linejoin="round" stroke="rgb(20%, 20%, 20%)" stroke-opacity="1" stroke-miterlimit="10" d="M 79.609375 359.160156 L 86.082031 359.160156 "/>
<path fill="none" stroke-width="2.521949" stroke-linecap="butt" stroke-linejoin="round" stroke="rgb(20%, 20%, 20%)" stroke-opacity="1" stroke-miterlimit="10" d="M 79.609375 230.054688 L 86.082031 230.054688 "/>
<path fill="none" stroke-width="2.521949" stroke-linecap="butt" stroke-linejoin="round" stroke="rgb(20%, 20%, 20%)" stroke-opacity="1" stroke-miterlimit="10" d="M 79.609375 100.949219 L 86.082031 100.949219 "/>
<path fill="none" stroke-width="2.521949" stroke-linecap="butt" stroke-linejoin="round" stroke="rgb(20%, 20%, 20%)" stroke-opacity="1" stroke-miterlimit="10" d="M 113.742188 614.390625 L 113.742188 607.917969 "/>
<path fill="none" stroke-width="2.521949" stroke-linecap="butt" stroke-linejoin="round" stroke="rgb(20%, 20%, 20%)" stroke-opacity="1" stroke-miterlimit="10" d="M 255.15625 614.390625 L 255.15625 607.917969 "/>
<path fill="none" stroke-width="2.521949" stroke-linecap="butt" stroke-linejoin="round" stroke="rgb(20%, 20%, 20%)" stroke-opacity="1" stroke-miterlimit="10" d="M 396.566406 614.390625 L 396.566406 607.917969 "/>
<path fill="none" stroke-width="2.521949" stroke-linecap="butt" stroke-linejoin="round" stroke="rgb(20%, 20%, 20%)" stroke-opacity="1" stroke-miterlimit="10" d="M 537.976562 614.390625 L 537.976562 607.917969 "/>
<path fill="none" stroke-width="2.521949" stroke-linecap="butt" stroke-linejoin="round" stroke="rgb(20%, 20%, 20%)" stroke-opacity="1" stroke-miterlimit="10" d="M 679.386719 614.390625 L 679.386719 607.917969 "/>
<g fill="rgb(30.196078%, 30.196078%, 30.196078%)" fill-opacity="1">
<use xlink:href="#glyph-1-1" x="92.742188" y="633.59082"/>
<use xlink:href="#glyph-1-2" x="104.742188" y="633.59082"/>
<use xlink:href="#glyph-1-1" x="110.742188" y="633.59082"/>
<use xlink:href="#glyph-1-1" x="122.742188" y="633.59082"/>
</g>
<g fill="rgb(30.196078%, 30.196078%, 30.196078%)" fill-opacity="1">
<use xlink:href="#glyph-1-1" x="234.15625" y="633.59082"/>
<use xlink:href="#glyph-1-2" x="246.15625" y="633.59082"/>
<use xlink:href="#glyph-1-5" x="252.15625" y="633.59082"/>
<use xlink:href="#glyph-1-3" x="264.15625" y="633.59082"/>
</g>
<g fill="rgb(30.196078%, 30.196078%, 30.196078%)" fill-opacity="1">
<use xlink:href="#glyph-1-1" x="375.566406" y="633.59082"/>
<use xlink:href="#glyph-1-2" x="387.566406" y="633.59082"/>
<use xlink:href="#glyph-1-3" x="393.566406" y="633.59082"/>
<use xlink:href="#glyph-1-1" x="405.566406" y="633.59082"/>
</g>
<g fill="rgb(30.196078%, 30.196078%, 30.196078%)" fill-opacity="1">
<use xlink:href="#glyph-1-1" x="516.976562" y="633.59082"/>
<use xlink:href="#glyph-1-2" x="528.976562" y="633.59082"/>
<use xlink:href="#glyph-1-6" x="534.976562" y="633.59082"/>
<use xlink:href="#glyph-1-3" x="546.976562" y="633.59082"/>
</g>
<g fill="rgb(30.196078%, 30.196078%, 30.196078%)" fill-opacity="1">
<use xlink:href="#glyph-1-4" x="658.386719" y="633.59082"/>
<use xlink:href="#glyph-1-2" x="670.386719" y="633.59082"/>
<use xlink:href="#glyph-1-1" x="676.386719" y="633.59082"/>
<use xlink:href="#glyph-1-1" x="688.386719" y="633.59082"/>
</g>
<g fill="rgb(0%, 0%, 0%)" fill-opacity="1">
<use xlink:href="#glyph-2-1" x="274.066406" y="664.067383"/>
<use xlink:href="#glyph-2-2" x="288.066406" y="664.067383"/>
<use xlink:href="#glyph-2-3" x="297.066406" y="664.067383"/>
<use xlink:href="#glyph-2-4" x="311.066406" y="664.067383"/>
<use xlink:href="#glyph-2-5" x="325.066406" y="664.067383"/>
<use xlink:href="#glyph-2-4" x="339.066406" y="664.067383"/>
<use xlink:href="#glyph-2-6" x="353.066406" y="664.067383"/>
<use xlink:href="#glyph-2-7" x="359.066406" y="664.067383"/>
<use xlink:href="#glyph-2-6" x="365.066406" y="664.067383"/>
<use xlink:href="#glyph-2-8" x="371.066406" y="664.067383"/>
<use xlink:href="#glyph-2-9" x="378.066406" y="664.067383"/>
<use xlink:href="#glyph-2-10" x="391.066406" y="664.067383"/>
<use xlink:href="#glyph-2-3" x="398.066406" y="664.067383"/>
<use xlink:href="#glyph-2-11" x="412.066406" y="664.067383"/>
<use xlink:href="#glyph-2-10" x="419.066406" y="664.067383"/>
<use xlink:href="#glyph-2-12" x="426.066406" y="664.067383"/>
<use xlink:href="#glyph-2-13" x="439.066406" y="664.067383"/>
<use xlink:href="#glyph-2-14" x="453.066406" y="664.067383"/>
<use xlink:href="#glyph-2-14" x="466.066406" y="664.067383"/>
<use xlink:href="#glyph-2-15" x="479.066406" y="664.067383"/>
<use xlink:href="#glyph-2-12" x="493.066406" y="664.067383"/>
<use xlink:href="#glyph-2-12" x="506.066406" y="664.067383"/>
</g>
<g fill="rgb(0%, 0%, 0%)" fill-opacity="1">
<use xlink:href="#glyph-3-1" x="30.973633" y="602.933594"/>
<use xlink:href="#glyph-3-2" x="30.973633" y="589.933594"/>
<use xlink:href="#glyph-3-3" x="30.973633" y="582.933594"/>
<use xlink:href="#glyph-3-4" x="30.973633" y="568.933594"/>
<use xlink:href="#glyph-3-5" x="30.973633" y="554.933594"/>
<use xlink:href="#glyph-3-3" x="30.973633" y="540.933594"/>
<use xlink:href="#glyph-3-6" x="30.973633" y="526.933594"/>
<use xlink:href="#glyph-3-5" x="30.973633" y="517.933594"/>
<use xlink:href="#glyph-3-7" x="30.973633" y="503.933594"/>
<use xlink:href="#glyph-3-5" x="30.973633" y="496.933594"/>
<use xlink:href="#glyph-3-8" x="30.973633" y="482.933594"/>
<use xlink:href="#glyph-3-9" x="30.973633" y="468.933594"/>
<use xlink:href="#glyph-3-10" x="30.973633" y="455.933594"/>
<use xlink:href="#glyph-3-3" x="30.973633" y="449.933594"/>
<use xlink:href="#glyph-3-2" x="30.973633" y="435.933594"/>
<use xlink:href="#glyph-3-10" x="30.973633" y="428.933594"/>
<use xlink:href="#glyph-3-11" x="30.973633" y="422.933594"/>
<use xlink:href="#glyph-3-4" x="30.973633" y="408.933594"/>
<use xlink:href="#glyph-3-7" x="30.973633" y="394.933594"/>
<use xlink:href="#glyph-3-10" x="30.973633" y="387.933594"/>
<use xlink:href="#glyph-3-4" x="30.973633" y="381.933594"/>
<use xlink:href="#glyph-3-7" x="30.973633" y="367.933594"/>
<use xlink:href="#glyph-3-4" x="30.973633" y="360.933594"/>
<use xlink:href="#glyph-3-12" x="30.973633" y="346.933594"/>
<use xlink:href="#glyph-3-13" x="30.973633" y="332.933594"/>
<use xlink:href="#glyph-3-14" x="30.973633" y="310.933594"/>
<use xlink:href="#glyph-3-8" x="30.973633" y="296.933594"/>
<use xlink:href="#glyph-3-6" x="30.973633" y="282.933594"/>
<use xlink:href="#glyph-3-7" x="30.973633" y="273.933594"/>
<use xlink:href="#glyph-3-11" x="30.973633" y="266.933594"/>
<use xlink:href="#glyph-3-15" x="30.973633" y="252.933594"/>
<use xlink:href="#glyph-3-7" x="30.973633" y="245.933594"/>
<use xlink:href="#glyph-3-1" x="30.973633" y="238.933594"/>
<use xlink:href="#glyph-3-12" x="30.973633" y="225.933594"/>
<use xlink:href="#glyph-3-16" x="30.973633" y="211.933594"/>
<use xlink:href="#glyph-3-16" x="30.973633" y="198.933594"/>
<use xlink:href="#glyph-3-8" x="30.973633" y="185.933594"/>
<use xlink:href="#glyph-3-1" x="30.973633" y="171.933594"/>
<use xlink:href="#glyph-3-1" x="30.973633" y="158.933594"/>
<use xlink:href="#glyph-3-8" x="30.973633" y="145.933594"/>
<use xlink:href="#glyph-3-1" x="30.973633" y="131.933594"/>
<use xlink:href="#glyph-3-7" x="30.973633" y="118.933594"/>
<use xlink:href="#glyph-3-15" x="30.973633" y="111.933594"/>
<use xlink:href="#glyph-3-11" x="30.973633" y="104.933594"/>
<use xlink:href="#glyph-3-6" x="30.973633" y="90.933594"/>
<use xlink:href="#glyph-3-7" x="30.973633" y="81.933594"/>
<use xlink:href="#glyph-3-4" x="30.973633" y="74.933594"/>
<use xlink:href="#glyph-3-17" x="30.973633" y="60.933594"/>
<use xlink:href="#glyph-3-18" x="30.973633" y="45.933594"/>
<use xlink:href="#glyph-3-19" x="30.973633" y="31.933594"/>
</g>
</svg>
